<svg xmlns="http://www.w3.org/2000/svg" xmlns:xlink="http://www.w3.org/1999/xlink" xmlns:serif="http://www.serif.com/" width="100%" height="100%" viewBox="0 0 320 168" xml:space="preserve" style="fill-rule:evenodd;clip-rule:evenodd;stroke-linejoin:round;stroke-miterlimit:2;"><g><g><path d="M156.605,91.983l64.109,0l0,-5.575l-66.896,0c-0.001,0 -0.001,0 -0.002,0c-1.528,0 -2.786,1.257 -2.786,2.786c0,0 0,0.001 0,0.001l0,66.897l5.575,0l0,-64.109Z" style="fill:#fff;fill-rule:nonzero;"></path><path d="M156.605,5.575l64.109,0l0,-5.575l-66.896,0c-0.001,0 -0.001,0 -0.002,0c-1.528,0 -2.786,1.258 -2.786,2.786c0,0 0,0.001 0,0.001l0,66.897l5.575,0l0,-64.109Z" style="fill:#fff;fill-rule:nonzero;"></path><path d="M81.572,5.575l64.109,0l0,-5.575l-66.896,0c-0.001,0 -0.001,0 -0.002,0c-1.528,0 -2.786,1.258 -2.786,2.786c0,0 0,0.001 0,0.001l0,66.897l5.575,0l0,-64.109Z" style="fill:#fff;fill-rule:nonzero;"></path><path d="M5.601,5.575l64.109,0l0,-5.575l-66.896,0c-0.001,0 -0.001,0 -0.002,0c-1.528,0 -2.786,1.258 -2.786,2.786c0,0 0,0.001 0,0.001l0,66.897l5.575,0l0,-64.109Z" style="fill:#fff;fill-rule:nonzero;"></path><path d="M81.572,91.863l64.109,0l0,-5.575l-66.896,0c-0.001,0 -0.001,0 -0.002,0c-1.528,0 -2.786,1.257 -2.786,2.786c0,0 0,0.001 0,0.001l0,66.897l5.575,0l0,-64.109Z" style="fill:#fff;fill-rule:nonzero;"></path><path d="M5.601,91.863l64.109,0l0,-5.575l-66.896,0c-0.001,0 -0.001,0 -0.002,0c-1.528,0 -2.786,1.257 -2.786,2.786c0,0 0,0.001 0,0.001l0,66.897l5.575,0l0,-64.109Z" style="fill:#fff;fill-rule:nonzero;"></path><path d="M140.084,75.011l-64.109,-0.049l-0.004,5.575l66.896,0.051c0.001,0 0.001,0 0.002,0c1.528,0.001 2.787,-1.255 2.788,-2.784c0,0 0,-0.001 0,-0.001l0.051,-66.897l-5.575,-0.004l-0.049,64.109Z" style="fill:#fff;fill-rule:nonzero;"></path><path d="M64.113,75.011l-64.109,-0.049l-0.004,5.575l66.896,0.051c0.001,0 0.001,0 0.002,0c1.528,0.001 2.787,-1.255 2.788,-2.784c0,0 0,-0.001 0,-0.001l0.051,-66.897l-5.575,-0.004l-0.049,64.109Z" style="fill:#fff;fill-rule:nonzero;"></path><path d="M140.084,161.299l-64.109,-0.049l-0.004,5.575l66.896,0.051c0.001,0 0.001,0 0.002,0c1.528,0.001 2.787,-1.256 2.788,-2.784c0,0 0,-0.001 0,-0.001l0.051,-66.897l-5.575,-0.004l-0.049,64.109Z" style="fill:#fff;fill-rule:nonzero;"></path><path d="M64.113,161.299l-64.109,-0.049l-0.004,5.575l66.896,0.051c0.001,0 0.001,0 0.002,0c1.528,0.001 2.787,-1.256 2.788,-2.784c0,0 0,-0.001 0,-0.001l0.051,-66.897l-5.575,-0.004l-0.049,64.109Z" style="fill:#fff;fill-rule:nonzero;"></path><path d="M315.813,35.648l4.005,-2.668l-3.093,-4.638l-4.004,2.667c-5.273,3.489 -11.494,5.274 -17.814,5.112l-6.876,-14.735c2.529,0.56 5.112,0.846 7.702,0.853c7.149,-0.004 14.139,-2.128 20.08,-6.103l4.005,-2.667l-3.093,-4.639l-4.004,2.668c-8.223,5.488 -18.621,6.65 -27.852,3.112l-3.617,-7.75c-1.374,-2.94 -4.339,-4.826 -7.584,-4.826c-2.02,0 -3.973,0.731 -5.497,2.058c-11.536,-5.975 -25.445,-5.26 -36.307,1.867l0,-5.959l-5.575,0l0,75.258l-75.259,0l0,5.575l75.259,0l0,80.833l-75.259,0l0,5.575l78.046,0c0.001,0 0.001,0 0.002,0c1.528,0 2.786,-1.257 2.786,-2.786l0,-15.233l2.762,-1.841c7.399,-4.886 16.559,-6.347 25.111,-4.007l0,21.081c0,1.529 1.258,2.786 2.786,2.786l22.302,0c1.528,0 2.786,-1.257 2.786,-2.786l0,-6.598c9.703,2.239 19.913,0.378 28.202,-5.141l4.005,-2.667l-3.093,-4.638l-4.004,2.667c-7.399,4.886 -16.558,6.348 -25.11,4.007l0,-13.739c9.703,2.238 19.913,0.377 28.202,-5.141l4.005,-2.668l-3.093,-4.638l-4.004,2.668c-7.399,4.885 -16.558,6.346 -25.11,4.006l0,-13.739c9.703,2.239 19.913,0.378 28.202,-5.141l4.005,-2.667l-3.093,-4.638l-4.004,2.667c-7.4,4.884 -16.558,6.345 -25.11,4.007l0,-9.932c0,-1.528 -1.258,-2.785 -2.786,-2.785l-2.789,0l0,-2.758c11.109,4.583 23.806,3.303 33.777,-3.405l4.005,-2.668l-3.093,-4.638l-4.004,2.668c-9.129,6.11 -20.885,6.822 -30.685,1.857l0,-7.78l13.153,0c3.701,0.002 7.254,-1.479 9.857,-4.111l0.007,0.028c3.83,-1.022 7.465,-2.666 10.76,-4.867l4.005,-2.668l-3.093,-4.638l-4.004,2.667c-1.22,0.808 -2.496,1.527 -3.819,2.151c0.521,-2.841 0.143,-5.776 -1.083,-8.392l-1.879,-4.026c3.506,-1.025 6.835,-2.578 9.873,-4.606l4.005,-2.667l-3.093,-4.639l-4.004,2.668c-2.809,1.87 -5.91,3.26 -9.176,4.112l-6.05,-12.966c6.536,-0.323 12.865,-2.402 18.318,-6.019Zm-81.187,-24.847c9.081,-6.071 20.758,-6.809 30.531,-1.931l-5.437,11.652c-9.57,-2.166 -19.621,-0.377 -27.856,4.96l0,-12.84l2.762,-1.841Zm30.672,89.544c-10.979,-4.509 -23.504,-3.316 -33.434,3.184l0,-12.842l2.762,-1.84c9.131,-6.108 20.885,-6.82 30.686,-1.857l0,13.355l-0.014,0Zm-33.434,9.854l2.762,-1.841c7.38,-4.934 16.556,-6.412 25.111,-4.044l0,13.77c-9.575,-2.171 -19.633,-0.383 -27.873,4.955l0,-12.84Zm0,-26.194l0,-12.829l2.762,-1.841c1.22,-0.807 2.496,-1.525 3.818,-2.15c-0.833,4.425 0.563,8.987 3.729,12.189c-3.657,0.997 -7.135,2.56 -10.309,4.631Zm9.357,-23.841c-3.31,0.989 -6.462,2.448 -9.357,4.332l0,-12.831l2.762,-1.841c4.11,-2.739 8.823,-4.441 13.734,-4.958l-7.139,15.298Zm9.824,-21.051c-6.82,0.104 -13.471,2.14 -19.181,5.87l0,-12.83l2.762,-1.841c6.672,-4.406 14.803,-6.049 22.662,-4.579l-6.243,13.38Zm-19.181,103.437l0,-12.84l2.762,-1.84c7.399,-4.886 16.559,-6.348 25.111,-4.007l0,13.732c-9.575,-2.173 -19.634,-0.385 -27.873,4.955Zm50.172,19.116l-16.724,0l0,-55.747l16.724,0l0,55.747Zm-11.15,-61.321l0,-30.661c0,-1.529 1.259,-2.788 2.788,-2.788c1.529,0 2.787,1.259 2.787,2.788l0,30.661l-5.575,0Zm31.355,-26.17c-1.528,2.414 -4.196,3.878 -7.052,3.871l-13.153,0l0,-8.362c0,-4.587 -3.775,-8.362 -8.362,-8.362c-4.587,0 -8.362,3.775 -8.362,8.362l0,8.362l-13.153,0c-4.587,-0.001 -8.362,-3.776 -8.362,-8.363c0,-1.222 0.268,-2.428 0.784,-3.535l26.567,-56.931c0.457,-0.98 1.445,-1.609 2.526,-1.609c1.081,0 2.069,0.629 2.526,1.609l26.567,56.931c1.214,2.586 1.015,5.622 -0.526,8.027Z" style="fill:#fff;fill-rule:nonzero;"></path></g></g></svg>