<svg xmlns="http://www.w3.org/2000/svg" xmlns:xlink="http://www.w3.org/1999/xlink" xmlns:serif="http://www.serif.com/" width="100%" height="100%" viewBox="0 0 2000 2000" xml:space="preserve" style="fill-rule:evenodd;clip-rule:evenodd;stroke-linejoin:round;stroke-miterlimit:2;"><path d="M1996.32,474.259c-6.883,-25.597 -23.677,-47.42 -46.655,-60.65c-22.994,-13.295 -50.333,-16.892 -75.98,-10.008c-25.614,6.9 -47.437,23.678 -60.667,46.655l-16.664,28.999c-15.833,-9.096 -36.061,-3.742 -45.321,12.01l-84.653,144.295l-28.999,-16.664c-7.681,-4.442 -16.827,-5.647 -25.386,-3.336c-8.576,2.327 -15.867,7.958 -20.277,15.671c-9.032,15.932 -3.531,36.176 12.335,45.321l28.999,16.664l-283.285,490.916l-69.991,186.98l-33.328,62.31c-19.512,33.946 -17.429,76.143 5.338,107.99l-74.988,91.976l-20.992,-52.644c-9.471,-23.466 -31.391,-39.544 -56.598,-41.513c-25.224,-1.985 -49.39,10.48 -62.392,32.172l-11.994,20.326l-11.326,-133.311c-2.604,-31.538 -27.03,-56.891 -58.437,-60.699c-31.424,-3.792 -61.171,15.036 -71.212,45.044l-81.985,245.954c-5.728,17.396 3.646,36.143 20.993,42.002c3.255,1.513 6.753,2.424 10.333,2.652c14.321,0.049 27.079,-9.08 31.668,-22.652l81.643,-245.954l11.668,135.296c2.409,28.868 23.157,52.871 51.375,59.413c28.218,6.542 57.412,-5.891 72.269,-30.74l12.336,-20.342l20.667,52.335c8.771,22.051 28.608,37.787 52.09,41.286c23.483,3.498 47.046,-5.761 61.888,-24.296l77.656,-98.307c8.592,2.245 17.445,3.368 26.33,3.336c35.72,0.276 68.885,-18.535 86.98,-49.341l33.328,-55.654l126.98,-154.303l286.28,-496.921l28.999,16.664c7.729,4.426 13.36,11.733 15.655,20.341c2.31,8.544 1.106,17.657 -3.32,25.322l-133.311,230.966c-5.028,7.583 -6.737,16.892 -4.719,25.777c2.018,8.869 7.567,16.534 15.378,21.204c7.681,4.459 16.827,5.663 25.387,3.352c8.576,-2.327 15.866,-7.957 20.276,-15.671l133.311,-230.966c13.295,-22.994 16.891,-50.334 9.991,-75.98c-6.899,-25.614 -23.677,-47.437 -46.655,-60.667l-28.999,-16.664l83.319,-144.311c9.097,-15.834 3.743,-36.045 -11.993,-45.321l16.664,-28.999c13.653,-23.352 17.265,-51.245 9.991,-77.315Zm-125.646,9.325c4.41,-7.713 11.733,-13.36 20.342,-15.655c8.56,-2.115 17.608,-0.927 25.321,3.336c7.73,4.41 13.361,11.733 15.671,20.326c2.116,8.559 0.928,17.607 -3.336,25.321l-16.663,28.999l-57.998,-33.328l16.663,-28.999Zm-454.252,930.522l-16.663,-9.666l-49.325,-28.674l47.323,-126.639l104.979,60.651l-86.314,104.328Zm-99.983,96.305c-14.076,-9.813 -18.405,-28.69 -9.991,-43.661l16.663,-28.983l57.982,33.328l-16.664,28.657c-4.67,8.104 -12.514,13.865 -21.643,15.899c-9.129,2.018 -18.682,0.13 -26.347,-5.24Zm224.295,-255.279l-115.313,-66.655l266.622,-461.933l115.312,66.655l-266.621,461.933Zm299.949,-519.589l-115.313,-66.655l66.656,-115.313l115.312,66.656l-66.655,115.312Z" style="fill:#fff;fill-rule:nonzero;"></path><path d="M525.903,1493.75l-117.965,117.656l-70.658,-70.659c-13.003,-12.921 -33.995,-12.921 -46.997,0c-6.314,6.266 -9.862,14.777 -9.862,23.662c0,8.885 3.548,17.412 9.862,23.661l70.658,70.659c12.498,12.4 29.39,19.349 46.997,19.332c17.706,0.098 34.744,-6.851 47.323,-19.332l117.639,-117.982c11.327,-13.23 10.562,-32.937 -1.741,-45.239c-12.319,-12.319 -32.026,-13.084 -45.256,-1.758Z" style="fill:#fff;fill-rule:nonzero;"></path><path d="M133.311,1583.4c0,156.467 126.833,283.285 283.285,283.285c156.451,0 283.285,-126.818 283.285,-283.285c0,-18.405 -14.923,-33.328 -33.328,-33.328c-18.405,0 -33.328,14.923 -33.328,33.328c0,119.641 -96.988,216.629 -216.629,216.629c-119.641,0 -216.63,-96.988 -216.63,-216.629c0,-119.641 96.989,-216.63 216.63,-216.63c46.899,-0.13 92.546,15.085 129.974,43.336c14.728,11.049 35.622,8.055 46.656,-6.672c11.049,-14.728 8.071,-35.606 -6.656,-46.656c-85.842,-64.377 -200.698,-74.727 -296.662,-26.753c-95.979,47.99 -156.597,146.085 -156.597,253.375Z" style="fill:#fff;fill-rule:nonzero;"></path><path d="M1199.8,266.954c18.405,0 33.327,-14.906 33.327,-33.327c0,-18.405 -14.922,-33.328 -33.327,-33.328l-866.519,0c-18.406,0 -33.328,14.923 -33.328,33.328l0,133.31c0,18.422 14.922,33.328 33.328,33.328l866.519,0c18.405,0 33.327,-14.906 33.327,-33.328c0,-18.405 -14.922,-33.327 -33.327,-33.327l-833.192,0l0,-66.656l833.192,0Z" style="fill:#fff;fill-rule:nonzero;"></path><path d="M433.26,466.92c-18.406,0 -33.328,14.923 -33.328,33.328c0,18.421 14.922,33.328 33.328,33.328l666.553,0c18.405,0 33.327,-14.907 33.327,-33.328c0,-18.405 -14.922,-33.328 -33.327,-33.328l-666.553,0Z" style="fill:#fff;fill-rule:nonzero;"></path><path d="M1299.78,700.214l-733.209,0c-18.405,0 -33.328,14.922 -33.328,33.327c0,18.422 14.923,33.328 33.328,33.328l733.209,0c18.405,0 33.327,-14.906 33.327,-33.328c0,-18.405 -14.922,-33.327 -33.327,-33.327Z" style="fill:#fff;fill-rule:nonzero;"></path><path d="M966.502,933.507c0,-18.405 -14.923,-33.327 -33.328,-33.327l-666.553,0c-18.405,0 -33.327,14.922 -33.327,33.327c0,18.422 14.922,33.328 33.327,33.328l666.553,0c18.405,0 33.328,-14.906 33.328,-33.328Z" style="fill:#fff;fill-rule:nonzero;"></path><path d="M1299.78,900.18l-233.294,0c-18.405,0 -33.328,14.922 -33.328,33.327c0,18.422 14.923,33.328 33.328,33.328l233.294,0c18.405,0 33.327,-14.906 33.327,-33.328c0,-18.405 -14.922,-33.327 -33.327,-33.327Z" style="fill:#fff;fill-rule:nonzero;"></path><path d="M599.898,1133.47c18.405,0 33.327,-14.906 33.327,-33.327c0,-18.405 -14.922,-33.328 -33.327,-33.328l-333.277,0c-18.405,0 -33.327,14.923 -33.327,33.328c0,18.421 14.922,33.327 33.327,33.327l333.277,0Z" style="fill:#fff;fill-rule:nonzero;"></path><path d="M733.208,1133.47l233.294,0c18.405,0 33.328,-14.906 33.328,-33.327c0,-18.405 -14.923,-33.328 -33.328,-33.328l-233.294,0c-18.405,0 -33.327,14.923 -33.327,33.328c0,18.421 14.922,33.327 33.327,33.327Z" style="fill:#fff;fill-rule:nonzero;"></path><path d="M1499.75,1533.4c-18.406,0 -33.328,14.923 -33.328,33.328l0,333.276c0,18.422 -14.923,33.328 -33.328,33.328l-1333.11,0c-18.405,0 -33.328,-14.906 -33.328,-33.328l0,-1799.69c0,-18.405 14.923,-33.328 33.328,-33.328l1333.11,0c18.405,0 33.328,14.923 33.328,33.328l0,625.903c0,18.405 14.922,33.327 33.328,33.327c18.405,0 33.327,-14.922 33.327,-33.327l0,-625.903c0,-55.215 -44.768,-99.983 -99.983,-99.983l-1333.11,0c-55.215,0 -99.983,44.768 -99.983,99.983l0,1799.69c0,55.232 44.768,99.983 99.983,99.983l1333.11,0c55.215,0 99.983,-44.751 99.983,-99.983l0,-333.276c0,-18.405 -14.922,-33.328 -33.327,-33.328Z" style="fill:#fff;fill-rule:nonzero;"></path></svg>