<svg xmlns="http://www.w3.org/2000/svg" xmlns:xlink="http://www.w3.org/1999/xlink" xmlns:serif="http://www.serif.com/" width="100%" height="100%" viewBox="0 0 346 417" xml:space="preserve" style="fill-rule:evenodd;clip-rule:evenodd;stroke-linejoin:round;stroke-miterlimit:2;"><g><rect x="80.575" y="110.95" width="183.921" height="13.021" style="fill:#fff;"></rect><rect x="114.008" y="161.538" width="117.033" height="13.021" style="fill:#fff;"></rect><path d="M345.054,0l-276.292,0l-68.762,68.763l0,347.904l345.054,0l-0.004,-416.667l0.004,0Zm-278.304,20.429l0,46.263l-46.263,0l46.263,-46.263Zm265.287,383.217l-319.012,0l0,-323.934l66.746,0.001l0,-66.692l252.267,0l0,390.625Z" style="fill:#fff;fill-rule:nonzero;"></path><g><path d="M92.77,298.383c-5.075,3.913 -11.312,5.922 -17.55,5.922c-15.119,0 -25.586,-10.575 -25.586,-26.015c0,-16.075 10.361,-26.015 24.106,-26.015c7.401,0 12.264,2.009 16.704,4.97l5.815,-9.617c-4.863,-4.436 -12.898,-7.498 -22.519,-7.498c-24.422,0 -37.837,16.903 -37.837,38.16c0,23.054 15.529,38.16 38.154,38.16c9.621,0 19.03,-3.379 23.682,-8.343l-4.969,-9.724Z" style="fill:#fff;fill-rule:nonzero;"></path><path d="M157.487,315.287l12.886,0l0,-73.889l-12.886,0l0,30.132l-33.845,0l0,-30.132l-12.991,0l0,73.889l12.991,0l0,-31.612l33.845,0l0,31.612Z" style="fill:#fff;fill-rule:nonzero;"></path><path d="M199.553,315.287l22.215,-30.123l0,30.123l12.146,0l0,-47.563l-12.146,0l-22.215,30.123l0,-30.123l-12.145,0l0,47.563l12.145,0Z" style="fill:#fff;fill-rule:nonzero;"></path><path d="M296.939,315.287l12.991,0l0,-73.889l-58.981,0l0,73.889l12.991,0l0,-61.743l32.999,0l0,61.743Z" style="fill:#fff;fill-rule:nonzero;"></path></g></g></svg>