<svg xmlns="http://www.w3.org/2000/svg" xmlns:xlink="http://www.w3.org/1999/xlink" xmlns:serif="http://www.serif.com/" width="100%" height="100%" viewBox="0 0 2134 2134" xml:space="preserve" style="fill-rule:evenodd;clip-rule:evenodd;stroke-linejoin:round;stroke-miterlimit:2;"><g><path d="M2066.67,2033.33l-133.334,0l0,-236.625c94.459,-18.583 166.667,-114.625 166.667,-230.041c0,-128.667 -89.708,-233.334 -200,-233.334c-110.292,0 -200,104.667 -200,233.334c0,115.416 72.208,211.458 166.667,230.041l0,107.667l-48.167,-32.125c-5.478,-3.652 -11.916,-5.601 -18.5,-5.601c-18.296,0 -33.351,15.055 -33.351,33.351c0,11.14 5.582,21.57 14.851,27.75l85.167,56.75l0,48.833l-200,0l0,-1833.33c0,-18.286 -15.048,-33.333 -33.334,-33.333l-233.333,0l0,-100c0,-18.286 -15.047,-33.334 -33.333,-33.334l-600,0c-18.286,0 -33.334,15.048 -33.334,33.334l0,100l-233.333,0c-18.286,0 -33.333,15.047 -33.333,33.333l0,1833.33l-200,0l0,-236.625c94.458,-18.583 166.666,-114.625 166.666,-230.041c0,-128.667 -89.708,-233.334 -200,-233.334c-110.291,0 -200,104.667 -200,233.334c0,115.416 72.209,211.458 166.667,230.041l0,107.667l-48.167,-32.125c-5.478,-3.652 -11.916,-5.601 -18.5,-5.601c-18.296,0 -33.351,15.055 -33.351,33.351c0,11.14 5.582,21.57 14.851,27.75l85.167,56.75l0,48.833l-133.333,0c-18.286,0 -33.334,15.048 -33.334,33.334c0,18.286 15.048,33.333 33.334,33.333l2000,0c18.286,0 33.333,-15.047 33.333,-33.333c0,-18.286 -15.047,-33.334 -33.333,-33.334Zm-1833.33,-500c-18.286,0 -33.333,15.048 -33.333,33.334l0,161.375c-57.458,-18.542 -100,-83.875 -100,-161.375c0,-91.917 59.792,-166.667 133.333,-166.667c73.542,0 133.334,74.75 133.334,166.667c0,77.5 -42.542,142.833 -100,161.375l0,-161.375c0,-18.286 -15.048,-33.334 -33.334,-33.334Zm566.667,-1433.33l533.333,0l0,66.667l-533.333,0l0,-66.667Zm233.333,1933.33l-33.333,0l0,-266.666l33.333,0l0,266.666Zm100,0l-33.333,0l0,-266.666l33.333,0l0,266.666Zm466.667,0l-400,0l0,-300c0,-18.286 -15.047,-33.333 -33.333,-33.333l-200,0c-18.286,0 -33.334,15.047 -33.334,33.333l0,300l-400,0l0,-1600l1066.67,0l0,1600Zm0,-1666.67l-1066.67,0l0,-133.334l1066.67,0l0,133.334Zm300,1166.67c-18.286,0 -33.333,15.048 -33.333,33.334l0,161.375c-57.459,-18.542 -100,-83.875 -100,-161.375c0,-91.917 59.791,-166.667 133.333,-166.667c73.542,0 133.333,74.75 133.333,166.667c0,77.5 -42.541,142.833 -100,161.375l0,-161.375c0,-18.286 -15.047,-33.334 -33.333,-33.334Z" style="fill:#fff;fill-rule:nonzero;"></path><path d="M1166.67,1366.67l-200,0c-18.286,0 -33.334,15.047 -33.334,33.333l0,200c0,18.286 15.048,33.333 33.334,33.333l200,0c18.286,0 33.333,-15.047 33.333,-33.333l0,-200c0,-18.286 -15.047,-33.333 -33.333,-33.333Zm-33.334,200l-133.333,0l0,-133.334l133.333,0l0,133.334Z" style="fill:#fff;fill-rule:nonzero;"></path><path d="M833.333,1366.67l-200,0c-18.286,0 -33.333,15.047 -33.333,33.333l0,200c0,18.286 15.047,33.333 33.333,33.333l200,0c18.286,0 33.334,-15.047 33.334,-33.333l0,-200c0,-18.286 -15.048,-33.333 -33.334,-33.333Zm-33.333,200l-133.333,0l0,-133.334l133.333,0l0,133.334Z" style="fill:#fff;fill-rule:nonzero;"></path><path d="M1500,1366.67l-200,0c-18.286,0 -33.333,15.047 -33.333,33.333l0,200c0,18.286 15.047,33.333 33.333,33.333l200,0c18.286,0 33.333,-15.047 33.333,-33.333l0,-200c0,-18.286 -15.047,-33.333 -33.333,-33.333Zm-33.333,200l-133.334,0l0,-133.334l133.334,0l0,133.334Z" style="fill:#fff;fill-rule:nonzero;"></path><path d="M833.333,1700l-200,0c-18.286,0 -33.333,15.047 -33.333,33.333l0,200c0,18.286 15.047,33.334 33.333,33.334l200,0c18.286,0 33.334,-15.048 33.334,-33.334l0,-200c0,-18.286 -15.048,-33.333 -33.334,-33.333Zm-33.333,200l-133.333,0l0,-133.333l133.333,0l0,133.333Z" style="fill:#fff;fill-rule:nonzero;"></path><path d="M1500,1700l-200,0c-18.286,0 -33.333,15.047 -33.333,33.333l0,200c0,18.286 15.047,33.334 33.333,33.334l200,0c18.286,0 33.333,-15.048 33.333,-33.334l0,-200c0,-18.286 -15.047,-33.333 -33.333,-33.333Zm-33.333,200l-133.334,0l0,-133.333l133.334,0l0,133.333Z" style="fill:#fff;fill-rule:nonzero;"></path><path d="M1166.67,1066.67l-200,0c-18.286,0 -33.334,15.047 -33.334,33.333l0,200c0,18.286 15.048,33.333 33.334,33.333l200,0c18.286,0 33.333,-15.047 33.333,-33.333l0,-200c0,-18.286 -15.047,-33.333 -33.333,-33.333Zm-33.334,200l-133.333,0l0,-133.334l133.333,0l0,133.334Z" style="fill:#fff;fill-rule:nonzero;"></path><path d="M833.333,1066.67l-200,0c-18.286,0 -33.333,15.047 -33.333,33.333l0,200c0,18.286 15.047,33.333 33.333,33.333l200,0c18.286,0 33.334,-15.047 33.334,-33.333l0,-200c0,-18.286 -15.048,-33.333 -33.334,-33.333Zm-33.333,200l-133.333,0l0,-133.334l133.333,0l0,133.334Z" style="fill:#fff;fill-rule:nonzero;"></path><path d="M1500,1066.67l-200,0c-18.286,0 -33.333,15.047 -33.333,33.333l0,200c0,18.286 15.047,33.333 33.333,33.333l200,0c18.286,0 33.333,-15.047 33.333,-33.333l0,-200c0,-18.286 -15.047,-33.333 -33.333,-33.333Zm-33.333,200l-133.334,0l0,-133.334l133.334,0l0,133.334Z" style="fill:#fff;fill-rule:nonzero;"></path><path d="M1166.67,766.667l-200,0c-18.286,0 -33.334,15.047 -33.334,33.333l0,200c0,18.286 15.048,33.333 33.334,33.333l200,0c18.286,0 33.333,-15.047 33.333,-33.333l0,-200c0,-18.286 -15.047,-33.333 -33.333,-33.333Zm-33.334,200l-133.333,0l0,-133.334l133.333,0l0,133.334Z" style="fill:#fff;fill-rule:nonzero;"></path><path d="M833.333,766.667l-200,0c-18.286,0 -33.333,15.047 -33.333,33.333l0,200c0,18.286 15.047,33.333 33.333,33.333l200,0c18.286,0 33.334,-15.047 33.334,-33.333l0,-200c0,-18.286 -15.048,-33.333 -33.334,-33.333Zm-33.333,200l-133.333,0l0,-133.334l133.333,0l0,133.334Z" style="fill:#fff;fill-rule:nonzero;"></path><path d="M1500,766.667l-200,0c-18.286,0 -33.333,15.047 -33.333,33.333l0,200c0,18.286 15.047,33.333 33.333,33.333l200,0c18.286,0 33.333,-15.047 33.333,-33.333l0,-200c0,-18.286 -15.047,-33.333 -33.333,-33.333Zm-33.333,200l-133.334,0l0,-133.334l133.334,0l0,133.334Z" style="fill:#fff;fill-rule:nonzero;"></path><path d="M1166.67,466.667l-200,0c-18.286,0 -33.334,15.047 -33.334,33.333l0,200c0,18.286 15.048,33.333 33.334,33.333l200,0c18.286,0 33.333,-15.047 33.333,-33.333l0,-200c0,-18.286 -15.047,-33.333 -33.333,-33.333Zm-33.334,200l-133.333,0l0,-133.334l133.333,0l0,133.334Z" style="fill:#fff;fill-rule:nonzero;"></path><path d="M833.333,466.667l-200,0c-18.286,0 -33.333,15.047 -33.333,33.333l0,200c0,18.286 15.047,33.333 33.333,33.333l200,0c18.286,0 33.334,-15.047 33.334,-33.333l0,-200c0,-18.286 -15.048,-33.333 -33.334,-33.333Zm-33.333,200l-133.333,0l0,-133.334l133.333,0l0,133.334Z" style="fill:#fff;fill-rule:nonzero;"></path><path d="M1500,466.667l-200,0c-18.286,0 -33.333,15.047 -33.333,33.333l0,200c0,18.286 15.047,33.333 33.333,33.333l200,0c18.286,0 33.333,-15.047 33.333,-33.333l0,-200c0,-18.286 -15.047,-33.333 -33.333,-33.333Zm-33.333,200l-133.334,0l0,-133.334l133.334,0l0,133.334Z" style="fill:#fff;fill-rule:nonzero;"></path></g></svg>