<svg xmlns="http://www.w3.org/2000/svg" xmlns:xlink="http://www.w3.org/1999/xlink" xmlns:serif="http://www.serif.com/" width="100%" height="100%" viewBox="0 0 2067 2067" xml:space="preserve" style="fill-rule:evenodd;clip-rule:evenodd;stroke-linejoin:round;stroke-miterlimit:2;"><path d="M2066.67,866.667l-74.903,0l-111.637,58.74c-12.565,-6.934 -25.635,-12.809 -39.73,-16.341l-140.43,-35.14l0,-15.967c62.126,-43.359 100.033,-114.99 100.033,-191.292l0,-58.269c0,-129.492 -101.465,-237.858 -226.172,-241.634c-6.331,-0.162 -12.565,0.065 -18.831,0.375l36.409,-85.238l-176.513,-176.465l-104.053,67.725c-39.535,-22.266 -81.348,-39.6 -124.772,-51.758l-25.7,-121.403l-254.037,0l-25.699,121.436c-43.425,12.158 -85.271,29.492 -124.773,51.757l-104.052,-67.724l-176.368,176.367l35.791,85.303c-1.367,-0.065 -2.669,-0.31 -4.036,-0.342c-63.835,-1.856 -123.958,21.435 -169.629,65.771c-45.736,44.304 -70.898,103.76 -70.898,167.432l0,66.667c0,76.302 37.874,147.9 100,191.259l0,16l-91.602,22.9l-166.032,-96.826l-109.033,0l0,690.706l327.93,109.294l63.867,0l7.975,-27.93l100.521,60.336c1.644,54.655 45.475,98.632 100.081,100.553c1.921,54.378 45.622,98.079 100,100c1.921,54.378 45.622,98.079 100,100c1.986,55.648 47.559,100.374 103.662,100.374c20.834,0 41.26,-6.494 58.431,-18.066l29.525,26.074c18.506,16.292 42.334,25.326 67.074,25.326l6.168,0c55.469,0 100.603,-44.841 101.302,-100.131c54.867,-0.699 99.301,-45.133 100,-100c54.9,-0.699 99.366,-45.198 100,-100.097c55.404,-1.302 100.131,-46.566 100.131,-102.279c0,-3.353 -0.163,-6.657 -0.505,-9.993l600.505,-300.228l0,-487.272Zm-333.334,-258.269l0,58.269c0,59.163 -31.966,114.437 -83.431,144.238l-16.666,9.635l0.13,105.485l166.536,41.602l-366.569,192.936l0,-89.795c0,-44.808 -18.099,-85.84 -47.737,-116.162l114.404,-28.581l0,-105.566l-16.634,-9.619c-51.432,-29.736 -83.366,-85.01 -83.366,-144.173l0,-66.667c0,-45.459 17.969,-87.972 50.635,-119.629c32.633,-31.641 75.928,-48.698 121.191,-46.94c89.046,2.669 161.507,81.169 161.507,174.967Zm-649.739,525.961l-150.895,-48.226c-68.767,-22.038 -143.197,-25.326 -213.591,-9.733l-19.108,4.232l0,-9.864c0,-45.963 31.169,-85.872 75.732,-97.038l190.935,-47.705l0,-105.566l-16.634,-9.619c-51.433,-29.736 -83.366,-85.01 -83.366,-144.173l0,-66.667c0,-45.459 17.968,-87.972 50.634,-119.629c32.634,-31.641 76.205,-48.698 121.192,-46.94c89.046,2.669 161.507,81.169 161.507,174.967l0,58.269c0,59.163 -31.966,114.437 -83.431,144.238l-16.667,9.635l0.131,105.485l190.901,47.705c44.564,11.166 75.733,51.075 75.733,97.038l0,124.903l-8.236,4.329l-20.426,0l-204.932,-58.561c-16.146,-4.574 -32.78,-6.446 -49.479,-7.08Zm-376.123,-635.466c62.597,-121.289 188.59,-198.893 325.862,-198.893c135.97,0 261.426,76.562 324.496,196.208c-15.869,31.819 -24.496,67.057 -24.496,103.792l0,66.667c0,76.302 37.875,147.9 100,191.259l0,16l-133.333,33.382l-133.366,-33.382l0,-15.967c62.126,-43.359 100.033,-114.99 100.033,-191.292l0,-58.269c0,-129.492 -101.465,-237.858 -226.172,-241.634c-63.802,-1.871 -123.959,21.436 -169.629,65.772c-45.703,44.336 -70.866,103.792 -70.866,167.464l0,66.667c0,76.302 37.874,147.9 100,191.259l0,16l-133.333,33.382l-133.366,-33.382l0,-15.967c62.125,-43.359 100.032,-114.99 100.032,-191.292l0,-58.269c0,-39.225 -9.44,-76.464 -25.862,-109.505Zm-153.304,-201.595l106.494,-106.494l93.734,61.003l17.936,-11.003c44.938,-27.539 93.506,-47.705 144.336,-59.863l20.507,-4.916l23.194,-109.358l145.963,0l23.129,109.326l20.507,4.899c50.831,12.174 99.398,32.34 144.336,59.879l17.937,11.003l93.733,-61.003l106.364,106.397l-37.809,88.525c-25.732,11.068 -49.593,26.644 -70.361,46.778c-1.368,1.334 -2.539,2.767 -3.874,4.134c-78.532,-124.837 -217.367,-203.272 -366.96,-203.272c-150.667,0 -289.892,79.167 -368.229,205.274c-20.963,-21.94 -45.898,-39.714 -73.535,-52.132l-37.402,-89.177Zm-120.834,628.727l0,-105.566l-16.634,-9.619c-51.432,-29.736 -83.366,-85.01 -83.366,-144.173l0,-66.667c0,-45.459 17.969,-87.972 50.635,-119.629c32.634,-31.641 76.025,-48.698 121.192,-46.94c89.046,2.669 161.507,81.169 161.507,174.967l0,58.269c0,59.163 -31.966,114.437 -83.431,144.238l-16.667,9.635l0.13,105.485l114.372,28.581c-29.639,30.322 -47.738,71.354 -47.738,116.162l0,24.691l-103.971,23.112l2.702,-9.44l1.269,-61.605l-175.797,-102.555l75.797,-18.946Zm-366.666,-59.358l24.3,0l239.73,139.827l-120.964,483.838l-143.066,-47.705l0,-575.96Zm272.07,666.666l-65.609,-21.858l117.513,-470.004l76.026,44.336l0,9.522l-125.131,438.004l-2.799,0Zm227.93,95.964c0,-9.831 3.971,-19.466 10.937,-26.432l58.594,-58.594c6.966,-6.966 16.601,-10.938 26.432,-10.938c20.606,0 37.37,16.765 37.37,37.37c0,9.831 -3.971,19.466 -10.937,26.432l-58.594,58.594c-6.966,6.966 -16.602,10.938 -26.433,10.938c-20.605,0 -37.369,-16.765 -37.369,-37.37Zm100,100c0,-9.831 3.971,-19.466 10.937,-26.432l58.594,-58.594c6.966,-6.966 16.601,-10.938 26.432,-10.938c20.606,0 37.37,16.765 37.37,37.37c0,9.831 -3.971,19.466 -10.937,26.432l-58.594,58.594c-6.966,6.966 -16.602,10.938 -26.433,10.938c-20.605,0 -37.369,-16.765 -37.369,-37.37Zm100,100c0,-9.831 3.971,-19.466 10.937,-26.432l58.594,-58.594c6.966,-6.966 16.601,-10.938 26.432,-10.938c20.606,0 37.37,16.765 37.37,37.37c0,9.831 -3.971,19.466 -10.937,26.432l-58.594,58.594c-6.966,6.966 -16.602,10.938 -26.433,10.938c-20.605,0 -37.369,-16.765 -37.369,-37.37Zm137.369,137.37c-20.605,0 -37.369,-16.765 -37.369,-37.37c0,-9.831 3.971,-19.466 10.937,-26.432l58.594,-58.594c6.966,-6.966 16.601,-10.938 26.432,-10.938c20.606,0 37.37,16.765 37.37,37.37c0,9.831 -3.971,19.466 -10.937,26.432l-58.594,58.594c-6.966,6.966 -16.602,10.938 -26.433,10.938Zm161.198,33.333l-6.168,0c-8.496,0 -16.634,-3.092 -22.966,-8.708l-24.935,-21.989l25.033,-25.032c8.935,-8.936 15.869,-19.564 20.996,-30.973l30.306,25.227c7.926,6.608 12.5,16.342 12.5,26.709c0,19.174 -15.592,34.766 -34.766,34.766Zm298.926,-300l-5.762,0c-8.365,0 -16.536,-2.962 -22.933,-8.333l-180.761,-150.635l-42.709,51.237l175.538,146.256c7.893,6.608 12.467,16.342 12.467,26.709c0,19.174 -15.592,34.766 -34.766,34.766l-7.275,0c-8.089,0 -15.999,-2.865 -22.233,-8.073l-181.055,-150.863l-42.708,51.237l175.537,146.273c7.926,6.559 12.5,16.293 12.5,26.66c0,19.174 -15.592,34.766 -34.766,34.766c-12.793,0 -25.26,-4.541 -35.074,-12.695l-74.398,-62.012c-16.39,-33.496 -50.065,-56.852 -89.502,-58.252c-1.921,-54.378 -45.622,-98.079 -100,-100c-1.921,-54.378 -45.622,-98.079 -100,-100c-1.953,-55.648 -47.526,-100.374 -103.63,-100.374c-27.392,0 -54.199,11.1 -73.567,30.468l-58.594,58.594c-3.5,3.5 -6.397,7.471 -9.343,11.41l-102.392,-61.442l89.762,-314.161l225.033,-50.032c59.033,-13.2 121.272,-10.335 178.841,8.089l49.105,15.706l-166.472,83.236c-38.037,19.059 -61.67,57.324 -61.67,99.87l0,6.592c0,61.572 50.098,111.67 111.67,111.67c20.231,0 40.137,-5.502 57.438,-15.935l124.122,-74.43c24.934,-14.941 58.398,-11.67 79.931,7.699l281.641,253.466c7.536,6.836 11.865,16.537 11.865,26.693c0,19.776 -16.064,35.84 -35.84,35.84Zm635.84,-387.272l-561.572,280.81c-1.823,-1.936 -3.727,-3.776 -5.729,-5.566l-281.592,-253.467c-24.675,-22.265 -56.576,-34.505 -89.811,-34.505c-24.301,0 -48.161,6.608 -69.06,19.141l-124.17,74.463c-6.966,4.199 -14.925,6.396 -23.063,6.396c-24.837,0 -45.003,-20.166 -45.003,-45.003l0,-6.592c0,-17.171 9.538,-32.568 24.87,-40.234l185.937,-92.969c31.82,-15.934 69.597,-19.499 103.89,-9.636l209.473,59.831l50.732,1.27l625.098,-329.004l0,375.065Z" style="fill:#fff;fill-rule:nonzero;"></path></svg>