<svg xmlns="http://www.w3.org/2000/svg" xmlns:xlink="http://www.w3.org/1999/xlink" xmlns:serif="http://www.serif.com/" width="100%" height="100%" viewBox="0 0 2134 2134" xml:space="preserve" style="fill-rule:evenodd;clip-rule:evenodd;stroke-linejoin:round;stroke-miterlimit:2;">
    <g transform="matrix(4.16667,0,0,4.16667,0,0)">
        <g transform="matrix(0.421875,0,0,0.421875,165.477,148)">
            <path d="M210.352,246.633C244.234,246.633 273.57,234.48 297.547,210.504C321.516,186.531 333.672,157.199 333.672,123.313C333.672,89.438 321.52,60.102 297.543,36.121C273.566,12.152 244.23,0 210.352,0C176.465,0 147.133,12.152 123.16,36.125C99.187,60.098 87.031,89.434 87.031,123.313C87.031,157.199 99.187,186.535 123.16,210.508C147.141,234.477 176.477,246.633 210.352,246.633ZM144.379,57.34C162.773,38.945 184.352,30.004 210.352,30.004C236.348,30.004 257.93,38.945 276.328,57.34C294.723,75.738 303.668,97.32 303.668,123.313C303.668,149.313 294.723,170.891 276.328,189.289C257.93,207.688 236.348,216.629 210.352,216.629C184.359,216.629 162.781,207.684 144.379,189.289C125.98,170.895 117.035,149.313 117.035,123.313C117.035,97.32 125.98,75.738 144.379,57.34Z" style="fill:white;fill-rule:nonzero;"></path>
        </g>
        <g transform="matrix(0.421875,0,0,0.421875,165.477,148)">
            <path d="M426.129,393.703C425.438,383.727 424.039,372.844 421.98,361.352C419.902,349.773 417.227,338.828 414.023,328.824C410.711,318.484 406.215,308.273 400.648,298.488C394.879,288.332 388.098,279.488 380.488,272.211C372.531,264.598 362.789,258.477 351.523,254.012C340.297,249.57 327.855,247.32 314.547,247.32C309.32,247.32 304.266,249.465 294.504,255.82C288.496,259.738 281.469,264.27 273.625,269.281C266.918,273.555 257.832,277.559 246.609,281.184C235.66,284.727 224.543,286.523 213.566,286.523C202.598,286.523 191.48,284.727 180.523,281.184C169.313,277.562 160.223,273.559 153.527,269.285C145.758,264.32 138.727,259.789 132.629,255.816C122.875,249.461 117.82,247.316 112.594,247.316C99.281,247.316 86.844,249.57 75.621,254.016C64.363,258.473 54.617,264.594 46.652,272.215C39.043,279.496 32.262,288.336 26.496,298.488C20.938,308.273 16.438,318.48 13.125,328.828C9.926,338.832 7.25,349.773 5.172,361.352C3.109,372.828 1.715,383.715 1.023,393.715C0.344,403.492 0,413.668 0,423.949C0,450.676 8.496,472.313 25.25,488.27C41.797,504.016 63.688,512 90.316,512L336.848,512C363.469,512 385.359,504.016 401.91,488.27C418.668,472.324 427.164,450.68 427.164,423.945C427.16,413.629 426.813,403.453 426.129,393.703ZM381.223,466.531C370.289,476.938 355.773,481.996 336.844,481.996L90.316,481.996C71.383,481.996 56.867,476.937 45.938,466.535C35.215,456.328 30.004,442.395 30.004,423.949C30.004,414.355 30.32,404.883 30.953,395.789C31.57,386.867 32.832,377.066 34.703,366.652C36.551,356.367 38.902,346.715 41.699,337.977C44.383,329.598 48.043,321.301 52.582,313.309C56.914,305.691 61.898,299.156 67.398,293.891C72.543,288.965 79.027,284.934 86.668,281.91C93.734,279.113 101.676,277.582 110.297,277.352C111.348,277.91 113.219,278.977 116.25,280.953C122.418,284.973 129.527,289.559 137.387,294.578C146.246,300.227 157.66,305.328 171.297,309.73C185.238,314.238 199.457,316.527 213.57,316.527C227.684,316.527 241.906,314.238 255.84,309.734C269.488,305.324 280.898,300.227 289.77,294.57C297.813,289.43 304.723,284.977 310.891,280.953C313.922,278.98 315.793,277.91 316.844,277.352C325.469,277.582 333.41,279.113 340.48,281.91C348.117,284.934 354.602,288.969 359.746,293.891C365.246,299.152 370.23,305.688 374.563,313.313C379.105,321.301 382.77,329.602 385.449,337.973C388.25,346.723 390.605,356.371 392.449,366.648C394.316,377.082 395.582,386.887 396.199,395.793L396.199,395.801C396.836,404.859 397.156,414.328 397.16,423.949C397.156,442.398 391.945,456.328 381.223,466.531Z" style="fill:white;fill-rule:nonzero;"></path>
        </g>
    </g>
</svg>