<svg xmlns="http://www.w3.org/2000/svg" xmlns:xlink="http://www.w3.org/1999/xlink" xmlns:serif="http://www.serif.com/" width="100%" height="100%" viewBox="0 0 285 169" xml:space="preserve" style="fill-rule:evenodd;clip-rule:evenodd;stroke-linejoin:round;stroke-miterlimit:2;"><path d="M49.256,118.897c0.569,0.147 1.141,0.216 1.719,0.216c4.153,0 8.388,-3.716 10.931,-9.819c1.169,-2.797 2.678,-10.122 0.875,-14.378c-0.625,-1.478 -1.594,-2.482 -2.875,-2.982c-0.862,-0.337 -2.259,-0.553 -3.944,0.388c-3.971,2.212 -7.296,9.887 -7.784,12.537c-0.103,0.575 -0.312,1.347 -0.547,2.225c-0.906,3.422 -2.034,7.679 -0.597,10.132c0.497,0.856 1.266,1.434 2.222,1.681Zm1.397,-11.006c0.259,-0.972 0.481,-1.829 0.6,-2.463c0.419,-2.29 3.444,-8.819 6.228,-10.372c0.385,-0.212 0.675,-0.281 0.897,-0.281c0.166,0 0.291,0.037 0.391,0.075c0.472,0.184 0.843,0.606 1.131,1.291c1.341,3.159 0.122,9.556 -0.878,11.953c-2.497,5.975 -6.385,8.447 -8.988,7.775c-0.153,-0.041 -0.228,-0.097 -0.309,-0.228c-0.775,-1.332 0.334,-5.507 0.928,-7.75Zm233.722,50.078l0,-14.219l-9.375,0l0,-8.884l-52.981,-134.866l-169.478,0l-52.541,134.866l0,15.134l9.375,0l0,1.725l-9.375,0.012l0,17.013l275,0l0,-10.769l9.375,-0.012Zm-32.094,-26.719c-2.537,-9.375 -5.15,-16.334 -7.903,-21.95c-2.162,-4.406 -4.397,-8.791 -6.812,-16.716c-3.016,-9.897 -2.272,-21.35 -1.613,-31.534c0.122,-1.916 0.244,-4.103 0.338,-5.941l29.403,76.141l-13.413,0Zm-19.006,-84.081c0.119,4 -0.134,8.765 -0.441,13.518c-0.675,10.45 -1.44,22.416 1.741,32.857c2.487,8.165 4.778,12.553 6.994,17.072c2.609,5.318 5.084,11.259 7.493,20.634l-14.118,0c-0.969,-3.125 -3.547,-10.122 -5.91,-15.656c-9.997,-23.407 -9.915,-40.935 -9.847,-55.163c0.019,-3.972 0.038,-8.131 -0.156,-11.734c-1.156,-21.869 -5.306,-36.197 -7.612,-42.447l6.309,0l15.547,40.919Zm-51.866,-40.919l8.575,0c-1.275,3.125 -1.875,3.831 -2.334,6.334c-0.262,1.241 -4.866,23.978 1.284,47.344c3.7,14.05 5.685,16.109 7.429,16.109c0.143,0 0.284,0.047 0.425,0.029c1.456,-0.21 3.656,-0.994 3.121,-18.475c-0.015,-0.488 -2.096,-45.091 -7.772,-51.341l6.15,0c9.779,18.75 8.138,34.744 6.363,50.669c-0.484,4.347 -0.984,9.084 -1.238,13.659c-0.556,10.119 4.469,28.969 9.079,43.706c-3.597,-6.481 -7.825,-12.656 -12.007,-18.787c-7.668,-11.244 -14.912,-21.828 -17.012,-32.538c-2.891,-14.743 -2.4,-27.512 -1.966,-38.362c0.263,-6.581 0.469,-12.097 -0.097,-18.347Zm9.85,4.978c2.225,6.584 5.057,31.6 5.525,46.978c0.263,8.585 -0.196,12.353 -0.565,13.956c-0.766,-1.403 -2.15,-4.762 -4.263,-12.784c-5.997,-22.784 -1.293,-45.447 -1.243,-45.672l0.009,-0.044c0.194,-1.068 0.375,-1.856 0.537,-2.434Zm30.41,120.022c-3.535,-9.375 -15.956,-45.688 -15.138,-60.603c0.247,-4.488 0.744,-9.253 1.225,-13.556c1.707,-15.325 3.463,-28.966 -5.953,-50.841l6.26,0c2.059,6.25 6.643,19.922 7.85,42.697c0.187,3.512 0.168,7.465 0.15,11.397c-0.066,14.515 -0.154,32.353 10.096,56.35c3.416,8 4.916,11.431 5.579,14.556l-10.069,0Zm-43.419,-125c0.588,6.25 0.4,11.641 0.134,18.237c-0.44,11.019 -0.94,23.754 2.022,38.857c2.222,11.337 9.641,21.987 17.497,33.503c7.491,10.978 15.181,21.903 18.772,34.403l-19.691,0c-4.04,-18.75 -13.118,-33.981 -17.725,-40.856l-10.768,-84.144l9.759,0Zm-0.125,156.25l-81.25,0l0,-4.519l9.375,-0.012l0,-14.219l-9.375,0l0,-6.25l81.25,0l0,12.5l9.375,0l0,1.725l-9.375,0.013l0,10.762Zm-135.341,-43.972l-0.15,-1.294c-0.459,-4.422 -1.415,-13.543 -0.168,-16.597l0.875,-2.115c3.059,-7.569 3.981,-9.835 10.203,-14.988c5.022,-4.14 8.981,-14.647 12.165,-23.097c1.135,-3.012 2.16,-5.728 3.066,-7.731c0.044,3.647 -0.422,9.744 -0.681,13.153c-0.181,2.328 -0.328,4.322 -0.366,5.494c-0.062,1.991 0.566,4.091 1.291,6.519c1.419,4.75 3.187,10.656 0.925,19.109l-0.269,0.988c-3.262,12.097 -6.078,22.209 -11.066,24.718c-3.256,1.66 -7.571,5.438 -10.068,8.563l-6.369,0c1.091,-3.125 1.078,-8.028 0.612,-12.722Zm17.235,6.95c6.228,-3.137 9.072,-13.509 12.675,-26.859l0.269,-0.913c2.49,-9.309 0.503,-15.915 -0.947,-20.772c-0.65,-2.168 -1.213,-4.022 -1.163,-5.506c0.035,-1.144 0.185,-3.072 0.356,-5.344c1.132,-14.875 0.935,-18.015 -1.175,-18.687c-1.068,-0.325 -2.043,0.222 -2.909,1.669c-1.281,2.14 -2.7,5.909 -4.344,10.275c-3.053,8.103 -6.847,18.187 -11.234,21.803c-6.831,5.662 -7.994,8.543 -11.109,16.247l-0.869,2.146c-1.425,3.488 -0.772,11.216 -0.047,18.185l0.147,1.115c0.469,4.675 0.472,9.288 -0.706,12.413l-7.638,0c0.931,-3.125 1.772,-11.647 -0.256,-18.122c-2.738,-8.731 1.678,-23.15 9.262,-30.437c6.785,-6.516 14.075,-22.9 19.397,-34.922c1.025,-2.316 1.966,-4.872 2.797,-6.682c5.231,-11.4 8.016,-19.212 10.666,-34.837l12.347,0c-1.097,6.25 -4.316,26.744 -5.897,31.531c-1.972,5.966 -5.828,34.253 0.062,45.016c5.25,9.594 -0.49,32.306 -8.344,40.606l-7.621,7.847l-11.529,0c1.672,-3.125 4.188,-3.931 7.81,-5.772Zm13.609,0.197c8.672,-9.172 14.697,-33.55 8.813,-44.306c-5.035,-9.203 -1.957,-36.266 0.165,-42.688c1.716,-5.194 5.075,-26.181 6.097,-32.431l12.728,0c-0.675,6.25 -2.734,22.116 -6.19,30.4c-7.132,17.097 -4.666,31.044 -2.278,44.297c0.765,4.262 1.5,8.203 1.921,12.384l-4.89,37.919l-21.953,0l5.587,-5.575Zm22.75,5.575l8.856,-68.731c3.732,5.487 8.716,15.84 6.397,29.022c-0.712,4.04 -2.409,7.843 -4.203,12.134c-3.137,7.5 -6.615,15.075 -6.894,27.575l-4.156,0Zm34.769,-44.628c-1.297,-10.828 -4.434,-15.663 -7.753,-20.96c-2.381,-3.793 -4.841,-8.112 -6.994,-14.64c-3.947,-11.972 0.134,-35.397 1.691,-44.772l4.468,0c-1.571,9.375 -5.215,31.537 4.791,40.844c0.388,0.359 0.897,1.043 1.503,1.575c7.047,6.172 28.491,24.728 17.125,52.409c-4.675,11.388 -6.206,23.922 -6.709,30.172l-14.7,0c2.909,-9.375 8.222,-30.941 6.578,-44.628Zm5.869,-55.86c0.112,0.016 0.222,0.26 0.328,0.26c1.181,0 2.087,-1.263 2.403,-1.578c3.341,-3.344 8.834,-16.944 9.681,-23.194l4.569,0c-0.5,3.125 -1.063,11.175 0.222,20.966c0.547,4.156 2.04,8.821 3.769,13.953c4.443,13.165 9.968,29.337 2.781,51.822c-6.813,21.306 -7.172,32.009 -6.7,38.259l-11.653,0c0.522,-6.25 2.043,-18.125 6.456,-28.872c12.209,-29.744 -10.497,-49.456 -17.963,-55.991c-0.578,-0.506 -1.062,-1.328 -1.431,-1.668c-8.994,-8.366 -5.087,-32.219 -3.722,-38.469l5.132,0c2.021,25 4.99,24.35 6.128,24.512Zm-2.997,-24.512l12.29,0c-0.865,6.25 -6.306,18.394 -8.765,20.666c-1.275,-2.385 -2.713,-11.291 -3.525,-20.666Zm43.684,125l-20.481,0c-0.453,-3.125 -0.325,-15.775 6.522,-37.188c7.497,-23.465 1.55,-40.94 -2.797,-53.825c-1.678,-4.971 -3.125,-9.659 -3.631,-13.515c-1.291,-9.835 -0.625,-17.347 -0.15,-20.472l4.55,0l15.987,125Zm6.775,0l-4.262,-33.244c4.578,7.76 10.49,20.744 13.565,33.244l-9.303,0Zm-69.575,-125c-1.694,9.375 -5.603,33.303 -1.472,45.831c2.272,6.894 4.95,11.406 7.313,15.172c3.269,5.209 6.087,9.488 7.303,19.625c1.603,13.369 -3.975,35 -6.744,44.375l-17.644,0c0.285,-9.375 3.632,-19.069 6.65,-26.284c1.866,-4.457 3.622,-8.5 4.394,-12.882c2.994,-17.003 -4.981,-29.537 -8.89,-34.309l6.556,-51.528l2.534,0Zm-18.559,75.637c-0.103,-0.578 -0.206,-0.918 -0.31,-1.496c-2.306,-12.813 -4.69,-26.413 2.091,-42.663c3.731,-8.944 5.822,-25.228 6.456,-31.478l1.4,0l-9.637,75.637Zm-39.513,-75.637l13.194,0c-2.559,15.625 -5.175,22.319 -10.341,33.569c-0.837,1.822 -1.781,4.197 -2.812,6.525c-4.922,11.122 -12.366,28.05 -18.706,34.14c-8.463,8.132 -13.172,23.644 -10.082,33.516c1.907,6.081 0.935,14.125 0.035,17.25l-19.256,0l47.968,-125Zm-41.206,151.719l0,-14.219l-9.375,0l0,-6.25l84.375,0l0,12.5l9.375,0l0,1.725l-9.375,0.012l0,10.763l-84.375,0l0,-4.519l9.375,-0.012Zm168.75,4.531l0,-4.519l9.375,-0.012l0,-14.219l-9.375,0l0,-6.25l84.375,0l0,12.5l9.375,0l0,1.725l-9.375,0.012l0,10.763l-84.375,0Z" style="fill:#fff;fill-rule:nonzero;"></path></svg>