<svg xmlns="http://www.w3.org/2000/svg" xmlns:xlink="http://www.w3.org/1999/xlink" xmlns:serif="http://www.serif.com/" width="100%" height="100%" viewBox="0 0 188 160" xml:space="preserve" style="fill-rule:evenodd;clip-rule:evenodd;stroke-linejoin:round;stroke-miterlimit:2;"><path d="M47.356,73.491c-0.625,-1.25 0.797,-4.341 2.025,-5.997l-2.506,-1.869l-2.5,-1.875c-0.547,0.728 -5.247,7.253 -2.609,12.531c1.65,3.297 5.468,4.969 11.359,4.969l0,-6.25c-3.694,0 -5.403,-0.781 -5.769,-1.509Z" style="fill:#fff;fill-rule:nonzero;"></path><rect x="93.75" y="90.625" width="6.25" height="6.25" style="fill:#fff;"></rect><rect x="103.125" y="100" width="6.25" height="6.25" style="fill:#fff;"></rect><path d="M134.375,71.875c0,1.714 1.411,3.125 3.125,3.125c5.143,0 9.375,4.232 9.375,9.375c0,1.714 1.411,3.125 3.125,3.125c1.714,0 3.125,-1.411 3.125,-3.125c0,-5.143 4.232,-9.375 9.375,-9.375c1.714,0 3.125,-1.411 3.125,-3.125c0,-1.714 -1.411,-3.125 -3.125,-3.125c-5.143,0 -9.375,-4.232 -9.375,-9.375c0,-1.714 -1.411,-3.125 -3.125,-3.125c-1.714,0 -3.125,1.411 -3.125,3.125c0,5.143 -4.232,9.375 -9.375,9.375c-1.714,0 -3.125,1.411 -3.125,3.125Zm15.625,-3.222c0.91,1.226 1.996,2.312 3.222,3.222c-1.226,0.91 -2.312,1.996 -3.222,3.222c-0.91,-1.226 -1.996,-2.312 -3.222,-3.222c1.226,-0.91 2.312,-1.996 3.222,-3.222Z" style="fill:#fff;fill-rule:nonzero;"></path><path d="M134.375,46.875c-5.143,0 -9.375,-4.232 -9.375,-9.375c0,-1.714 -1.411,-3.125 -3.125,-3.125c-1.714,0 -3.125,1.411 -3.125,3.125c0,5.143 -4.232,9.375 -9.375,9.375c-1.714,0 -3.125,1.411 -3.125,3.125c0,1.714 1.411,3.125 3.125,3.125c5.143,0 9.375,4.232 9.375,9.375c0,1.714 1.411,3.125 3.125,3.125c1.714,0 3.125,-1.411 3.125,-3.125c0,-5.143 4.232,-9.375 9.375,-9.375c1.714,0 3.125,-1.411 3.125,-3.125c0,-1.714 -1.411,-3.125 -3.125,-3.125Zm-12.5,6.347c-0.91,-1.226 -1.996,-2.312 -3.222,-3.222c1.226,-0.91 2.312,-1.996 3.222,-3.222c0.91,1.226 1.996,2.312 3.222,3.222c-1.226,0.91 -2.312,1.996 -3.222,3.222Z" style="fill:#fff;fill-rule:nonzero;"></path><path d="M184.375,115.625l-26.737,0c1.124,-1.892 1.724,-4.049 1.737,-6.25c0,-6.857 -5.643,-12.5 -12.5,-12.5l-14.459,0l-44.916,-38.928l0,-54.822c0,-1.714 -1.411,-3.125 -3.125,-3.125l-40.625,0c-1.714,0 -3.125,1.411 -3.125,3.125l0,50.494c-7.128,2.262 -12.5,11.772 -12.5,18.256c0.015,11.994 9.881,21.86 21.875,21.875c2.644,0.05 17.4,6.287 29.666,12.081c5.019,3.543 10.225,6.812 15.597,9.794l-92.138,0c-1.714,0 -3.125,1.411 -3.125,3.125l0,37.5c0,1.714 1.411,3.125 3.125,3.125l181.25,0c1.714,0 3.125,-1.411 3.125,-3.125l0,-37.5c0,-1.714 -1.411,-3.125 -3.125,-3.125Zm-101.306,-15.041c-0.153,-0.107 -0.314,-0.203 -0.481,-0.284c-6.338,-3.003 -27.444,-12.8 -32.588,-12.8c-8.568,-0.01 -15.615,-7.057 -15.625,-15.625c0,-4.822 5.119,-12.5 9.375,-12.5c1.714,0 3.125,-1.411 3.125,-3.125l0,-50l34.375,0l0,53.125c0,0.906 0.393,1.769 1.078,2.362l46.875,40.625c0.568,0.492 1.295,0.763 2.047,0.763l15.625,0c3.429,0 6.25,2.821 6.25,6.25c0,3.429 -2.821,6.25 -6.25,6.25l-34.375,0c-6.109,0 -21.294,-9.225 -29.431,-15.041Zm-76.819,52.541l0,-18.75l34.375,0l0,-6.25l-34.375,0l0,-6.25l175,0l0,6.25l-59.375,0l0,6.25l59.375,0l0,18.75l-175,0Z" style="fill:#fff;fill-rule:nonzero;"></path><rect x="109.375" y="128.125" width="6.25" height="6.25" style="fill:#fff;"></rect></svg>