<svg xmlns="http://www.w3.org/2000/svg" xmlns:xlink="http://www.w3.org/1999/xlink" xmlns:serif="http://www.serif.com/" width="100%" height="100%" viewBox="0 0 2000 2000" xml:space="preserve" style="fill-rule:evenodd;clip-rule:evenodd;stroke-linejoin:round;stroke-miterlimit:2;"><path d="M1266.67,1066.67l-366.667,0l0,-233.334c0,-55.224 -44.775,-100 -100,-100l-66.667,0c-53.515,-0.048 -97.591,42.041 -100,95.508l-29.996,120.785l-117.139,117.041l-86.198,0l0,-33.334c0,-18.408 -14.925,-33.333 -33.333,-33.333l-333.334,0c-18.408,0 -33.333,14.925 -33.333,33.333l0,933.334c0,18.408 14.925,33.333 33.333,33.333l333.334,0c18.408,0 33.333,-14.925 33.333,-33.333l0,-87.061l156.136,52.035c3.402,1.123 6.95,1.692 10.531,1.692l633.333,0c55.225,0 100,-44.775 100,-100l0,-66.666c-0.098,-17.22 -4.687,-34.131 -13.33,-49.04c28.988,-18.229 46.598,-50.049 46.663,-84.294l0,-66.666c-0.081,-24.675 -9.358,-48.438 -25.993,-66.667c16.635,-18.229 25.912,-41.992 25.993,-66.667l0,-66.666c-0.097,-17.22 -4.687,-34.131 -13.33,-49.04c28.988,-18.229 46.599,-50.049 46.664,-84.294l0,-66.666c0,-55.225 -44.776,-100 -100,-100Zm-933.334,866.666l-266.666,0l0,-866.666l266.666,0l0,866.666Zm900,-100c0,18.409 -14.925,33.334 -33.333,33.334l-627.93,0l-172.07,-57.373l0,-675.961l100,0c8.838,0 17.318,-3.515 23.568,-9.765l133.333,-133.334c4.264,-4.264 7.292,-9.619 8.773,-15.462l33.333,-133.333c0.651,-2.653 0.993,-5.371 0.993,-8.106c0,-18.408 14.925,-33.333 33.333,-33.333l66.667,0c18.408,0 33.333,14.925 33.333,33.333l0,233.334l-66.666,0l0,66.666l500,0c18.408,0 33.333,14.925 33.333,33.334l0,66.666c0,18.409 -14.925,33.334 -33.333,33.334l-166.667,0l0,66.666l133.333,0c18.409,0 33.334,14.925 33.334,33.334l0,66.666c0,18.409 -14.925,33.334 -33.334,33.334l-100,0l0,66.666l100,0c18.409,0 33.334,14.925 33.334,33.334l0,66.666c0,18.409 -14.925,33.334 -33.334,33.334l-100,0l0,66.666l66.667,0c18.408,0 33.333,14.925 33.333,33.334l0,66.666Z" style="fill:#fff;fill-rule:nonzero;"></path><rect x="1466.67" y="0" width="66.667" height="133.333" style="fill:#fff;fill-rule:nonzero;"></rect><path d="M1221.14,83.643l57.731,-33.334l66.683,115.462l-57.731,33.35l-66.683,-115.478Z" style="fill:#fff;fill-rule:nonzero;"></path><path d="M1050.34,278.841l33.333,-57.731l115.462,66.667l-33.333,57.747l-115.462,-66.683Z" style="fill:#fff;fill-rule:nonzero;"></path><rect x="1000" y="466.667" width="133.333" height="66.667" style="fill:#fff;fill-rule:nonzero;"></rect><path d="M1050.31,721.143l115.479,-66.667l33.333,57.731l-115.462,66.667l-33.35,-57.731Z" style="fill:#fff;fill-rule:nonzero;"></path><path d="M1800.86,712.223l33.333,-57.731l115.478,66.667l-33.349,57.731l-115.462,-66.667Z" style="fill:#fff;fill-rule:nonzero;"></path><rect x="1866.67" y="466.667" width="133.333" height="66.667" style="fill:#fff;fill-rule:nonzero;"></rect><path d="M1800.85,287.793l115.479,-66.65l33.333,57.731l-115.478,66.666l-33.334,-57.747Z" style="fill:#fff;fill-rule:nonzero;"></path><path d="M1654.49,165.804l66.667,-115.478l57.731,33.333l-66.65,115.478l-57.748,-33.333Z" style="fill:#fff;fill-rule:nonzero;"></path><path d="M1833.33,500c0.098,-166.504 -122.688,-307.552 -287.614,-330.387c-164.941,-22.836 -321.419,79.541 -366.569,239.811c-45.149,160.27 34.912,329.28 187.517,395.882l0,61.361l-33.334,0l0,66.666l33.334,0l0,33.334c0,55.224 44.775,100 100,100l66.666,0c55.225,0 100,-44.776 100,-100l0,-33.334l33.334,0l0,-66.666l-33.334,0l0,-61.394c121.403,-52.994 199.903,-172.819 200,-305.273Zm-600,0c-0.472,-134.229 98.894,-247.868 231.966,-265.332c133.09,-17.464 258.399,66.699 292.579,196.501c34.179,129.801 -33.448,264.762 -157.878,315.104l0,-179.606l33.333,0l0,-66.667l-66.666,0c-18.409,0 -33.334,14.925 -33.334,33.333l0,231.071c-22.135,2.702 -44.531,2.702 -66.666,0l0,-231.071c0,-18.408 -14.925,-33.333 -33.334,-33.333l-66.666,0l0,66.667l33.333,0l0,179.671c-100.553,-40.495 -166.471,-137.94 -166.667,-246.338Zm333.334,466.667c0,18.408 -14.925,33.333 -33.334,33.333l-66.666,0c-18.409,0 -33.334,-14.925 -33.334,-33.333l0,-33.334l133.334,0l0,33.334Zm-133.334,-100l0,-40.267c43.962,9.261 89.372,9.261 133.334,0l0,40.267l-133.334,0Z" style="fill:#fff;fill-rule:nonzero;"></path></svg>