<svg xmlns="http://www.w3.org/2000/svg" xmlns:xlink="http://www.w3.org/1999/xlink" xmlns:serif="http://www.serif.com/" width="100%" height="100%" viewBox="0 0 2134 2134" xml:space="preserve" style="fill-rule:evenodd;clip-rule:evenodd;stroke-linejoin:round;stroke-miterlimit:2;"><g><g><path d="M354.467,1895.55c-7.746,-7.754 -18.496,-12.208 -29.454,-12.208c-10.959,0 -21.709,4.454 -29.459,12.208c-7.75,7.754 -12.208,18.5 -12.208,29.458c0,10.958 4.454,21.708 12.208,29.454c7.75,7.75 18.5,12.213 29.459,12.213c10.958,0 21.708,-4.458 29.454,-12.213c7.75,-7.745 12.212,-18.495 12.212,-29.454c0,-10.958 -4.458,-21.708 -12.212,-29.458Z" style="fill:#fff;fill-rule:nonzero;"></path></g></g><g><g><path d="M1956.35,762.242c-7.75,-7.754 -18.458,-12.209 -29.458,-12.209c-10.959,0 -21.709,4.454 -29.459,12.209c-7.745,7.75 -12.208,18.5 -12.208,29.458c0,10.958 4.458,21.708 12.208,29.454c7.75,7.75 18.5,12.213 29.459,12.213c11,0 21.708,-4.459 29.458,-12.213c7.788,-7.746 12.246,-18.496 12.246,-29.454c0,-10.958 -4.459,-21.708 -12.246,-29.458Z" style="fill:#fff;fill-rule:nonzero;"></path></g></g><g><g><path d="M2121.1,12.204c-7.816,-7.812 -18.417,-12.204 -29.471,-12.204l-1024.97,0.054c-23.008,0 -41.662,18.659 -41.662,41.667l0,119.154l-394.954,105.829c-22.23,5.959 -35.421,28.804 -29.463,51.029l204.696,763.925l-177.079,177.08c-22.538,-32.909 -60.379,-54.55 -103.184,-54.55l-399.987,0c-68.925,0 -124.996,56.075 -124.996,124.995l0,679.15c0,68.925 56.071,125 124.996,125l399.992,0c58.554,0 107.812,-40.483 121.312,-94.916l49.542,43.204c38.246,33.35 87.246,51.717 137.991,51.717l1257.78,0c23.008,0 41.666,-18.659 41.666,-41.667l0,-2050c-0.008,-11.05 -4.391,-21.65 -12.204,-29.463Zm-1554.43,1996.13c0,22.971 -18.692,41.667 -41.667,41.667l-399.987,0c-22.975,0 -41.667,-18.692 -41.667,-41.667l0,-679.15c0,-22.975 18.692,-41.666 41.667,-41.666l158.329,0l0,479.979c0,23.008 18.658,41.667 41.667,41.667c23.008,0 41.666,-18.659 41.666,-41.667l0,-479.979l158.329,0c22.976,0 41.667,18.691 41.667,41.666l0,679.15l-0.004,0Zm125.179,-1671.92l333.142,-89.266l0,154.396l-27.925,7.483c-10.679,2.862 -19.775,9.842 -25.3,19.412c-5.525,9.571 -7.025,20.942 -4.163,31.617c16.013,59.754 -19.575,121.392 -79.329,137.404c-10.687,2.867 -19.8,9.859 -25.321,19.45c-5.521,9.588 -7.008,20.979 -4.121,31.663l162.413,601.408l-83.625,0l-43.096,-168.6c-1.371,-5.367 -3.771,-10.312 -6.983,-14.612l-195.692,-730.355Zm333.142,256.209l0,351.587l-75.996,-281.396c31.746,-16.391 57.725,-40.916 75.996,-70.191Zm598.6,1457.38l-789.742,0c-30.604,0 -60.158,-11.075 -83.225,-31.188l-100.621,-87.754l0,-576.279l181.909,-181.908l32.991,129.083c4.717,18.446 21.329,31.346 40.367,31.346l819.183,0.05c32.167,0 58.334,26.167 58.334,58.333c0,32.167 -26.167,58.334 -58.334,58.334l-419.75,0c-23.008,0 -41.666,18.658 -41.666,41.666c0,23.009 18.658,41.667 41.666,41.667l550.167,0c32.167,0 58.333,26.167 58.333,58.333c0,32.167 -26.166,58.334 -58.333,58.334l-550.167,0c-23.008,0 -41.666,18.658 -41.666,41.666c0,23.009 18.658,41.667 41.666,41.667l461.013,0c32.166,0 58.333,26.167 58.333,58.333c0,32.167 -26.167,58.334 -58.333,58.334l-461.013,0c-23.008,0 -41.666,18.658 -41.666,41.666c0,23.009 18.658,41.667 41.666,41.667l318.888,0c32.166,0 58.333,26.167 58.333,58.333c-0.004,32.15 -26.171,58.317 -58.333,58.317Zm426.379,0l-297.333,0c8.079,-17.804 12.616,-37.542 12.616,-58.333c0,-20.792 -4.537,-40.53 -12.616,-58.334l13.079,0c78.112,0 141.662,-63.55 141.662,-141.662c0,-22.784 -5.437,-44.313 -15.037,-63.404c59.983,-16.475 104.187,-71.455 104.187,-136.592c0,-31.6 -10.408,-60.813 -27.962,-84.396l0,-528.083c0,-23.009 -18.658,-41.667 -41.667,-41.667c-23.008,0 -41.666,18.658 -41.666,41.667l0,474.133c-9.792,-2.146 -19.946,-3.312 -30.371,-3.312l-1.367,0c8.079,-17.805 12.617,-37.542 12.617,-58.334c0,-78.116 -63.55,-141.662 -141.663,-141.662l-66.979,0c71.121,-30.5 121.071,-101.192 121.071,-183.354c0,-109.955 -89.45,-199.409 -199.404,-199.409c-109.95,0 -199.404,89.454 -199.404,199.409c0,82.162 49.954,152.854 121.07,183.354l-227.762,0l0,-792.259c74.433,-16.22 133.167,-74.95 149.383,-149.387l313.421,0c16.217,74.437 74.95,133.167 149.383,149.387l0,129.542c0,23.008 18.659,41.667 41.667,41.667c23.008,0 41.667,-18.659 41.667,-41.667l0,-166.742c0,-23.008 -18.659,-41.666 -41.667,-41.666c-61.862,0 -112.183,-50.329 -112.183,-112.188c0,-23.008 -18.659,-41.666 -41.667,-41.666l-387.817,0c-23.008,0 -41.666,18.658 -41.666,41.666c0,61.863 -50.325,112.188 -112.184,112.188c-23.008,0 -41.666,18.658 -41.666,41.666l0,829.455l-81.384,0l0,-1166.64l941.642,-0.046l0,1966.67Zm-470.825,-867.258c-64.004,0 -116.071,-52.071 -116.071,-116.071c0,-64 52.071,-116.075 116.071,-116.075c64,0 116.071,52.071 116.071,116.071c0,64 -52.067,116.075 -116.071,116.075Z" style="fill:#fff;fill-rule:nonzero;"></path></g></g></svg>