<svg xmlns="http://www.w3.org/2000/svg" xmlns:xlink="http://www.w3.org/1999/xlink" xmlns:serif="http://www.serif.com/" width="100%" height="100%" viewBox="0 0 1395 1424" xml:space="preserve" style="fill-rule:evenodd;clip-rule:evenodd;stroke-linejoin:round;stroke-miterlimit:2;"><path d="M1237.7,851.986l-6.7,3.612c-29.16,-35 -79.375,-48.509 -117.641,-29.106c-0.14,0.072 -0.281,0.144 -0.419,0.219l-16.493,8.903c-41.402,-34.812 -100.496,-40.053 -147.378,-13.072l-90.86,49.403l-120.937,0c-26.125,-0.035 -51.91,-5.942 -75.444,-17.284l-16.659,-8.056c-96.782,-47.09 -212.259,-35.812 -298.1,29.112c-0.41,0.313 -0.81,0.625 -1.194,0.975l-40.228,35.797c-14.967,13.297 -32.635,23.2 -51.788,29.028l-22.669,-74.34c-2.399,-7.868 -9.708,-13.281 -17.934,-13.282l-194.51,0c-10.286,0 -18.75,8.464 -18.75,18.75c0,0.76 0.046,1.518 0.138,2.272l64.844,531.635c1.141,9.363 9.18,16.481 18.612,16.481l291.766,0c0.001,0 0.002,0 0.003,0c10.286,0 18.75,-8.464 18.75,-18.75c0,-1.853 -0.275,-3.696 -0.815,-5.469l-38.204,-125.312l118.95,-75.175c15.823,-8.747 34.398,-11.149 51.925,-6.716c0.388,0.1 0.779,0.184 1.172,0.253l242.828,44.719c66.118,11.832 134.318,2.203 194.575,-27.472c0.795,-0.393 1.561,-0.844 2.291,-1.347l420,-288.378c8.132,-5.583 10.538,-16.678 5.45,-25.128c-31.731,-52.861 -100.367,-71.63 -154.581,-42.272Zm-107.188,7.859c21.563,-10.8 48.666,-2.162 66.25,14.228l-158.497,85.504l-8.687,4.581c-4.976,-13.882 -12.134,-26.882 -21.203,-38.51l122.137,-65.803Zm-163.303,-4.49l0.444,-0.25c28.465,-16.456 63.695,-16.345 92.056,0.29l-79.631,42.907c-14.968,-10.856 -31.962,-18.599 -49.975,-22.769l37.106,-20.178Zm-867.025,530.19l-60.262,-494.162l159.447,0l150.659,494.162l-249.844,0Zm846.528,-209.459c-52.74,25.657 -112.287,33.924 -170.022,23.606l-242.212,-44.603c-26.788,-6.603 -55.11,-2.762 -79.172,10.738c-0.291,0.162 -0.581,0.337 -0.866,0.515l-110.712,69.981l-78.931,-258.893c24.33,-7.427 46.769,-20.029 65.775,-36.938l39.631,-35.284c74.603,-56.065 174.702,-65.687 258.619,-24.86l16.656,8.057c28.627,13.797 59.993,20.983 91.772,21.025l161.537,0c48.176,0.064 89.998,34.407 99.432,81.65l-116.269,-5.26c-42.603,-1.912 -85.292,0.06 -127.538,5.894c-9.15,1.358 -15.997,9.296 -15.997,18.547c0,10.286 8.464,18.75 18.75,18.75c0.8,0 1.598,-0.051 2.391,-0.153c39.98,-5.524 80.381,-7.39 120.7,-5.575l137.788,6.25c0.284,0 0.565,0.019 0.846,0.019c10.286,0 18.75,-8.464 18.75,-18.75c0,-2.813 -0.106,-5.585 -0.271,-8.35l18.528,-9.772l199.612,-107.691c30.93,-16.749 69.521,-10.752 93.91,14.594l-402.707,276.503Z" style="fill:#fff;fill-rule:nonzero;"></path><path d="M156.544,1311.27c0,31.628 26.026,57.653 57.654,57.653c31.627,0 57.653,-26.025 57.653,-57.653c0,-31.627 -26.026,-57.653 -57.653,-57.653c-0.002,0 -0.003,0 -0.004,0c-31.613,0.036 -57.615,26.04 -57.65,57.653Zm57.638,-20.153l0.016,0c11.055,0 20.153,9.098 20.153,20.153c0,11.056 -9.098,20.153 -20.153,20.153c-11.056,0 -20.154,-9.097 -20.154,-20.153c0.014,-11.044 9.093,-20.131 20.138,-20.153Z" style="fill:#fff;fill-rule:nonzero;"></path><path d="M779.982,3.739c-96.835,72.61 -201.946,133.472 -313.125,181.309l-2.097,0.904c-6.864,2.957 -11.332,9.748 -11.331,17.221l0,185.097c0,118.913 56.875,223.382 164.444,302.125c49.466,36.121 104.338,64.188 162.578,83.157c3.38,0.986 6.97,1.004 10.359,0.05c59.957,-18.842 116.638,-46.85 168.028,-83.029c111.363,-78.731 170.228,-183.265 170.228,-302.303l0,-185.097c0.001,-7.473 -4.467,-14.264 -11.331,-17.221l-2.109,-0.907c-111.186,-47.835 -216.303,-108.697 -313.144,-181.306c-6.647,-4.985 -15.853,-4.985 -22.5,0Zm311.562,384.531c0,82.841 -30.687,155.978 -91.334,218.275l0,-4.587c0,-10.286 -8.464,-18.75 -18.75,-18.75c-10.286,0 -18.75,8.464 -18.75,18.75l0,19.512c0,5.339 2.287,10.43 6.278,13.975c-9.754,8.175 -20.073,16.14 -30.956,23.894c-46.775,32.751 -98.056,58.541 -152.238,76.563c-52.397,-18.094 -101.828,-43.847 -146.681,-76.422c-9.825,-7.225 -19.157,-14.641 -27.997,-22.247c5.368,-3.439 8.625,-9.391 8.625,-15.766l0,-19.509c0,-10.286 -8.464,-18.75 -18.75,-18.75c-10.286,0 -18.75,8.464 -18.75,18.75l0,8.078c-60.653,-63.025 -91.322,-137.353 -91.322,-221.766l0,-172.787c106.209,-46.51 206.929,-104.661 300.313,-173.385c93.384,68.723 194.105,126.874 300.312,173.385l0,172.787Z" style="fill:#fff;fill-rule:nonzero;"></path><path d="M791.232,583.208c-10.286,0 -18.75,8.464 -18.75,18.75l0,19.512c0,10.286 8.464,18.75 18.75,18.75c10.286,0 18.75,-8.464 18.75,-18.75l0,-19.512c0,-10.286 -8.464,-18.75 -18.75,-18.75Z" style="fill:#fff;fill-rule:nonzero;"></path><path d="M854.644,583.208c-10.286,0 -18.75,8.464 -18.75,18.75l0,19.512c0,10.286 8.464,18.75 18.75,18.75c10.286,0 18.75,-8.464 18.75,-18.75l0,-19.512c0,-10.286 -8.464,-18.75 -18.75,-18.75Z" style="fill:#fff;fill-rule:nonzero;"></path><path d="M899.304,601.958l0,19.512c0,10.286 8.464,18.75 18.75,18.75c10.286,0 18.75,-8.464 18.75,-18.75l0,-19.512c0,-10.286 -8.464,-18.75 -18.75,-18.75c-10.286,0 -18.75,8.464 -18.75,18.75Z" style="fill:#fff;fill-rule:nonzero;"></path><path d="M727.819,583.208c-10.286,0 -18.75,8.464 -18.75,18.75l0,19.512c0,10.286 8.464,18.75 18.75,18.75c10.286,0 18.75,-8.464 18.75,-18.75l0,-19.512c0,-10.286 -8.464,-18.75 -18.75,-18.75Z" style="fill:#fff;fill-rule:nonzero;"></path><path d="M664.41,583.208c-10.286,0 -18.75,8.464 -18.75,18.75l0,19.512c0,10.286 8.464,18.75 18.75,18.75c10.286,0 18.75,-8.464 18.75,-18.75l0,-19.512c0,-10.286 -8.464,-18.75 -18.75,-18.75Z" style="fill:#fff;fill-rule:nonzero;"></path><path d="M704.869,365.152c-3.523,-3.582 -8.342,-5.602 -13.367,-5.602c-10.286,0 -18.75,8.464 -18.75,18.75c0,5.023 2.018,9.841 5.599,13.364l72.256,72.241c7.273,7.272 19.242,7.272 26.516,0l127.003,-127.003c3.58,-3.524 5.598,-8.342 5.598,-13.365c0,-10.286 -8.464,-18.75 -18.75,-18.75c-5.024,0 -9.844,2.02 -13.367,5.602l-113.75,113.75l-58.988,-58.987Z" style="fill:#fff;fill-rule:nonzero;"></path></svg>