<svg xmlns="http://www.w3.org/2000/svg" xmlns:xlink="http://www.w3.org/1999/xlink" xmlns:serif="http://www.serif.com/" width="100%" height="100%" viewBox="0 0 189 195" xml:space="preserve" style="fill-rule:evenodd;clip-rule:evenodd;stroke-linejoin:round;stroke-miterlimit:2;"><path d="M187.906,87.722c-1.269,-11.231 -11.769,-20.031 -23.9,-20.031l-49.172,0c3.757,-10.222 5.629,-29.31 5.532,-37.707c-0.197,-16.534 -13.919,-29.984 -30.594,-29.984l-5.597,0c-5.022,0 -9.112,4.091 -9.112,9.116c0,15.056 -6.022,42.856 -16.913,53.74c-6.653,6.656 -12.428,9.506 -19.734,13.113l-2.178,1.081l-33.894,0c-1.294,0 -2.344,1.05 -2.344,2.344l0,97.668c0,1.294 1.05,2.344 2.344,2.344l34.028,0c3.053,1.035 6.365,2.4 9.878,3.853c11.784,4.891 26.447,10.978 46.375,10.978l44.287,0c8.279,0 15.891,-3.931 20.366,-10.512c3.65,-5.375 4.666,-11.869 2.906,-18.144c8.55,-3.375 14.335,-11.722 14.335,-21.084c0,-2.041 -0.269,-4.053 -0.807,-6c6.469,-2.531 11.394,-7.86 13.404,-14.65c2.053,-6.941 0.721,-14.26 -3.547,-19.966c3.422,-4.606 4.997,-10.39 4.337,-16.159Zm-183.219,-5.985l29.757,0l0,92.982l-29.757,0l0,-92.982Zm174.107,23.713c4.175,4.669 5.603,11.05 3.822,17.069c-1.782,6.022 -6.45,10.594 -12.485,12.231c-0.644,0.175 -1.184,0.616 -1.484,1.213c-0.3,0.596 -0.328,1.29 -0.081,1.912c0.837,2.113 1.259,4.341 1.259,6.622c0,8.09 -5.441,15.222 -13.231,17.347c-0.644,0.178 -1.182,0.615 -1.482,1.215c-0.3,0.594 -0.325,1.291 -0.081,1.91c2.213,5.587 1.631,11.312 -1.631,16.122c-3.6,5.297 -9.763,8.459 -16.488,8.459l-44.29,0c-18.994,0 -33.181,-5.887 -44.578,-10.616c-3.119,-1.293 -6.088,-2.528 -8.913,-3.54l0,-94.547l1.36,-0.675c7.393,-3.647 13.775,-6.797 20.975,-14.003c11.931,-11.922 18.284,-40.797 18.284,-57.053c0,-2.444 1.984,-4.429 4.425,-4.429l5.597,0c14.122,0 25.74,11.372 25.906,25.35c0.106,9.166 -2.341,31.429 -6.487,38.854c-0.407,0.725 -0.397,1.612 0.025,2.328c0.418,0.715 1.19,1.159 2.018,1.159l52.772,0c9.785,0 18.238,6.972 19.244,15.875c0.591,5.194 -0.991,10.194 -4.459,14.078c-0.794,0.885 -0.794,2.231 0.003,3.119Z" style="fill:#fff;fill-rule:nonzero;"></path></svg>