<svg xmlns="http://www.w3.org/2000/svg" xmlns:xlink="http://www.w3.org/1999/xlink" xmlns:serif="http://www.serif.com/" width="100%" height="100%" viewBox="0 0 269 269" xml:space="preserve" style="fill-rule:evenodd;clip-rule:evenodd;stroke-linejoin:round;stroke-miterlimit:2;"><path d="M115.625,0c-1.651,0 -2.783,1.382 -3.027,2.441l-6.055,26.27c-9.65,2.537 -18.742,6.42 -27.148,11.328l-22.95,-14.355c-1.184,-0.775 -2.899,-0.604 -3.906,0.39l-26.465,26.465c-0.994,1.007 -1.165,2.722 -0.39,3.906l14.355,22.95c-4.908,8.406 -8.791,17.498 -11.328,27.148l-26.27,6.055c-1.365,0.306 -2.431,1.628 -2.441,3.027l0,37.5c0.01,1.399 1.076,2.721 2.441,3.027l26.27,6.055c2.048,7.79 5.041,15.184 8.691,22.168l-23.925,22.656c-0.068,0.063 -0.134,0.127 -0.196,0.196c-2.902,3.186 -3.906,7.581 -3.906,11.523c0,5.359 1.587,8.818 4.492,12.109l24.512,24.414c2.892,2.893 6.778,4.102 10.058,4.102c3.123,0 6.967,-1.107 9.961,-4.102l24.61,-24.609c7.391,3.961 15.24,7.194 23.535,9.375l6.055,26.27c0.306,1.365 1.628,2.431 3.027,2.441l37.5,0c1.399,-0.01 2.721,-1.076 3.027,-2.441l6.055,-26.27c9.65,-2.537 18.742,-6.42 27.148,-11.328l22.95,14.355c1.184,0.775 2.899,0.604 3.906,-0.39l26.465,-26.465c0.993,-1.007 1.165,-2.723 0.39,-3.906l-14.355,-22.95c4.908,-8.406 8.791,-17.498 11.328,-27.148l26.27,-6.055c1.365,-0.306 2.432,-1.628 2.441,-3.027l0,-37.5c-0.01,-1.399 -1.076,-2.721 -2.441,-3.027l-26.27,-6.055c-2.537,-9.65 -6.42,-18.742 -11.328,-27.148l14.355,-22.95c0.775,-1.184 0.604,-2.899 -0.39,-3.906l-26.465,-26.465c-1.007,-0.993 -2.722,-1.165 -3.906,-0.39l-22.95,14.355c-8.406,-4.908 -17.498,-8.791 -27.148,-11.328l-6.055,-26.27c-0.244,-1.059 -1.376,-2.441 -3.027,-2.441l-37.5,0Zm2.441,6.25l32.618,0l5.859,25.586c0.246,1.111 1.147,2.051 2.246,2.344c10.364,2.521 19.915,6.969 29.004,12.011c1.243,0.69 2.018,0.872 3.418,0l22.266,-13.867l22.949,22.949l-13.867,22.266c-0.821,1.318 -0.657,2.307 0.195,3.711c5.342,8.799 9.319,18.448 11.816,28.711c0.293,1.099 1.233,2 2.344,2.246l25.586,5.859l0,32.618l-25.586,5.859c-1.111,0.246 -2.051,1.147 -2.344,2.246c-2.498,10.269 -6.784,19.724 -11.816,28.711c-0.757,1.352 -1.189,2.116 -0.195,3.711l13.867,22.266l-22.949,22.949l-22.266,-13.867c-1.153,-0.719 -2.15,-0.767 -3.418,0c-8.893,5.38 -18.64,9.489 -29.004,12.011c-1.099,0.293 -2,1.233 -2.246,2.344l-5.859,25.586l-32.618,0l-5.859,-25.586c-0.246,-1.111 -1.147,-2.051 -2.246,-2.344c-7.873,-1.916 -15.32,-4.867 -22.363,-8.496l25.879,-25.781c6.886,2.032 13.867,2.832 20.898,2.832c17.596,0 35.824,-6.429 49.121,-19.727c13.379,-13.376 19.629,-31.279 19.629,-49.023c0,-7.634 -0.834,-15.538 -3.32,-22.949c-0.693,-1.996 -3.691,-2.675 -5.176,-1.172l-39.453,39.453l-30.664,-5.566l-5.567,-30.567l39.551,-39.551c1.492,-1.538 0.69,-4.575 -1.367,-5.175c-8.435,-2.551 -17.306,-3.223 -25.879,-3.223c-16.623,0 -32.842,6.475 -45.996,19.629c-13.278,13.278 -19.405,31.604 -19.629,49.023c-0.091,7.067 0.819,13.964 2.832,20.801l-26.27,24.902c-3.321,-6.736 -6.189,-13.719 -8.007,-21.191c-0.293,-1.099 -1.233,-2 -2.344,-2.246l-25.586,-5.859l0,-32.618l25.586,-5.859c1.111,-0.246 2.051,-1.147 2.344,-2.246c2.497,-10.263 6.474,-19.912 11.816,-28.711c0.852,-1.404 1.016,-2.393 0.195,-3.711l-13.867,-22.266l22.949,-22.949l22.266,13.867c1.4,0.872 2.175,0.69 3.418,0c9.089,-5.042 18.64,-9.49 29.004,-12.011c1.099,-0.293 2,-1.233 2.246,-2.344l5.859,-25.586Zm13.184,65.625c6.321,0 12.607,0.624 18.652,1.855l-36.523,36.524c-0.671,0.72 -0.971,1.769 -0.781,2.734l6.25,34.375c0.207,1.23 1.22,2.284 2.441,2.539l34.375,6.25c1.011,0.197 2.111,-0.143 2.832,-0.879l36.621,-36.621c1.124,5.075 1.758,10.366 1.758,15.723c0,16.27 -5.778,32.536 -17.871,44.629c-11.982,11.982 -28.545,17.871 -44.629,17.871c-7.284,0 -14.232,-0.791 -20.898,-3.027c-1.106,-0.368 -2.409,-0.053 -3.223,0.781l-56.348,56.25c-1.489,1.489 -3.92,2.246 -5.469,2.246c-1.377,0 -4.337,-1.017 -5.566,-2.246l-25,-24.902c-1.297,-1.397 -2.246,-5.075 -2.246,-7.227c0,-2.646 1.046,-5.899 2.344,-7.324l56.054,-52.93c0.87,-0.831 1.19,-2.189 0.782,-3.32c-2.265,-6.75 -3.024,-13.508 -2.93,-20.801c0.205,-15.994 5.953,-32.809 17.871,-44.727c12.081,-12.081 26.497,-17.773 41.504,-17.773Z" style="fill:#fff;fill-rule:nonzero;"></path></svg>