<svg xmlns="http://www.w3.org/2000/svg" xmlns:xlink="http://www.w3.org/1999/xlink" xmlns:serif="http://www.serif.com/" width="100%" height="100%" viewBox="0 0 28 25" xml:space="preserve" style="fill-rule:evenodd;clip-rule:evenodd;stroke-linejoin:round;stroke-miterlimit:2;"><path d="M27.281,13.806c0.228,-0.119 0.319,-0.397 0.197,-0.625c-0.119,-0.225 -0.397,-0.315 -0.625,-0.197l-5.059,2.638l0,-0.91l5.487,-2.859c0.228,-0.119 0.319,-0.397 0.197,-0.625c-0.115,-0.225 -0.394,-0.312 -0.625,-0.194l-5.059,2.635l0,-0.86l5.487,-2.859c0.16,-0.078 0.253,-0.241 0.25,-0.416c-0.003,-0.175 -0.103,-0.334 -0.262,-0.412l-8.5,-4.103c-0.125,-0.063 -0.275,-0.06 -0.403,0l-18.107,8.85c-0.159,0.075 -0.259,0.237 -0.259,0.415c0,0.179 0.103,0.335 0.259,0.416l9.05,4.394c0.066,0.031 0.135,0.05 0.204,0.05c0.071,0 0.146,-0.019 0.212,-0.057l5.841,-3.04l0,0.862l-6.06,3.157l-8.843,-4.297c-0.225,-0.113 -0.504,-0.013 -0.616,0.212c-0.109,0.231 -0.016,0.506 0.216,0.616l9.05,4.4c0.065,0.031 0.134,0.044 0.203,0.044c0.072,0 0.147,-0.019 0.212,-0.05l5.841,-3.047l0,0.909l-6.06,3.156l-8.843,-4.29c-0.228,-0.116 -0.507,-0.016 -0.619,0.215c-0.109,0.225 -0.016,0.507 0.216,0.616l9.05,4.394c0.065,0.031 0.134,0.05 0.203,0.05c0.072,0 0.147,-0.019 0.212,-0.056l5.841,-3.041l0,0.847l-6.06,3.156l-8.843,-4.291c-0.228,-0.106 -0.507,-0.015 -0.619,0.216c-0.113,0.231 -0.016,0.506 0.216,0.619l9.05,4.394c0.065,0.037 0.134,0.046 0.203,0.046c0.072,0 0.147,-0.018 0.212,-0.056l11.816,-6.147l5.737,-2.99c0.228,-0.116 0.319,-0.397 0.197,-0.622c-0.122,-0.225 -0.397,-0.319 -0.625,-0.197l-5.059,2.641l0,-0.854l5.487,-2.853Zm-8.712,-7.859l7.469,3.609l-4.744,2.469l-7.556,-3.716l4.831,-2.362Zm-9.06,12.212l-7.987,-3.881l5.728,-2.797l7.756,3.816l-5.497,2.862Zm6.988,-2.593l2.966,-1.544c0.225,-0.116 0.312,-0.394 0.196,-0.622c-0.118,-0.228 -0.396,-0.316 -0.621,-0.197l-3.01,1.563l-7.725,-3.8l4.385,-2.144l8.178,4.025l0,5.141l-4.369,2.278l0,-4.7Z" style="fill:#fff;fill-rule:nonzero;"></path><path d="M8.272,6.188c3.734,0 6.553,-1.332 6.553,-3.094c0,-1.763 -2.816,-3.094 -6.553,-3.094c-3.734,0 -6.55,1.331 -6.55,3.094c0,1.762 2.816,3.094 6.55,3.094Zm0,-5.266c3.316,0 5.625,1.144 5.625,2.169c0,1.025 -2.309,2.168 -5.625,2.168c-3.316,0 -5.625,-1.143 -5.625,-2.168c0,-1.025 2.312,-2.169 5.625,-2.169Z" style="fill:#fff;fill-rule:nonzero;"></path><path d="M14.713,5.784c0.106,-0.234 0,-0.509 -0.232,-0.612c-0.234,-0.103 -0.506,0 -0.612,0.234c-0.319,0.71 -2.547,1.475 -5.594,1.475c-3.044,0 -5.275,-0.765 -5.597,-1.475c-0.106,-0.234 -0.381,-0.337 -0.612,-0.231c-0.235,0.103 -0.338,0.378 -0.232,0.609c0.629,1.388 3.779,2.022 6.441,2.022c2.663,0 5.816,-0.634 6.438,-2.022Z" style="fill:#fff;fill-rule:nonzero;"></path><path d="M8.738,9.094c0,-0.257 -0.207,-0.463 -0.463,-0.463c-3.044,0 -5.275,-0.765 -5.597,-1.478c-0.106,-0.231 -0.381,-0.337 -0.612,-0.231c-0.235,0.106 -0.338,0.378 -0.232,0.612c0.629,1.388 3.779,2.022 6.441,2.022c0.253,0 0.463,-0.206 0.463,-0.462Z" style="fill:#fff;fill-rule:nonzero;"></path><path d="M5.397,10.866c0.225,0 0.422,-0.163 0.456,-0.394c0.038,-0.253 -0.134,-0.491 -0.387,-0.528c-1.944,-0.291 -2.685,-0.782 -2.803,-1c-0.125,-0.225 -0.404,-0.306 -0.629,-0.185c-0.225,0.122 -0.309,0.407 -0.184,0.628c0.469,0.857 2.15,1.272 3.478,1.472c0.022,0.004 0.044,0.007 0.069,0.007Z" style="fill:#fff;fill-rule:nonzero;"></path><path d="M2.634,10.616c-0.143,-0.213 -0.431,-0.263 -0.643,-0.119c-0.21,0.144 -0.263,0.434 -0.116,0.644c0.253,0.368 0.844,0.662 1.803,0.893c0.038,0.01 0.072,0.013 0.11,0.013c0.206,0 0.396,-0.141 0.45,-0.353c0.062,-0.247 -0.091,-0.497 -0.341,-0.56c-1.069,-0.259 -1.253,-0.509 -1.263,-0.518Z" style="fill:#fff;fill-rule:nonzero;"></path><path d="M12.575,12.647c-0.17,-0.408 0.554,-1.097 1.615,-1.538c1.06,-0.441 2.059,-0.468 2.229,-0.06c0.169,0.408 -0.554,1.097 -1.615,1.538c-1.061,0.441 -2.06,0.468 -2.229,0.06Z" style="fill:#fff;"></path></svg>