<svg xmlns="http://www.w3.org/2000/svg" xmlns:xlink="http://www.w3.org/1999/xlink" xmlns:serif="http://www.serif.com/" width="100%" height="100%" viewBox="0 0 1764 2862" xml:space="preserve" style="fill-rule:evenodd;clip-rule:evenodd;stroke-linejoin:round;stroke-miterlimit:2;"><path d="M1100.76,1363.85c25.603,-35.321 56.966,-64.718 92.878,-89.553c37.347,-25.847 72.391,-54.675 105.728,-85.515c120.206,-111.197 210.447,-243.413 275.213,-393.363c49.409,-114.409 80.822,-233.75 96.331,-357.312c6.3,-50.213 9.609,-100.675 10.028,-151.285c0.047,-4.956 1.363,-7.553 6.031,-9.453c7.666,-3.125 14.407,-7.987 20.941,-13.084c40.366,-31.466 69.994,-102.128 47.262,-168.966c-16.784,-49.35 -58.525,-95.609 -130.043,-95.322c-248.925,1.003 -497.857,0.041 -746.788,0.041l-753.872,0c-39.081,0 -70.822,15.85 -93.656,47.397c-29.056,40.162 -36.578,85.625 -26.703,133.584c8.959,43.556 31.841,77.375 73.762,95.885c3.697,1.631 3.257,4.071 3.282,6.815c0.615,60.81 5.228,121.303 13.897,181.513c12.728,88.287 33.825,174.503 64.243,258.334c67.294,185.466 170.85,346.909 318.635,478.853c29.281,26.131 59.825,50.744 92.218,72.928c44.113,30.222 81.11,67.147 106.979,114.257c15.506,28.237 21.443,58.34 12.434,90.178c-7.716,27.231 -25.203,47.668 -46.381,65.384c-19.444,16.259 -41.46,28.772 -62.491,42.731c-104.228,69.153 -193.047,154.591 -267.575,254.916c-97.6,131.378 -164.256,277.394 -204.725,435.619c-16.803,65.725 -28.284,132.422 -34.712,199.993c-3.291,34.607 -5.257,69.275 -5.957,104.016c-0.068,3.6 -0.831,6.113 -4.162,8.131c-20.185,12.207 -34.753,29.588 -45.269,50.457c-16.462,32.671 -21.494,67.34 -16.172,103.284c5.488,37.025 21.022,68.972 51.553,92.056c25.635,19.381 55.525,25.36 86.788,25.366c499.522,0.097 999.034,0.078 1498.55,0.04c25.959,0 49.672,-7.74 69.172,-24.793c43.281,-37.85 60.968,-86.132 52.768,-142.791c-6.184,-42.719 -26.309,-77.919 -63.347,-101.972c-3.59,-2.337 -3.031,-5.5 -3.09,-8.706c-1.222,-70.291 -7.994,-140.025 -20.206,-209.266c-19.347,-109.668 -51.741,-215.281 -98.244,-316.472c-62.613,-136.206 -146.8,-257.143 -256.141,-360.159c-51.053,-48.087 -106.528,-90.419 -166.053,-127.528c-22.525,-14.034 -43.681,-29.963 -60.203,-51.138c-19.428,-24.903 -29.197,-52.578 -23.944,-84.537c4.303,-26.2 15.681,-49.375 31.044,-70.563Zm-1044.77,-1190.83c-0.759,-2.597 -0.4,-4.137 2.766,-3.915c1.644,0.115 3.303,0.018 4.966,0.018c71.625,0 143.25,0.013 214.881,-0.018c16.412,0 25.065,-6.657 27.319,-20.735c2.296,-14.387 -6.866,-26.443 -21.288,-27.915c-2.341,-0.25 -4.725,-0.153 -7.084,-0.153c-71.394,0 -142.782,-0.079 -214.172,0.115c-6.494,0.016 -7.406,-1.503 -5.285,-7.431c10.047,-28.141 26.957,-49.022 57.454,-56.097c5.793,-1.337 11.709,-1.516 17.618,-1.516c500.447,-0.006 1000.9,0.032 1501.35,-0.112c24.438,-0.016 42.61,10.222 56.01,29.978c6.262,9.244 10.45,19.441 13.75,30.1c1.45,4.659 -0.072,5.338 -4,4.981c-1.635,-0.15 -3.307,-0.018 -4.966,-0.018c-346.084,0 -692.166,0 -1038.25,-0.013c-4.969,0 -9.944,-0.081 -14.681,1.709c-9.659,3.647 -15.375,13.791 -14.272,25.191c1.116,11.481 7.891,19.431 18.456,21.156c3.932,0.65 8,0.753 12,0.753c346.085,0.029 692.166,0.022 1038.25,0.057c9.594,0.003 9.481,-1.841 6.31,8.365c-4.688,15.082 -12.038,28.703 -23.644,39.691c-10.475,9.897 -22.8,17.544 -37.36,18.266c-4.012,0.203 -8.034,2.062 -12.056,2.062l-746.05,0c-244.678,0 -489.35,-1.725 -734.019,-1.791c-13.671,0 -27.5,-0.306 -40.809,-4.325c-28.984,-8.709 -44.994,-30.412 -53.194,-58.403Zm1647.7,2515.32c0.594,2.003 0.988,2.322 1.644,8.572l-8.081,0c-69.735,0 -139.475,-1.744 -209.213,-1.769c-4.747,0 -9.497,-0.825 -14.009,0.75c-9.709,3.394 -15.488,12.928 -14.65,24.516c0.828,11.365 7.597,19.322 18.091,21.272c3.228,0.603 6.571,-0.15 9.868,-0.147c69.969,0.04 139.941,-0.869 209.922,-0.869l8.506,0c-8.934,37.5 -22.121,55.425 -54.221,64.153c-5.291,1.435 -10.744,1.938 -16.182,1.938c-497.15,0.012 -994.306,0.212 -1491.45,0.181c-10.865,0 -21.809,0.178 -32.406,-2.663c-30.15,-8.043 -46.878,-29.025 -55.459,-57.818c-0.847,-2.85 -0.597,-5.375 3.012,-5.053c1.888,0.171 3.791,-0.738 5.678,-0.738l1284.37,0c16.419,0 24.766,-4.737 27.863,-17.591c3.668,-15.284 -5.804,-28.334 -21.435,-29.856c-3.044,-0.294 -6.134,0 -9.206,0c-426.703,-0.012 -853.409,0.097 -1280.12,0.097c-1.884,0 -3.79,-0.131 -5.662,0.066c-4.038,0.443 -4.294,-1.607 -3.3,-4.622c9.793,-29.563 26.956,-51.728 59.062,-58.878c6.494,-1.45 13.147,-1.394 19.756,-1.394c498.804,-0.006 997.613,0.859 1496.42,0.878c35.706,0 59.85,20.628 71.203,58.975Zm-642.178,-1123.6c20.725,22.353 45.16,40.187 70.766,56.369c163.575,103.287 285.465,244.012 373.078,415.431c53.556,104.803 90.206,215.381 112.169,330.953c12.547,66.044 19.581,132.666 22.118,199.806c0.194,5.044 -2.668,6.722 -8.368,6.722c-250.813,-0.175 -504.622,-0.156 -754.622,-0.156l0,-0.028c-256.25,0 -498.503,0 -748.844,0.009c-4.172,0 -6.766,1.213 -6.506,-6.022c5.319,-148.981 34.64,-293.097 89.881,-431.684c54.156,-135.856 130.341,-257.978 232.053,-363.541c54.488,-56.556 114.928,-106.034 181.335,-148.078c30.606,-19.375 60.128,-40.306 83.543,-68.497c28.132,-33.89 43.138,-72.343 39.547,-116.909c-2.706,-33.597 -14.419,-64.263 -31.844,-92.822c-28.703,-47.022 -67.828,-84.012 -112.959,-114.822c-46.8,-31.944 -90.006,-68.156 -130.166,-108c-121.115,-120.153 -206.75,-262.553 -263.787,-422.684c-28.328,-79.56 -48.103,-161.25 -59.969,-244.869c-7.537,-53.178 -11.956,-106.569 -12.89,-160.269c-0.094,-5.053 0.437,-7.147 6.509,-7.143c440.869,0.187 881.744,0.178 1322.62,0.19c51.531,0 103.062,0.094 154.6,-0.131c5.403,-0.031 6.515,1.322 6.397,6.594c-4.885,219.412 -58.96,425.25 -170.694,614.859c-72.497,123.047 -165.588,227.969 -281.872,311.397c-30.819,22.103 -61.156,44.431 -86.766,72.534c-28.384,31.141 -52.74,65.003 -65.037,105.878c-18.763,62.46 -4.331,117.394 39.709,164.913Z" style="fill:#fff;fill-rule:nonzero;"></path><path d="M601.201,1079.1c-88.593,-85.528 -164.096,-181.281 -224.318,-288.787c-57.388,-102.472 -100.353,-210.4 -121.285,-326.466c-2.403,-13.309 -13.347,-22.059 -27.222,-22.134c-14.746,-0.097 -23,8.715 -21.259,23.362c4.375,36.65 12.813,72.447 23.756,107.632c44.794,143.996 113.491,275.603 205.438,395.078c41.594,54.037 87.087,104.581 136.559,151.506c11.094,10.525 24.831,10.15 35.222,-0.491c10.344,-10.6 9.872,-23.193 -1.297,-34.278c-1.844,-1.825 -3.725,-3.619 -5.594,-5.422Z" style="fill:#fff;fill-rule:nonzero;"></path><path d="M494.748,1879.47c-10.906,-9.981 -23.772,-8.663 -35.268,3.606c-24.572,26.238 -47.66,53.728 -69.038,82.631c-88.747,119.997 -147.562,253.779 -183.006,398.257c-7.544,30.747 -12.835,61.912 -15.91,93.437c-0.459,7.925 2,14.438 9.019,18.725c15.341,9.378 36.725,-0.553 39.41,-18.306c0.703,-4.672 1.09,-9.388 1.843,-14.05c13.444,-82.497 36.572,-162.25 68.65,-239.384c44.466,-106.922 105.132,-203.513 184.55,-288.088c11.513,-12.253 11.266,-26.272 -0.25,-36.828Z" style="fill:#fff;fill-rule:nonzero;"></path><path d="M609.789,1748.55c-6.95,0.369 -12.531,3.447 -17.516,8.191c-20.193,19.225 -40.531,38.297 -60.768,57.475c-11.494,10.897 -12.25,23.503 -2.197,34.2c10.381,11.028 24.478,11.525 35.784,0.919c20.85,-19.557 41.606,-39.219 62.303,-58.947c8.335,-7.941 10.222,-16.294 6.247,-25.572c-4.034,-9.409 -14.178,-16.325 -23.853,-16.266Z" style="fill:#fff;fill-rule:nonzero;"></path><path d="M368.886,169.061c61.234,0.178 122.465,0.068 183.69,0.04c1.888,0 3.779,-0.234 5.638,-0.525c11.219,-1.762 18.609,-9.772 19.462,-21.025c1.26,-16.584 -8.293,-27.14 -25.018,-27.212c-30.735,-0.128 -61.463,-0.035 -92.2,-0.035c-30.494,0 -60.991,-0.037 -91.491,0.016c-12.522,0.022 -20.353,5.003 -24.009,14.944c-6.513,17.734 4.553,33.74 23.928,33.797Z" style="fill:#fff;fill-rule:nonzero;"></path></svg>