<svg xmlns="http://www.w3.org/2000/svg" xmlns:xlink="http://www.w3.org/1999/xlink" xmlns:serif="http://www.serif.com/" width="100%" height="100%" viewBox="0 0 194 163" xml:space="preserve" style="fill-rule:evenodd;clip-rule:evenodd;stroke-linejoin:round;stroke-miterlimit:2;"><path d="M190.625,31.25l-28.125,0l0,-28.125c0,-0.938 -0.313,-1.875 -1.25,-2.5c-0.625,-0.625 -1.563,-0.625 -2.5,-0.625l-156.25,31.25l-0.312,0c-0.313,0 -0.313,0 -0.625,0.313c-0.313,0 -0.313,0.312 -0.625,0.312l-0.313,0.313c0,0.312 -0.313,0.312 -0.313,0.625l-0.312,0.312l0,125.938c0,1.875 1.25,3.125 3.125,3.125l187.5,0c1.875,0 3.125,-1.25 3.125,-3.125l0,-124.688c0,-1.875 -1.25,-3.125 -3.125,-3.125Zm-34.375,-24.375l0,24.375l-121.563,0l121.563,-24.375Zm-150,149.375l0,-118.75l181.25,0l0,37.5l-28.125,0c-12.188,0 -21.875,9.688 -21.875,21.875c0,12.188 9.688,21.875 21.875,21.875l28.125,0l0,37.5l-181.25,0Zm181.25,-43.75l-28.125,0c-8.75,0 -15.625,-6.875 -15.625,-15.625c0,-8.75 6.875,-15.625 15.625,-15.625l28.125,0l0,31.25Z" style="fill:#fff;fill-rule:nonzero;"></path><path d="M181.25,121.875c-1.875,0 -3.125,1.25 -3.125,3.125l0,21.875l-162.5,0l0,-100l162.5,0l0,21.875c0,1.875 1.25,3.125 3.125,3.125c1.875,0 3.125,-1.25 3.125,-3.125l0,-25c0,-1.875 -1.25,-3.125 -3.125,-3.125l-168.75,0c-1.875,0 -3.125,1.25 -3.125,3.125l0,106.25c0,1.875 1.25,3.125 3.125,3.125l168.75,0c1.875,0 3.125,-1.25 3.125,-3.125l0,-25c0,-1.875 -1.25,-3.125 -3.125,-3.125Z" style="fill:#fff;fill-rule:nonzero;"></path><path d="M153.125,96.875c0,5.313 4.063,9.375 9.375,9.375c5.313,0 9.375,-4.062 9.375,-9.375c0,-5.313 -4.063,-9.375 -9.375,-9.375c-5.313,0 -9.375,4.062 -9.375,9.375Zm9.375,-3.125c1.875,0 3.125,1.25 3.125,3.125c0,1.875 -1.25,3.125 -3.125,3.125c-1.875,0 -3.125,-1.25 -3.125,-3.125c0,-1.875 1.25,-3.125 3.125,-3.125Z" style="fill:#fff;fill-rule:nonzero;"></path></svg>