<svg xmlns="http://www.w3.org/2000/svg" xmlns:xlink="http://www.w3.org/1999/xlink" xmlns:serif="http://www.serif.com/" width="100%" height="100%" viewBox="0 0 1175 784" xml:space="preserve" style="fill-rule:evenodd;clip-rule:evenodd;stroke-linejoin:round;stroke-miterlimit:2;"><g><path d="M730.627,572.034c-4.849,0 -9.264,2.751 -11.411,7.089l-11.666,23.645l-26.101,3.794c-4.796,0.698 -8.77,4.054 -10.271,8.659c-1.501,4.603 -0.251,9.658 3.215,13.038l18.885,18.408l-4.459,25.991c-0.817,4.776 1.148,9.597 5.064,12.444c2.215,1.612 4.837,2.431 7.475,2.431c2.028,0 4.062,-0.482 5.916,-1.456l23.342,-12.271l23.344,12.271c1.862,0.974 3.896,1.456 5.913,1.456c2.641,0 5.262,-0.819 7.478,-2.431c3.916,-2.847 5.88,-7.676 5.061,-12.444l-4.456,-25.991l18.882,-18.408c3.469,-3.38 4.719,-8.435 3.217,-13.038c-1.501,-4.605 -5.474,-7.961 -10.27,-8.659l-26.101,-3.794l-11.667,-23.645c-2.122,-4.338 -6.545,-7.089 -11.39,-7.089Zm-143.127,0c-4.845,0 -9.26,2.751 -11.41,7.089l-11.667,23.645l-26.101,3.794c-4.796,0.698 -8.769,4.054 -10.27,8.659c-1.501,4.603 -0.251,9.658 3.217,13.038l18.883,18.408l-4.457,25.991c-0.819,4.776 1.145,9.597 5.061,12.444c2.216,1.612 4.837,2.431 7.475,2.431c2.028,0 4.062,-0.482 5.916,-1.456l23.353,-12.263l23.342,12.271c1.862,0.974 3.899,1.457 5.916,1.457c2.638,0 5.259,-0.82 7.475,-2.431c3.916,-2.848 5.88,-7.677 5.063,-12.445l-4.459,-25.988l18.885,-18.411c3.466,-3.38 4.716,-8.435 3.215,-13.038c-1.498,-4.605 -5.474,-7.961 -10.27,-8.659l-26.101,-3.794l-11.667,-23.645c-2.139,-4.346 -6.554,-7.097 -11.399,-7.097Zm-143.127,0c-4.845,0 -9.26,2.751 -11.407,7.089l-11.669,23.645l-26.101,3.794c-4.793,0.698 -8.77,4.054 -10.271,8.659c-1.501,4.603 -0.248,9.658 3.218,13.038l18.885,18.408l-4.459,25.991c-0.82,4.776 1.148,9.597 5.06,12.444c2.216,1.612 4.838,2.431 7.478,2.431c2.026,0 4.062,-0.482 5.914,-1.456l23.344,-12.271l23.342,12.271c1.862,0.974 3.899,1.456 5.916,1.456c2.638,0 5.259,-0.819 7.475,-2.431c3.916,-2.847 5.883,-7.676 5.064,-12.444l-4.46,-25.991l18.886,-18.408c3.465,-3.38 4.715,-8.435 3.214,-13.038c-1.498,-4.605 -5.474,-7.961 -10.267,-8.659l-26.104,-3.794l-11.667,-23.645c-2.13,-4.338 -6.553,-7.089 -11.391,-7.089Z" style="fill:#fff;fill-rule:nonzero;"></path><path d="M778.336,398.038l-222.646,0l0,-12.718l222.646,0l0,12.718Zm-190.836,19.084l-31.81,0l0,12.718l31.81,0l0,-12.718Zm190.845,0l-159.035,0l0,12.718l159.035,0l0,-12.718Zm-95.423,31.802l-127.232,0l0,12.718l127.224,0l0,-12.718l0.008,0Zm95.414,0l-63.612,0l0,12.718l63.612,0l0,-12.718Zm-127.224,31.81l-95.422,0l0,12.718l95.422,0l0,-12.718Zm31.81,-286.261l-127.232,0l0,12.72l127.224,0l0,-12.72l0.008,0Zm95.414,0l-63.612,0l0,12.72l63.612,0l0,-12.72Zm0,31.81l-222.646,0l0,12.721l222.646,0l0,-12.721Zm-127.224,31.802l-95.422,0l0,12.721l95.422,0l0,-12.721Zm127.233,0l-95.423,0l0,12.721l95.423,0l0,-12.721Zm-63.621,31.813l-159.034,0l0,12.718l159.034,0l0,-12.718Z" style="fill:#fff;fill-rule:nonzero;"></path><path d="M810.147,67.249l-37.407,0c-6.39,-9.821 -13.97,-20.083 -21.195,-29.352l-2.215,-2.848l-3.588,0.45c-19.944,2.483 -75.391,7.398 -92.199,0.439c-2.939,-1.214 -7.492,-7.718 -11.159,-12.942c-6.664,-9.52 -13.554,-19.36 -23.074,-19.36l-63.612,0c-9.52,0 -16.418,9.84 -23.085,19.349c-3.664,5.226 -8.217,11.728 -11.159,12.944c-16.788,6.96 -72.252,2.045 -92.196,-0.438l-3.588,-0.45l-2.215,2.845c-7.227,9.271 -14.807,19.534 -21.195,29.354l-37.409,0c-21.049,0 -38.165,17.125 -38.165,38.165l0,636.127c0,21.048 17.116,38.165 38.165,38.165l445.296,0c21.048,0 38.167,-17.117 38.167,-38.168l0,-636.124c0,-21.032 -17.127,-38.156 -38.167,-38.156Zm-378.848,-18.704c16.308,1.88 74.231,7.752 95.028,-0.863c6.355,-2.63 11.383,-9.804 16.703,-17.393c3.416,-4.862 9.762,-13.926 12.668,-13.926l63.612,0c2.906,0 9.252,9.064 12.669,13.926c5.32,7.589 10.347,14.763 16.702,17.393c20.798,8.615 78.72,2.743 95.025,0.863c14.641,19.134 29.294,41.684 31.769,50.505l-375.95,0c2.484,-8.813 17.133,-31.371 31.777,-50.505l-0.003,0Zm404.284,693.003c0,14.029 -11.416,25.447 -25.448,25.447l-445.287,0c-14.029,0 -25.447,-11.418 -25.447,-25.447l0,-636.126c0,-14.029 11.418,-25.444 25.447,-25.444l29.741,0c-6.267,11.415 -9.658,21.186 -7.07,26.479c1.656,3.38 4.984,5.331 9.131,5.331l381.675,0c4.156,0 7.475,-1.94 9.131,-5.331c2.588,-5.293 -0.8,-15.056 -7.069,-26.479l29.74,0c14.029,0 25.447,11.415 25.447,25.444l0,636.126l0.009,0Zm-248.086,-667.936c-12.279,0 -22.265,-9.984 -22.265,-22.263c0,-12.279 9.986,-22.266 22.265,-22.266c12.28,0 22.266,9.987 22.266,22.266c0,12.279 -9.986,22.263 -22.266,22.263Zm0,-31.811c-5.259,0 -9.547,4.278 -9.547,9.548c0,5.259 4.277,9.545 9.547,9.545c5.268,0 9.545,-4.277 9.545,-9.545c0,-5.262 -4.285,-9.548 -9.545,-9.548Z" style="fill:#fff;fill-rule:nonzero;"></path><path d="M445.072,289.898l-0.207,0c-2.605,0 -5.069,-1.035 -6.83,-2.958l-32.508,-35.45c-3.563,-3.888 -3.295,-9.89 0.593,-13.444c3.891,-3.551 9.926,-3.267 13.48,0.613l25.772,28.17l66.383,-66.379c3.725,-3.726 9.76,-3.726 13.493,0c3.725,3.725 3.725,9.771 0,13.496l-73.432,73.294c-1.786,1.794 -4.217,2.658 -6.744,2.658Zm47.003,-33.855l0,40.218l-95.414,0l0,-95.422l95.425,0l0,10.295l12.503,-12.503c-1.052,-5.968 -6.225,-10.521 -12.503,-10.521l-95.425,0c-7.028,0 -12.718,5.7 -12.718,12.72l0,95.423c0,7.028 5.701,12.718 12.718,12.718l95.425,0c7.028,0 12.718,-5.698 12.718,-12.718l0,-52.912l-12.729,12.702Zm-47.003,224.691l-0.207,0c-2.605,0 -5.069,-1.035 -6.83,-2.958l-32.508,-35.45c-3.563,-3.888 -3.295,-9.889 0.593,-13.444c3.891,-3.551 9.926,-3.267 13.48,0.613l25.772,28.173l66.383,-66.382c3.725,-3.725 9.76,-3.725 13.493,0c3.725,3.725 3.725,9.771 0,13.496l-73.432,73.298c-1.786,1.793 -4.217,2.654 -6.744,2.654Zm47.003,-33.855l0,40.218l-95.414,0l0,-95.422l95.425,0l0,10.295l12.503,-12.503c-1.052,-5.965 -6.225,-10.518 -12.503,-10.518l-95.425,0c-7.028,0 -12.718,5.698 -12.718,12.718l0,95.422c0,7.028 5.701,12.721 12.718,12.721l95.425,0c7.028,0 12.718,-5.701 12.718,-12.721l0,-52.911l-12.729,12.701Z" style="fill:#fff;fill-rule:nonzero;"></path></g></svg>