<svg xmlns="http://www.w3.org/2000/svg" xmlns:xlink="http://www.w3.org/1999/xlink" xmlns:serif="http://www.serif.com/" width="100%" height="100%" viewBox="0 0 1175 784" xml:space="preserve" style="fill-rule:evenodd;clip-rule:evenodd;stroke-linejoin:round;stroke-miterlimit:2;"><g><path d="M741.858,351.959l53.82,0c9.418,0 17.074,-7.656 17.074,-17.077c-2.513,-18.839 9.225,-57.359 -17.074,-57.359l-53.82,0c-26.302,0 -14.564,38.52 -17.077,57.359c0,9.421 7.656,17.077 17.077,17.077Zm0,-64.861c42.511,2.335 61.319,-5.576 61.319,7.498l0,40.286c0,4.129 -3.374,7.499 -7.499,7.499l-53.82,0c-4.128,0 -7.502,-3.37 -7.502,-7.499c2.021,-28.634 -5.32,-47.784 7.502,-47.784Z" style="fill:#fff;fill-rule:nonzero;"></path><path d="M623.873,351.959l53.82,0c9.417,0 17.073,-7.656 17.073,-17.077c-2.512,-18.839 9.225,-57.359 -17.073,-57.359l-53.82,0c-9.422,0 -17.078,7.656 -17.078,17.073l0,40.286c0,9.421 7.656,17.077 17.078,17.077Zm-7.503,-57.363c0,-4.124 3.374,-7.498 7.503,-7.498c42.511,2.339 61.319,-5.576 61.319,7.498l0,40.286c0,4.129 -3.37,7.499 -7.499,7.499l-53.82,0c-4.129,0 -7.503,-3.37 -7.503,-7.499l0,-40.286Z" style="fill:#fff;fill-rule:nonzero;"></path><path d="M505.887,351.959l53.832,0c9.422,0 17.078,-7.656 17.078,-17.077l0,-40.286c0,-9.417 -7.656,-17.073 -17.078,-17.073l-53.832,0c-9.421,0 -17.077,7.656 -17.077,17.073l0,40.286c0,9.421 7.656,17.077 17.077,17.077Zm-7.502,-57.363c0,-4.124 3.373,-7.498 7.502,-7.498l53.832,0c4.129,0 7.499,3.374 7.499,7.498l0,40.286c0,4.129 -3.37,7.499 -7.499,7.499l-53.832,0c-4.129,0 -7.502,-3.37 -7.502,-7.499l0,-40.286Z" style="fill:#fff;fill-rule:nonzero;"></path><path d="M441.733,277.523l-53.831,0c-9.422,0 -17.078,7.656 -17.078,17.073l0,40.286c0,9.421 7.656,17.077 17.078,17.077l53.831,0c9.422,0 17.078,-7.656 17.078,-17.077l0,-40.286c0,-9.417 -7.656,-17.073 -17.078,-17.073Zm7.499,57.359c0,4.129 -3.37,7.499 -7.499,7.499l-53.831,0c-4.129,0 -7.499,-3.37 -7.499,-7.499l0,-40.286c0,-4.124 3.37,-7.498 7.499,-7.498l53.831,0c4.129,0 7.499,3.374 7.499,7.498l0,40.286Z" style="fill:#fff;fill-rule:nonzero;"></path><path d="M323.748,277.523l-53.832,0c-9.421,0 -17.077,7.656 -17.077,17.073l0,40.286c0,9.421 7.656,17.077 17.077,17.077l53.832,0c9.421,0 17.077,-7.656 17.077,-17.077l0,-40.286c0,-9.417 -7.656,-17.073 -17.077,-17.073Zm7.502,57.359c0,4.129 -3.373,7.499 -7.502,7.499l-53.832,0c-4.129,0 -7.499,-3.37 -7.499,-7.499l0,-40.286c0,-4.124 3.37,-7.498 7.499,-7.498l53.832,0c4.129,0 7.502,3.374 7.502,7.498l0,40.286Z" style="fill:#fff;fill-rule:nonzero;"></path><path d="M505.887,457.126l53.832,0c9.422,0 17.078,-7.656 17.078,-17.074l0,-40.285c0,-9.422 -7.656,-17.078 -17.078,-17.078l-53.832,0c-9.421,0 -17.077,7.656 -17.077,17.078l0,40.285c0,9.418 7.656,17.074 17.077,17.074Zm-7.502,-57.359c0,-4.129 3.373,-7.499 7.502,-7.499l53.832,0c4.129,0 7.499,3.37 7.499,7.499l0,40.285c0,4.125 -3.37,7.499 -7.499,7.499l-53.832,0c-4.129,0 -7.502,-3.374 -7.502,-7.499l0,-40.285Z" style="fill:#fff;fill-rule:nonzero;"></path><path d="M441.733,382.689l-53.831,0c-9.422,0 -17.078,7.656 -17.078,17.078l0,40.285c0,9.418 7.656,17.074 17.078,17.074l53.831,0c9.422,0 17.078,-7.656 17.078,-17.074l0,-40.285c0,-9.422 -7.656,-17.078 -17.078,-17.078Zm7.499,57.363c0,4.129 -3.37,7.499 -7.499,7.499l-53.831,0c-4.129,0 -7.499,-3.374 -7.499,-7.499l0,-40.285c0,-4.129 3.37,-7.499 7.499,-7.499l53.831,0c4.129,0 7.499,3.37 7.499,7.499l0,40.285Z" style="fill:#fff;fill-rule:nonzero;"></path><path d="M323.748,382.689l-53.832,0c-9.421,0 -17.077,7.656 -17.077,17.078l0,40.285c0,9.418 7.656,17.074 17.077,17.074l53.832,0c9.421,0 17.077,-7.656 17.077,-17.074l0,-40.285c0,-9.422 -7.656,-17.078 -17.077,-17.078Zm7.502,57.363c0,4.129 -3.373,7.499 -7.502,7.499l-53.832,0c-4.129,0 -7.499,-3.374 -7.499,-7.499l0,-40.285c0,-4.129 3.37,-7.499 7.499,-7.499l53.832,0c4.129,0 7.502,3.37 7.502,7.499l0,40.285Z" style="fill:#fff;fill-rule:nonzero;"></path><path d="M323.748,487.872l-53.82,0c-9.422,0 -17.078,7.656 -17.078,17.077l0,40.282c0,9.421 7.656,17.077 17.078,17.077l53.82,0c9.421,0 17.077,-7.656 17.077,-17.077l0,-40.282c0,-9.421 -7.656,-17.077 -17.077,-17.077Zm7.502,57.359c0,4.129 -3.373,7.502 -7.502,7.502l-53.82,0c-4.129,0 -7.499,-3.373 -7.499,-7.502l0,-40.282c0,-4.128 3.37,-7.502 7.499,-7.502l53.82,0c4.129,0 7.502,3.374 7.502,7.502l0,40.282Z" style="fill:#fff;fill-rule:nonzero;"></path><path d="M441.733,487.872l-53.82,0c-9.421,0 -17.077,7.656 -17.077,17.077l0,40.282c0,9.421 7.656,17.077 17.077,17.077l53.82,0c9.422,0 17.078,-7.656 17.078,-17.077l0,-40.282c0,-9.421 -7.656,-17.077 -17.078,-17.077Zm7.499,57.359c0,4.129 -3.37,7.502 -7.499,7.502l-53.82,0c-4.128,0 -7.498,-3.373 -7.498,-7.502l0,-40.282c0,-4.128 3.37,-7.502 7.498,-7.502l53.82,0c4.129,0 7.499,3.374 7.499,7.502l0,40.282Z" style="fill:#fff;fill-rule:nonzero;"></path><path d="M871.42,386.602l0,-278.175c0,-25.402 -20.675,-46.078 -46.077,-46.078l-35.028,0l0,-24.828c0,-17.919 -14.565,-33.05 -33.184,-33.05c-18.226,0 -33.046,14.821 -33.046,33.05l0,24.828l-45.96,0l0,-24.828c0,-17.919 -14.565,-33.05 -33.18,-33.05c-18.3,0 -33.183,14.821 -33.183,33.05l0,24.828l-45.826,0l0,-24.828c0,-17.919 -14.565,-33.05 -33.18,-33.05c-18.3,0 -33.184,14.821 -33.184,33.05l0,24.828l-45.826,0l0,-24.828c0,-18.214 -14.962,-33.05 -33.18,-33.05c-18.3,0 -33.179,14.821 -33.179,33.05l0,24.828l-45.964,0l0,-24.828c0,-17.962 -14.628,-33.05 -33.046,-33.05c-18.301,0 -33.18,14.821 -33.18,33.05l0,24.828l-35.016,0c-25.406,0 -46.082,20.676 -46.082,46.078l0,536.623c0,25.402 20.676,46.081 46.082,46.081l361.966,0c39.201,54.992 102.316,87.731 169.985,87.731c115.119,0 208.769,-93.649 208.769,-208.764c0,-77.248 -41.851,-146.974 -109.481,-183.496Zm-128.905,-349.081c0,-8.065 6.555,-14.62 14.616,-14.62c8.411,0 14.75,6.854 14.75,14.62c0,1.479 0,70.473 0,67.956c0,8.136 -6.614,14.746 -14.75,14.746c-8.061,0 -14.616,-6.61 -14.616,-14.746c0,-1.403 0,-70.347 0,-67.956Zm-112.319,0c0,-8.065 6.61,-14.62 14.749,-14.62c8.411,0 14.746,6.854 14.746,14.62c0,1.479 0,70.473 0,67.956c0,8.136 -6.61,14.746 -14.746,14.746c-7.994,0 -14.749,-6.755 -14.749,-14.746c0,-1.403 0,-70.347 0,-67.956Zm-112.19,0c0,-8.065 6.614,-14.62 14.75,-14.62c8.411,0 14.746,6.854 14.746,14.62c0,1.479 0,70.473 0,67.956c0,8.136 -6.61,14.746 -14.746,14.746c-8.136,0 -14.75,-6.61 -14.75,-14.746c0,-1.403 0,-70.347 0,-67.956Zm-112.189,0c0,-8.065 6.614,-14.62 14.749,-14.62c7.877,0 14.746,6.386 14.746,14.62c0,1.479 0,70.473 0,67.956c0,7.991 -6.755,14.746 -14.746,14.746c-8.135,0 -14.749,-6.61 -14.749,-14.746c0,-1.403 0,-70.347 0,-67.956Zm-112.19,0c0,-8.065 6.614,-14.62 14.75,-14.62c8.14,0 14.616,6.748 14.616,14.62c0,1.479 0,70.473 0,67.956c0,8.136 -6.551,14.746 -14.616,14.746c-8.136,0 -14.75,-6.61 -14.75,-14.746c0,-1.403 0,-70.347 0,-67.956Zm-81.097,70.906c0,-15.238 12.41,-27.648 27.651,-27.648l35.016,0l0,24.698c0,18.301 14.879,33.18 33.18,33.18c18.23,0 33.046,-14.879 33.046,-33.18l0,-24.698l45.964,0l0,24.698c0,18.301 14.879,33.18 33.179,33.18c18.301,0 33.18,-14.879 33.18,-33.18l0,-24.698l45.83,0l0,24.698c0,18.301 14.88,33.18 33.18,33.18c18.3,0 33.18,-14.879 33.18,-33.18l0,-24.698l45.826,0l0,24.698c0,18.301 14.883,33.18 33.183,33.18c18.301,0 33.18,-14.879 33.18,-33.18l0,-24.698l45.96,0l0,24.698c0,18.301 14.82,33.18 33.046,33.18c18.301,0 33.184,-14.879 33.184,-33.18l0,-24.698l35.028,0c15.237,0 27.647,12.41 27.647,27.648l0,94.624l-640.456,0l0,-94.624l-0.004,0Zm27.647,564.27c-15.241,0 -27.647,-12.406 -27.647,-27.647l0,-423.569l640.456,0l0,156.108c-0.546,-0.228 -1.113,-0.381 -1.659,-0.605c-56.286,-23.287 -118.906,-19.948 -171.664,6.055c-5.088,-0.574 -34.513,-0.236 -55.735,-0.338c-9.422,0 -17.078,7.656 -17.078,17.078c0.15,22.413 -0.299,37.01 0.366,42.369c-12.068,16.57 -22.299,31.603 -31.489,57.052c-2.371,-6.586 -8.619,-11.328 -16.012,-11.328l-53.832,0c-9.421,0 -17.077,7.656 -17.077,17.077l0,40.282c0,9.421 7.656,17.077 17.077,17.077l53.832,0c1.372,0 2.694,-0.204 3.972,-0.511c-0.107,2.768 -0.335,5.509 -0.335,8.301c0,34.19 8.887,70.658 26.952,102.599l-350.127,0Zm407.277,-269.666c-2.615,1.954 -5.304,3.782 -7.825,5.855c-12.681,10.444 -18.406,17.223 -23.2,22.61l0,-31.717c0,-4.2 3.299,-7.499 7.499,-7.499l39.082,0c-6.488,3.983 -10.11,6.677 -15.56,10.751l0.004,0Zm-80.236,127.399c-1.467,7.699 -2.847,19.339 -2.961,20.613c-4.035,3.157 -3.343,1.022 -58.37,1.69c-4.129,0 -7.502,-3.373 -7.502,-7.502l0,-40.282c0,-4.128 3.373,-7.502 7.502,-7.502l53.832,0c4.129,0 7.499,3.374 7.499,7.502l0,25.481Zm204.914,230.002c-176.119,0 -260.091,-222.676 -120.824,-337.296c56.525,-46.553 137.961,-57.882 206.735,-22.877c64.413,32.582 104.423,97.656 104.423,169.839c0,104.95 -85.379,190.334 -190.334,190.334Z" style="fill:#fff;fill-rule:nonzero;"></path><path d="M772.097,404.663c-91.211,0 -165.408,74.196 -165.408,165.407c0,91.216 74.197,165.412 165.408,165.412c91.274,0 165.53,-74.196 165.53,-165.412c0,-91.211 -74.256,-165.407 -165.53,-165.407Zm0,312.385c-81.05,0 -146.978,-65.927 -146.978,-146.978c0,-81.046 65.928,-146.973 146.978,-146.973c81.109,0 147.096,65.927 147.096,146.973c0,81.051 -65.987,146.978 -147.096,146.978Z" style="fill:#fff;fill-rule:nonzero;"></path><path d="M772.156,465.985c2.654,0 4.789,-2.139 4.789,-4.789l0,-17.738c0,-2.651 -2.135,-4.786 -4.789,-4.786c-2.65,0 -4.785,2.135 -4.785,4.786l0,17.738c0,2.65 2.135,4.789 4.785,4.789Z" style="fill:#fff;fill-rule:nonzero;"></path><path d="M772.156,674.148c-2.65,0 -4.785,2.139 -4.785,4.789l0,17.738c0,2.651 2.135,4.786 4.785,4.786c2.654,0 4.789,-2.135 4.789,-4.786l0,-17.738c0,-2.65 -2.135,-4.789 -4.789,-4.789Z" style="fill:#fff;fill-rule:nonzero;"></path><path d="M713.201,477.841c1.34,2.32 4.29,3.043 6.551,1.75c2.292,-1.318 3.071,-4.259 1.753,-6.551l-8.867,-15.371c-1.321,-2.293 -4.262,-3.048 -6.555,-1.754c-2.292,1.321 -3.071,4.262 -1.75,6.551l8.868,15.375Z" style="fill:#fff;fill-rule:nonzero;"></path><path d="M830.38,661.608c-1.317,-2.292 -4.259,-3.047 -6.551,-1.75c-2.292,1.318 -3.071,4.259 -1.75,6.551l8.867,15.359c1.341,2.32 4.29,3.044 6.551,1.754c2.293,-1.321 3.071,-4.262 1.754,-6.551l-8.871,-15.363Z" style="fill:#fff;fill-rule:nonzero;"></path><path d="M679.419,511.009l-15.371,-8.871c-2.292,-1.306 -5.222,-0.539 -6.551,1.754c-1.321,2.292 -0.543,5.233 1.75,6.551l15.375,8.871c2.261,1.289 5.21,0.566 6.551,-1.754c1.321,-2.293 0.539,-5.234 -1.754,-6.551Z" style="fill:#fff;fill-rule:nonzero;"></path><path d="M883.351,628.755l-15.359,-8.871c-2.293,-1.294 -5.222,-0.539 -6.555,1.753c-1.318,2.293 -0.539,5.23 1.753,6.551l15.359,8.867c2.265,1.294 5.211,0.571 6.551,-1.749c1.322,-2.293 0.543,-5.234 -1.749,-6.551Z" style="fill:#fff;fill-rule:nonzero;"></path><path d="M666.738,569.736c0,-2.65 -2.139,-4.789 -4.79,-4.789l-17.75,0c-2.65,0 -4.785,2.139 -4.785,4.789c0,2.651 2.135,4.79 4.785,4.79l17.75,0c2.651,0 4.79,-2.139 4.79,-4.79Z" style="fill:#fff;fill-rule:nonzero;"></path><path d="M874.9,569.736c0,2.651 2.139,4.79 4.79,4.79l17.738,0c2.65,0 4.785,-2.139 4.785,-4.79c0,-2.65 -2.135,-4.789 -4.785,-4.789l-17.738,0c-2.651,0 -4.79,2.139 -4.79,4.789Z" style="fill:#fff;fill-rule:nonzero;"></path><path d="M673.78,620.391l-15.359,8.867c-2.292,1.317 -3.075,4.258 -1.754,6.551c1.341,2.32 4.29,3.043 6.551,1.754l15.363,-8.871c2.289,-1.318 3.072,-4.259 1.75,-6.551c-1.321,-2.293 -4.246,-3.06 -6.551,-1.75Z" style="fill:#fff;fill-rule:nonzero;"></path><path d="M860.599,518.075c1.341,2.32 4.29,3.044 6.551,1.754l15.359,-8.883c2.293,-1.329 3.071,-4.259 1.754,-6.551c-1.321,-2.293 -4.263,-3.071 -6.551,-1.75l-15.363,8.879c-2.293,1.333 -3.071,4.259 -1.75,6.551Z" style="fill:#fff;fill-rule:nonzero;"></path><path d="M718.312,660.731c-2.28,-1.305 -5.218,-0.539 -6.551,1.754l-8.871,15.359c-1.317,2.293 -0.538,5.234 1.754,6.555c2.265,1.29 5.21,0.566 6.551,-1.754l8.871,-15.359c1.317,-2.292 0.539,-5.234 -1.754,-6.555Z" style="fill:#fff;fill-rule:nonzero;"></path><path d="M828.929,478.714l8.879,-15.371c1.321,-2.293 0.543,-5.218 -1.75,-6.551c-2.292,-1.31 -5.234,-0.539 -6.551,1.75l-8.883,15.374c-1.317,2.293 -0.538,5.218 1.754,6.551c2.261,1.294 5.21,0.567 6.551,-1.753Z" style="fill:#fff;fill-rule:nonzero;"></path><path d="M776.922,548.923l0,-65.467c0,-2.654 -2.135,-4.789 -4.79,-4.789c-2.65,0 -4.789,2.135 -4.789,4.789l0,65.475c-8.085,1.848 -14.435,8.246 -16.268,16.378l-39.77,0c-2.654,0 -4.789,2.135 -4.789,4.789c0,2.65 2.135,4.785 4.789,4.785l39.778,0c2.191,9.623 10.775,16.838 21.049,16.838c11.99,0 21.745,-9.697 21.745,-21.623c0,-10.342 -7.27,-18.985 -16.955,-21.175Zm-4.79,33.223c-6.633,0 -12.048,-5.414 -12.048,-12.048c0,-6.708 5.415,-12.17 12.048,-12.17c6.709,0 12.171,5.462 12.171,12.17c0,6.634 -5.462,12.048 -12.171,12.048Z" style="fill:#fff;fill-rule:nonzero;"></path></g></svg>