<svg xmlns="http://www.w3.org/2000/svg" xmlns:xlink="http://www.w3.org/1999/xlink" xmlns:serif="http://www.serif.com/" width="100%" height="100%" viewBox="0 0 282 188" xml:space="preserve" style="fill-rule:evenodd;clip-rule:evenodd;stroke-linejoin:round;stroke-miterlimit:2;"><path d="M37.809,65.6c-0.475,1.716 -0.819,3.547 -0.819,5.519c0,12.915 10.9,23.825 23.806,23.825c13.141,0 23.825,-10.688 23.825,-23.825c0,-2.016 -0.169,-3.86 -0.506,-5.519l-46.306,0Z" style="fill:none;fill-rule:nonzero;"></path><path d="M195.087,54.2l49.878,0c0.787,0 1.019,-0.075 1.872,-0.638c-0.269,0.144 -0.069,-0.262 -0.069,-0.731c0,-0.544 -0.181,-0.919 -0.306,-1.044c-0.856,0 -1.688,-0.425 -2.322,-1.05c-0.016,-0.015 -0.044,-0.028 -0.063,-0.043c0,0 -0.003,-0.003 -0.003,-0.007c-0.64,-0.659 -1.059,-1.537 -1.059,-2.421c0,-6.532 -2.703,-12.657 -7.303,-17.013l0,15.766c0,1.772 -1.431,3.203 -3.203,3.203l-5.832,0c-1.771,0 -3.203,-1.431 -3.203,-3.203l0,-23.532c-1.997,-0.312 -4.128,-0.381 -6.475,-0.006l0,23.538c0,1.772 -1.431,3.203 -3.203,3.203l-6.231,0c-1.772,0 -3.203,-1.431 -3.203,-3.203l0,-15.641c-4.613,4.45 -7.322,10.538 -7.322,16.888c0,1.584 -1.15,2.896 -2.659,3.159c-0.1,0.1 -0.213,0.212 -0.338,0.337c-0.144,0.144 -0.319,0.519 -0.319,1.069c0,0.556 0.182,0.944 0.3,1.063c0.15,0.15 0.544,0.306 1.063,0.306Z" style="fill:none;fill-rule:nonzero;"></path><path d="M114.631,52.716c-0.494,1.809 -0.732,3.903 -0.732,6.362c0,14.728 11.988,26.709 26.728,26.709c14.741,0 26.735,-11.981 26.735,-26.709c0,-2.122 -0.406,-4.319 -0.919,-6.362l-51.812,0Z" style="fill:none;fill-rule:nonzero;"></path><path d="M197.034,65.6c-0.475,1.722 -0.825,3.553 -0.825,5.519c0,13.14 10.687,23.825 23.825,23.825c13.134,0 23.812,-10.688 23.812,-23.825c0,-2.016 -0.169,-3.86 -0.506,-5.519l-46.306,0Z" style="fill:none;fill-rule:nonzero;"></path><path d="M112.193,41.062c0.038,0.022 0.056,0.022 0.094,0.041c0.203,0.106 0.4,0.203 0.515,0.219l55.257,0c0.325,0 0.831,-0.075 1.468,-0.719c0.682,-0.687 0.738,-1.125 0.738,-1.491c0,-0.918 -0.163,-1.031 -0.225,-1.068c-0.419,-0.282 -0.769,-0.657 -1.019,-1.094c-0.006,0.062 -0.256,-0.044 -0.712,-0.188c-1.319,-0.431 -2.21,-1.659 -2.21,-3.046c0,-7.447 -3.172,-14.404 -8.54,-19.21l0,18.375c0,1.772 -1.432,3.203 -3.203,3.203l-6.663,0c-1.772,0 -3.203,-1.431 -3.203,-3.203l0,-26.415c-2.491,-0.375 -5.275,-0.369 -7.728,-0.007l0,26.422c0,1.772 -1.431,3.203 -3.203,3.203l-6.644,0c-1.772,0 -3.203,-1.431 -3.203,-3.203l0,-18.444c-5.638,4.875 -8.978,11.869 -8.978,19.279c0,1.212 -0.688,2.328 -1.778,2.871c-0.757,0.369 -1.207,0.607 -1.654,1.05c-0.156,0.157 -0.325,0.625 -0.325,1.479c0,0.45 0.144,0.931 0.432,1.465c0.256,0.169 0.534,0.344 0.784,0.481Z" style="fill:none;fill-rule:nonzero;"></path><path d="M35.862,54.2l49.878,0c0.775,0 1.006,-0.075 1.853,-0.631c-0.194,0.081 -0.069,-0.244 -0.069,-0.738c0,-0.544 -0.181,-0.925 -0.306,-1.05c-1.772,0 -3.428,-1.747 -3.428,-3.515c0,-6.538 -2.709,-12.669 -7.322,-17.025l0,15.778c0,1.772 -1.431,3.203 -3.203,3.203l-5.813,0c-1.771,0 -3.203,-1.431 -3.203,-3.203l0,-23.532c-2.003,-0.312 -4.128,-0.381 -6.481,-0.006l0,23.538c0,1.772 -1.431,3.203 -3.203,3.203l-6.231,0c-1.772,0 -3.203,-1.431 -3.203,-3.203l0,-15.641c-4.607,4.456 -7.316,10.538 -7.316,16.888c0,1.584 -1.15,2.896 -2.659,3.159c-0.107,0.1 -0.225,0.225 -0.357,0.356c-0.125,0.125 -0.306,0.5 -0.306,1.05c0,0.556 0.181,0.938 0.306,1.063c0.15,0.15 0.544,0.306 1.063,0.306Z" style="fill:none;fill-rule:nonzero;"></path><path d="M72.721,149.091c3.978,-11.875 8.647,-22.369 13.897,-31.222c-7.728,-6.638 -16.2,-9.872 -25.822,-9.872c-21.781,0 -37.372,16 -47.659,48.903l-6.65,21.197l0.125,0.719c0.606,0.875 2.222,1.778 3.878,1.778l54.378,0c-0.619,-2.753 -0.506,-5.563 0.375,-8.21l7.472,-23.256c0,-0.012 0.006,-0.025 0.006,-0.037Z" style="fill:none;fill-rule:nonzero;"></path><path d="M238.659,112.619c-0.46,-0.253 -0.938,-0.45 -1.4,-0.685c-0.675,-0.337 -1.344,-0.7 -2.038,-0.99c-4.675,-1.978 -9.725,-2.95 -15.187,-2.95c-9.472,0 -18.219,3.384 -25.435,9.822c5.494,9.271 10.263,20.315 13.541,31.384l7.453,23.212c0.906,2.697 1.106,5.519 0.625,8.179l54.534,0c2.06,0 4.054,-1.679 4.066,-2.304l-6.712,-21.384c-7.532,-22.937 -17.104,-37.45 -29.447,-44.284Z" style="fill:none;fill-rule:nonzero;"></path><path d="M193.706,154.016c-0.007,-0.013 -0.013,-0.025 -0.013,-0.038c-0.706,-2.275 -1.431,-4.475 -2.184,-6.606c-9.816,-27.797 -23.657,-43.225 -42.06,-46.844c-2.831,-0.556 -5.772,-0.834 -8.822,-0.834c-24.484,0 -41.481,17.262 -53.496,54.328l-7.057,23.219c-0.231,0.606 -0.25,0.9 0.057,1.35c0.743,1.1 2.703,2.003 4.368,2.003l111.835,0c1.797,0 3.703,-0.813 4.543,-1.941c0.45,-0.612 0.4,-1.062 0.294,-1.422l-7.465,-23.215Z" style="fill:none;fill-rule:nonzero;"></path><path d="M32.987,60.075c0.059,0.022 0.097,0.075 0.153,0.094c-0.325,0.337 -0.581,0.75 -0.738,1.212c-0.9,2.703 -1.821,5.975 -1.821,9.735c0,16.387 13.834,30.234 30.215,30.234c16.669,0 30.235,-13.566 30.235,-30.234c0,-3.641 -0.475,-6.913 -1.413,-9.735c-0.169,-0.5 -0.45,-0.937 -0.812,-1.287c0.003,0 0.006,-0.003 0.009,-0.003c0.937,-0.357 1.85,-0.904 2.944,-1.672c1.384,-1.394 2.178,-3.428 2.178,-5.588c0,-2.159 -0.794,-4.19 -2.185,-5.581c-0.525,-0.525 -1.075,-0.963 -1.64,-1.3c-0.769,-9.969 -6.488,-18.934 -15.297,-23.781c-0.994,-0.544 -2.197,-0.525 -3.178,0.05c-0.388,0.231 -0.719,0.543 -0.975,0.9l0,-2.297c0,-1.528 -1.169,-2.86 -2.672,-3.16c-2.166,-0.431 -4.4,-0.875 -7.191,-0.875c-2.365,0 -4.6,0.444 -6.856,0.894c-1.497,0.294 -2.578,1.616 -2.578,3.141l0,3.109c-0.25,-0.719 -0.75,-1.337 -1.425,-1.734c-0.994,-0.563 -2.216,-0.569 -3.209,0.006c-8.816,5.113 -14.516,14.141 -15.235,23.938c-0.462,0.35 -0.856,0.737 -1.212,1.1c-1.391,1.384 -2.191,3.415 -2.191,5.587c0,2.166 0.794,4.203 2.184,5.594c0.735,0.744 1.675,1.281 2.71,1.653Zm27.809,34.869c-12.906,0 -23.806,-10.913 -23.806,-23.825c0,-1.972 0.344,-3.803 0.819,-5.519l46.306,0c0.337,1.659 0.506,3.503 0.506,5.519c0,13.137 -10.684,23.825 -23.825,23.825Zm-25.997,-43.166c0.132,-0.131 0.25,-0.256 0.357,-0.356c1.509,-0.263 2.659,-1.578 2.659,-3.16c0,-6.35 2.709,-12.431 7.316,-16.887l0,15.641c0,1.771 1.431,3.203 3.203,3.203l6.231,0c1.772,0 3.203,-1.432 3.203,-3.203l0,-23.538c2.353,-0.375 4.481,-0.306 6.481,0.006l0,23.532c0,1.771 1.432,3.203 3.203,3.203l5.813,0c1.772,0 3.203,-1.432 3.203,-3.203l0,-15.779c4.613,4.354 7.322,10.488 7.322,17.025c0,1.772 1.659,3.516 3.428,3.516c0.125,0.125 0.306,0.506 0.306,1.05c0,0.494 -0.125,0.819 0.069,0.738c-0.844,0.556 -1.075,0.631 -1.853,0.631l-49.878,0c-0.519,0 -0.913,-0.156 -1.063,-0.306c-0.125,-0.125 -0.306,-0.507 -0.306,-1.063c0,-0.55 0.181,-0.925 0.306,-1.05Z" style="fill:#fff;fill-rule:nonzero;"></path><path d="M199.812,152.087c-0.756,-2.443 -1.544,-4.812 -2.363,-7.106c-0.059,-0.172 -0.128,-0.325 -0.19,-0.497c-0.76,-2.103 -1.538,-4.159 -2.347,-6.131c-0.35,-0.856 -0.728,-1.644 -1.091,-2.475c-0.54,-1.247 -1.072,-2.522 -1.634,-3.716c-0.075,-0.156 -0.156,-0.296 -0.228,-0.453c-9.347,-19.584 -21.657,-31.753 -36.81,-36.34c-0.109,-0.032 -0.222,-0.05 -0.331,-0.082c-1.422,-0.418 -2.862,-0.787 -4.334,-1.075c-3.169,-0.615 -6.457,-0.925 -9.853,-0.925c-27.288,0 -46.775,19.222 -59.61,58.816l-6.987,23.019c-0.95,2.397 -0.669,4.906 0.793,7.072c1.954,2.878 5.838,4.812 9.672,4.812l111.835,0c3.84,0 7.64,-1.778 9.678,-4.525c1.578,-2.115 2.034,-4.637 1.269,-7.153l-7.469,-23.241Zm1.062,26.566c-0.837,1.125 -2.747,1.941 -4.543,1.941l-111.835,0c-1.665,0 -3.622,-0.9 -4.369,-2.003c-0.306,-0.45 -0.287,-0.744 -0.056,-1.35l7.056,-23.219c12.013,-37.066 29.013,-54.328 53.497,-54.328c3.05,0 5.988,0.278 8.822,0.834c18.403,3.619 32.244,19.047 42.06,46.844c0.753,2.128 1.481,4.331 2.184,6.606c0,0.013 0.006,0.025 0.012,0.038l7.466,23.218c0.106,0.357 0.156,0.807 -0.294,1.419Z" style="fill:#fff;fill-rule:nonzero;"></path><path d="M192.212,60.075c0.059,0.022 0.097,0.075 0.153,0.094c-0.325,0.337 -0.581,0.75 -0.738,1.212c-0.9,2.716 -1.828,5.994 -1.828,9.735c0,16.668 13.566,30.234 30.235,30.234c16.662,0 30.222,-13.566 30.222,-30.234c0,-3.641 -0.475,-6.913 -1.416,-9.735c-0.169,-0.5 -0.45,-0.931 -0.806,-1.281c0.006,-0.003 0.012,-0.009 0.022,-0.013c0.934,-0.356 1.843,-0.9 2.934,-1.665c1.387,-1.391 2.191,-3.428 2.191,-5.594c0,-2.166 -0.8,-4.203 -2.197,-5.587c-0.532,-0.532 -1.082,-0.963 -1.647,-1.294c-0.775,-9.963 -6.475,-18.928 -15.278,-23.775c-1,-0.556 -2.203,-0.531 -3.172,0.044c-0.406,0.237 -0.744,0.556 -1,0.925l0,-2.322c0,-1.528 -1.138,-2.853 -2.641,-3.153c-2.172,-0.432 -4.419,-0.882 -7.209,-0.882c-2.385,0 -4.65,0.45 -6.863,0.894c-1.503,0.3 -2.578,1.616 -2.578,3.141l0,3.109c-0.25,-0.719 -0.75,-1.337 -1.425,-1.734c-0.994,-0.563 -2.215,-0.569 -3.209,0.006c-2.203,1.275 -4.213,2.8 -6,4.516c-5.36,5.153 -8.703,12.071 -9.244,19.415c-0.456,0.35 -0.844,0.738 -1.2,1.094l-0.019,0.019c-0.443,0.44 -0.715,1.037 -1.031,1.597c-0.175,0.312 -0.444,0.553 -0.575,0.893c-0.372,0.953 -0.572,2.003 -0.572,3.088c0,2.172 0.794,4.209 2.178,5.594c0.738,0.75 1.678,1.287 2.713,1.659Zm27.822,34.869c-13.141,0 -23.825,-10.688 -23.825,-23.825c0,-1.966 0.35,-3.797 0.825,-5.519l46.306,0c0.337,1.659 0.506,3.503 0.506,5.519c0,13.137 -10.681,23.825 -23.812,23.825Zm-25.991,-43.185c0.125,-0.125 0.238,-0.237 0.338,-0.337c1.509,-0.263 2.659,-1.578 2.659,-3.16c0,-6.35 2.709,-12.437 7.322,-16.887l0,15.641c0,1.771 1.434,3.203 3.203,3.203l6.231,0c1.772,0 3.203,-1.432 3.203,-3.203l0,-23.538c2.347,-0.375 4.482,-0.306 6.475,0.006l0,23.532c0,1.771 1.432,3.203 3.203,3.203l5.832,0c1.772,0 3.203,-1.432 3.203,-3.203l0,-15.766c4.6,4.353 7.303,10.481 7.303,17.012c0,0.885 0.419,1.763 1.059,2.422c0,0 0.003,0.003 0.003,0.007c0.016,0.015 0.044,0.028 0.063,0.043c0.634,0.628 1.466,1.05 2.322,1.05c0.125,0.125 0.306,0.5 0.306,1.044c0,0.469 -0.2,0.875 0.069,0.731c-0.85,0.563 -1.081,0.638 -1.872,0.638l-49.878,0c-0.519,0 -0.913,-0.156 -1.063,-0.306c-0.118,-0.119 -0.3,-0.507 -0.3,-1.063c0,-0.55 0.175,-0.925 0.319,-1.069Z" style="fill:#fff;fill-rule:nonzero;"></path><path d="M107.24,45.503c0.8,0.541 1.719,1.138 2.747,1.584c0.062,0.029 0.106,0.072 0.169,0.097c-0.313,0.294 -0.569,0.65 -0.75,1.063c-1.288,3.009 -1.916,6.55 -1.916,10.831c0,18.263 14.866,33.119 33.137,33.119c18.275,0 33.144,-14.853 33.144,-33.119c0,-3.753 -0.912,-7.397 -1.803,-10.462c-0.169,-0.575 -0.487,-1.075 -0.906,-1.466c0.05,-0.019 0.094,-0.056 0.14,-0.075c0.085,-0.034 0.16,-0.091 0.241,-0.128c0.947,-0.438 1.841,-1.035 2.641,-1.844c1.722,-1.728 2.59,-3.741 2.59,-5.994c0,-2.584 -0.825,-4.581 -2.465,-5.943c-0.513,-0.7 -1.144,-1.207 -1.772,-1.585c-0.713,-10.937 -6.919,-20.784 -16.544,-26.053c-0.994,-0.544 -2.203,-0.525 -3.172,0.056c-0.975,0.575 -1.572,1.622 -1.572,2.753l0,21.335l-0.256,-25.903c0,-1.528 -1.081,-2.847 -2.578,-3.141c-4.209,-0.837 -11.219,-0.837 -15.384,0c-1.504,0.3 -2.579,1.616 -2.579,3.141l0,25.903l-0.237,-21.335c0,-1.131 -0.594,-2.178 -1.572,-2.753c-0.962,-0.575 -2.178,-0.593 -3.166,-0.056c-9.94,5.425 -16.325,15.359 -17,26.266c-0.512,0.337 -1.05,0.75 -1.603,1.303c-1.465,1.45 -2.209,3.478 -2.209,6.012c0,1.86 0.606,3.71 1.803,5.513c0.228,0.347 0.528,0.644 0.872,0.881Zm33.387,40.288c-14.74,0 -26.728,-11.982 -26.728,-26.71c0,-2.459 0.238,-4.556 0.732,-6.362l51.812,0c0.513,2.047 0.919,4.24 0.919,6.362c0,14.728 -11.994,26.71 -26.735,26.71Zm-29.325,-48.154c0.444,-0.443 0.894,-0.681 1.654,-1.05c1.087,-0.543 1.778,-1.659 1.778,-2.871c0,-7.41 3.34,-14.404 8.978,-19.279l0,18.444c0,1.772 1.431,3.203 3.203,3.203l6.644,0c1.772,0 3.203,-1.431 3.203,-3.203l0,-26.422c2.453,-0.362 5.237,-0.368 7.728,0.007l0,26.415c0,1.772 1.431,3.203 3.203,3.203l6.663,0c1.771,0 3.203,-1.431 3.203,-3.203l0,-18.375c5.368,4.806 8.54,11.763 8.54,19.21c0,1.39 0.888,2.615 2.21,3.046c0.456,0.144 0.706,0.25 0.712,0.188c0.25,0.437 0.6,0.812 1.019,1.094c0.062,0.037 0.225,0.15 0.225,1.068c0,0.363 -0.056,0.8 -0.738,1.491c-0.637,0.644 -1.143,0.719 -1.468,0.719l-55.257,0c-0.118,-0.016 -0.312,-0.113 -0.515,-0.219c-0.038,-0.019 -0.056,-0.019 -0.094,-0.041c-0.247,-0.137 -0.525,-0.312 -0.784,-0.484c-0.288,-0.531 -0.432,-1.012 -0.432,-1.466c0,-0.85 0.169,-1.318 0.325,-1.475Z" style="fill:#fff;fill-rule:nonzero;"></path><path d="M280.868,176.181l-6.644,-21.197c-0.006,-0.012 -0.012,-0.031 -0.018,-0.043c-7.516,-22.9 -21.31,-53.354 -54.172,-53.354c-12.019,0 -23.013,4.638 -31.778,13.416c-1.057,1.056 -1.238,2.697 -0.45,3.959c5.762,9.235 10.806,20.622 14.215,32.129l7.485,23.318c0.912,2.716 0.7,5.563 -0.575,7.803c-0.563,0.988 -0.557,2.21 0.012,3.191c0.575,0.988 1.634,1.597 2.772,1.597l59.041,0c3.49,0 7.253,-1.928 9.159,-4.688c1.359,-1.987 1.678,-4.228 0.953,-6.131Zm-10.119,4.413l-54.534,0c0.481,-2.66 0.281,-5.482 -0.625,-8.178l-7.453,-23.213c-3.278,-11.069 -8.047,-22.112 -13.541,-31.384c7.216,-6.438 15.963,-9.822 25.435,-9.822c5.462,0 10.512,0.972 15.187,2.95c0.694,0.294 1.359,0.653 2.038,0.99c0.465,0.232 0.943,0.429 1.4,0.685c12.343,6.831 21.918,21.347 29.45,44.287l6.712,21.385c-0.012,0.622 -2.009,2.3 -4.069,2.3Z" style="fill:#fff;fill-rule:nonzero;"></path><path d="M71.334,174.381l7.472,-23.25c4.103,-12.275 9.171,-23.394 14.64,-32.165c0.806,-1.288 0.594,-2.972 -0.512,-4.022c-9.478,-8.985 -19.991,-13.353 -32.135,-13.353c-24.603,0 -42.697,17.962 -53.778,53.396l-6.594,21.035c-0.8,2.153 -0.468,4.444 0.925,6.45c1.885,2.709 5.557,4.531 9.141,4.531l59.041,0c1.137,0 2.197,-0.606 2.765,-1.591c0.575,-0.987 0.582,-2.203 0.019,-3.196c-0.847,-1.491 -2.1,-4.482 -0.984,-7.835Zm-6.088,-1.997c-0.881,2.647 -0.994,5.457 -0.375,8.21l-54.381,0c-1.659,0 -3.272,-0.9 -3.878,-1.778l-0.125,-0.719l6.65,-21.197c10.287,-32.906 25.878,-48.903 47.659,-48.903c9.622,0 18.094,3.234 25.822,9.872c-5.25,8.853 -9.919,19.347 -13.897,31.222c0,0.012 -0.006,0.025 -0.006,0.037l-7.469,23.256Z" style="fill:#fff;fill-rule:nonzero;"></path></svg>