<svg xmlns="http://www.w3.org/2000/svg" xmlns:xlink="http://www.w3.org/1999/xlink" xmlns:serif="http://www.serif.com/" width="100%" height="100%" viewBox="0 0 1030 880" xml:space="preserve" style="fill-rule:evenodd;clip-rule:evenodd;stroke-linejoin:round;stroke-miterlimit:2;"><g><path d="M438.804,334.638c39.058,78.12 156.25,279.945 161.459,287.758c3.904,6.512 10.412,9.117 16.924,9.117c6.509,0 13.021,-3.909 16.926,-9.117c5.208,-9.117 122.395,-209.638 161.458,-287.763c3.908,-6.508 28.646,-58.591 31.25,-71.612c3.908,-15.625 5.212,-32.55 5.212,-48.175c0,-118.492 -96.358,-214.846 -214.846,-214.846c-118.487,0 -214.841,96.354 -214.841,214.846c0,15.625 1.3,32.55 5.208,48.175c3.904,11.721 28.642,63.804 31.246,71.617l0.004,0Zm179.692,-295.575c96.354,0 175.779,79.429 175.779,175.783c0,13.021 -1.3,26.042 -3.904,39.062c-1.304,6.509 -18.229,42.967 -27.346,62.496c-29.946,59.9 -108.071,196.617 -143.229,256.513c-35.154,-59.896 -114.584,-196.617 -143.229,-256.513c-9.113,-19.529 -26.042,-55.987 -27.342,-62.5c-2.604,-13.021 -5.208,-26.041 -5.208,-39.062c-1.305,-96.35 76.82,-175.779 174.479,-175.779Z" style="fill:#b8b8b8;fill-rule:nonzero;"></path><path d="M618.492,295.575c44.266,-0.004 80.729,-36.458 80.729,-80.729c0,-44.275 -36.458,-80.729 -80.734,-80.729c-44.27,0 -80.729,36.458 -80.729,80.729c0,44.267 36.459,80.725 80.73,80.725l0.004,0.004Zm0,-121.092c22.137,0 41.671,18.229 41.671,41.667c0,23.437 -18.23,41.667 -41.671,41.667c-23.438,0 -41.667,-19.53 -41.667,-42.967c0,-23.442 18.229,-40.367 41.667,-40.367Z" style="fill:#b8b8b8;fill-rule:nonzero;"></path><path d="M1018.23,230.471c-5.208,-3.908 -10.416,-5.208 -16.929,-3.908l-117.183,28.645c-10.417,2.604 -16.929,13.021 -14.325,23.438c2.604,10.416 13.021,16.929 23.437,14.325l92.446,-23.438l0,486.98l-290.362,72.912l0,-173.175c0,-10.417 -9.117,-19.533 -19.534,-19.533c-10.416,0 -19.529,9.116 -19.529,19.533l0,173.175l-290.367,-72.917l0,-516.925c0,-1.3 0,-1.3 -1.3,-2.604c0,0 0,-1.304 -1.304,-1.304c0,-1.3 -1.3,-1.3 -1.3,-2.604c0,0 0,-1.3 -1.304,-1.3c0,-1.304 -1.3,-1.304 -1.3,-1.304c-1.304,0 -1.304,-1.3 -2.604,-1.3l-1.304,0c-1.3,0 -2.604,-1.304 -3.904,-1.304l-7.813,0l-329.429,82.033c-9.113,2.604 -14.321,10.417 -14.321,19.529l0,527.346c0,6.508 2.604,11.721 7.813,15.625c3.904,2.604 7.812,3.904 11.716,3.904l5.209,0l325.52,-80.729l325.521,80.729l9.117,0l329.425,-82.029c9.117,-2.604 14.325,-10.417 14.325,-19.533l0,-529.946c-2.604,-5.209 -5.208,-11.721 -10.417,-14.325l0,0.004Zm-981.771,111.979l290.363,-72.917l0,486.98l-290.363,72.916l0,-486.979Z" style="fill:#b8b8b8;fill-rule:nonzero;"></path></g></svg>