<svg xmlns="http://www.w3.org/2000/svg" xmlns:xlink="http://www.w3.org/1999/xlink" xmlns:serif="http://www.serif.com/" width="100%" height="100%" viewBox="0 0 809 809" xml:space="preserve" style="fill-rule:evenodd;clip-rule:evenodd;stroke-linejoin:round;stroke-miterlimit:2;"><path d="M652.996,619.921l-2.996,-1.954c-10.287,-7.03 -56.642,-37.238 -87.242,-57.292c-13.02,-8.592 -23.958,-15.492 -27.991,-18.229c-29.592,-18.767 -69.2,-11.05 -89.584,17.45l-3.645,4.558c-11.459,14.321 -23.309,29.296 -42.321,30.338c-27.084,1.691 -65.104,-22.659 -114.321,-71.875c-49.221,-49.221 -73.438,-87.763 -72.004,-114.325c1.171,-19.138 16.012,-30.988 30.337,-42.446l4.167,-4.167c28.321,-20.496 35.754,-60.083 16.796,-89.454l-17.188,-26.042c-20.441,-31.121 -51.171,-78.125 -58.204,-88.8l-1.95,-2.866c-10.55,-15.625 -27.996,-41.667 -65.104,-36.33c-25.521,3.259 -121.746,53.259 -121.746,161.85c0,94.4 69.008,217.45 189.321,337.763c120.312,120.312 243.1,189.192 337.5,189.192c108.596,0 158.725,-96.355 162.371,-122.267c5.337,-37.108 -20.705,-54.688 -36.196,-65.104Zm10.416,61.458c-2.866,20.313 -46.225,99.871 -136.587,99.871c-87.5,0 -203.908,-66.146 -319.271,-182.292c-115.367,-116.145 -181.512,-231.12 -181.512,-318.62c0.47,-62.221 40.791,-117.575 99.87,-137.109l5.6,0c15.755,0 24.217,10.679 34.242,26.042l2.083,2.996c6.905,10.154 37.5,57.291 57.813,88.412l17.321,26.042c11.496,18.35 6.4,42.833 -11.459,55.075l-4.429,3.517c-16.146,13.02 -39.062,30.47 -40.104,61.2c-2.083,35.416 23.179,78.125 79.429,134.241c56.25,56.121 99.088,81.642 134.242,79.558c30.729,-1.824 48.437,-23.958 61.329,-40.233l3.517,-4.429c12.254,-18.012 36.933,-23.125 55.337,-11.458l27.996,18.358c30.6,19.925 76.821,50 86.85,56.904l3.125,2.084c16.013,11.066 27.471,20.312 25.258,39.841l-0.65,0Z" style="fill:#b8b8b8;fill-rule:nonzero;"></path><path d="M377.604,0l0,26.042c221.434,0 403.646,182.212 403.646,403.646l26.042,0c0,-235.721 -193.967,-429.688 -429.688,-429.688Z" style="fill:#b8b8b8;fill-rule:nonzero;"></path><path d="M651.042,429.688l26.041,0c0,-164.288 -135.191,-299.48 -299.479,-299.48l0,26.042c150.004,0 273.438,123.433 273.438,273.438Z" style="fill:#b8b8b8;fill-rule:nonzero;"></path><path d="M507.813,429.688l26.041,0c0,-85.717 -70.533,-156.25 -156.25,-156.25l0,26.041c71.429,0 130.209,58.779 130.209,130.209Z" style="fill:#b8b8b8;fill-rule:nonzero;"></path></svg>