<?xml version="1.0" encoding="UTF-8"?>
<!DOCTYPE svg PUBLIC "-//W3C//DTD SVG 1.1//EN" "http://www.w3.org/Graphics/SVG/1.1/DTD/svg11.dtd">
<!-- Creator: CorelDRAW X6 -->
<svg xmlns="http://www.w3.org/2000/svg" xml:space="preserve" width="209.926mm" height="61.153mm" version="1.1" style="shape-rendering:geometricPrecision; text-rendering:geometricPrecision; image-rendering:optimizeQuality; fill-rule:evenodd; clip-rule:evenodd"
viewBox="0 0 20993 6115"
 xmlns:xlink="http://www.w3.org/1999/xlink">
 <defs>
  <style type="text/css">
   <![CDATA[
    .fil2 {fill:#EF973F}
    .fil3 {fill:#B8B8B8;fill-rule:nonzero}
    .fil1 {fill:#EF973F;fill-rule:nonzero}
    .fil0 {fill:url(#id0);fill-rule:nonzero}
   ]]>
  </style>
  <linearGradient id="id0" gradientUnits="userSpaceOnUse" x1="-0" y1="3057.65" x2="6115.3" y2="3057.65">
   <stop offset="0" style="stop-color:#EF9D20"/>
   <stop offset="0.231373" style="stop-color:#EF9D20"/>
   <stop offset="0.811765" style="stop-color:#6D4524"/>
   <stop offset="1" style="stop-color:#6D4524"/>
  </linearGradient>
 </defs>
 <g id="Слой_x0020_1">
  <metadata id="CorelCorpID_0Corel-Layer"/>
  <g id="_705643936">
   <path class="fil0" d="M0 3058c0,1686 1372,3057 3058,3057 1686,0 3057,-1371 3057,-3057 0,-1686 -1371,-3058 -3057,-3058 -1686,0 -3058,1372 -3058,3058l0 0zm1041 0c0,-1112 905,-2017 2017,-2017 150,0 297,17 438,49l-345 605c-31,-2 -62,-4 -93,-4 -754,0 -1367,613 -1367,1367 0,287 90,554 242,774l-345 605c-339,-361 -547,-846 -547,-1379zm2204 -236l1158 0c-68,-392 -304,-726 -630,-928 107,-188 215,-377 322,-565 586,353 979,996 979,1729 0,1112 -904,2016 -2016,2016 -347,0 -673,-88 -958,-242 107,-189 214,-377 322,-566 190,101 406,158 636,158 608,0 1125,-400 1301,-952l-1485 0c124,-216 247,-433 371,-650z"/>
   <g>
    <polygon class="fil1" points="8209,212 9272,212 9272,379 8418,379 8418,1613 9120,1613 9120,1772 8418,1772 8418,3124 9284,3124 9284,3287 8209,3287 8209,212 "/>
    <polygon class="fil1" points="9914,212 10119,212 10119,3124 11049,3124 11049,3287 9914,3287 "/>
    <polygon class="fil1" points="11539,212 11744,212 11744,3124 12674,3124 12674,3287 11539,3287 "/>
    <polygon class="fil2" points="13168,3287 13373,3287 13373,212 13168,212 "/>
    <polygon class="fil1" points="13988,3124 15093,375 14087,375 14087,212 15317,212 15317,341 14201,3124 15321,3124 15321,3288 13988,3288 13988,3124 "/>
    <polygon class="fil2" points="15890,3287 16095,3287 16095,212 15890,212 "/>
    <path class="fil1" d="M17012 3128c-115,-134 -172,-321 -172,-562l0 -2354 205 0 0 2358c0,187 41,332 125,435 84,102 229,153 437,153 197,0 340,-53 429,-159 88,-106 133,-249 133,-429l0 -2358 201 0 0 2354c0,235 -60,422 -179,558 -119,137 -313,205 -584,205 -281,0 -479,-67 -595,-201m0 0l0 0 0 0z"/>
    <polygon class="fil1" points="19164,212 19369,212 20018,2988 20679,212 20891,212 20979,3287 20800,3287 20724,709 20098,3287 19946,3287 19327,713 19251,3287 19072,3287 19164,212 "/>
   </g>
   <path class="fil3" d="M8431 4020c75,0 135,18 177,54 43,36 65,86 65,149 0,63 -22,112 -65,148 -42,36 -102,54 -177,54l-159 0 0 187 -63 0 0 -592 222 0zm-2 350c59,0 104,-13 135,-39 31,-25 46,-61 46,-108 0,-48 -15,-85 -46,-111 -31,-25 -76,-38 -135,-38l-157 0 0 296 157 0zm791 188l0 54 -419 0 0 -592 407 0 0 54 -344 0 0 210 306 0 0 54 -306 0 0 220 356 0zm755 -538l0 592 -60 0 0 -474 -233 399 -30 0 -233 -396 0 471 -60 0 0 -592 52 0 257 439 255 -439 52 0zm459 597c-58,0 -112,-13 -159,-39 -48,-26 -85,-62 -112,-108 -27,-46 -40,-97 -40,-154 0,-57 13,-109 40,-154 27,-46 64,-82 112,-108 47,-26 101,-40 159,-40 59,0 112,13 159,39 47,26 84,62 111,108 27,46 41,98 41,155 0,57 -14,108 -41,154 -27,46 -64,82 -111,108 -47,26 -100,39 -159,39zm0 -56c47,0 89,-10 127,-31 38,-22 68,-51 89,-88 22,-38 32,-80 32,-126 0,-46 -10,-88 -32,-126 -21,-37 -51,-67 -89,-88 -38,-21 -80,-32 -127,-32 -47,0 -89,11 -127,32 -38,21 -68,51 -90,88 -22,38 -32,80 -32,126 0,46 10,88 32,126 22,37 52,66 90,88 38,21 80,31 127,31zm956 -541l0 592 -62 0 0 -273 -371 0 0 273 -62 0 0 -592 62 0 0 264 371 0 0 -264 62 0zm587 54l-208 0 0 538 -62 0 0 -538 -208 0 0 -54 478 0 0 54zm605 -54l0 592 -61 0 0 -273 -371 0 0 273 -63 0 0 -592 63 0 0 264 371 0 0 -264 61 0zm460 597c-59,0 -112,-13 -159,-39 -48,-26 -85,-62 -112,-108 -27,-46 -40,-97 -40,-154 0,-57 13,-109 40,-154 27,-46 64,-82 112,-108 47,-26 100,-40 159,-40 59,0 112,13 159,39 47,26 84,62 111,108 27,46 41,98 41,155 0,57 -14,108 -41,154 -27,46 -64,82 -111,108 -47,26 -100,39 -159,39zm0 -56c47,0 89,-10 127,-31 38,-22 67,-51 89,-88 21,-38 32,-80 32,-126 0,-46 -11,-88 -32,-126 -22,-37 -51,-67 -89,-88 -38,-21 -80,-32 -127,-32 -47,0 -89,11 -127,32 -38,21 -68,51 -90,88 -22,38 -33,80 -33,126 0,46 11,88 33,126 22,37 52,66 90,88 38,21 80,31 127,31zm418 -205l222 0 0 53 -222 0 0 -53zm638 261c-58,0 -111,-13 -158,-39 -47,-26 -84,-62 -111,-108 -27,-46 -40,-97 -40,-154 0,-57 13,-109 40,-155 27,-46 64,-82 111,-108 48,-26 101,-39 159,-39 44,0 85,8 122,22 37,15 69,37 95,65l-40 40c-46,-47 -105,-71 -175,-71 -47,0 -89,11 -128,33 -38,21 -68,50 -90,88 -22,37 -33,79 -33,125 0,46 11,88 33,125 22,37 52,67 90,88 39,22 81,32 128,32 71,0 129,-23 175,-71l40 40c-26,28 -58,50 -95,65 -38,15 -79,22 -123,22zm727 -543l-208 0 0 538 -62 0 0 -538 -208 0 0 -54 478 0 0 54zm332 -54c76,0 135,18 178,54 43,36 64,86 64,149 0,63 -21,112 -64,148 -43,36 -102,54 -178,54l-159 0 0 187 -62 0 0 -592 221 0zm-1 350c58,0 103,-13 134,-39 31,-25 47,-61 47,-108 0,-48 -16,-85 -47,-111 -31,-25 -76,-38 -134,-38l-158 0 0 296 158 0zm640 247c-58,0 -112,-13 -159,-39 -48,-26 -85,-62 -112,-108 -27,-46 -40,-97 -40,-154 0,-57 13,-109 40,-154 27,-46 64,-82 112,-108 47,-26 101,-40 159,-40 59,0 112,13 159,39 47,26 84,62 111,108 27,46 41,98 41,155 0,57 -14,108 -41,154 -27,46 -64,82 -111,108 -47,26 -100,39 -159,39zm0 -56c47,0 90,-10 127,-31 38,-22 68,-51 89,-88 22,-38 32,-80 32,-126 0,-46 -10,-88 -32,-126 -21,-37 -51,-67 -89,-88 -37,-21 -80,-32 -127,-32 -46,0 -89,11 -127,32 -38,21 -68,51 -90,88 -21,38 -32,80 -32,126 0,46 11,88 32,126 22,37 52,66 90,88 38,21 81,31 127,31zm461 -541l62 0 0 490 379 -490 57 0 0 592 -62 0 0 -490 -379 490 -57 0 0 -592zm1085 54l-208 0 0 538 -62 0 0 -538 -208 0 0 -54 478 0 0 54zm529 484l0 54 -419 0 0 -592 406 0 0 54 -343 0 0 210 306 0 0 54 -306 0 0 220 356 0zm603 -538l0 592 -61 0 0 -538 -286 0 -7 198c-3,82 -10,148 -20,197 -11,50 -26,88 -48,112 -21,25 -50,37 -85,37 -16,0 -31,-2 -48,-6l5 -56c10,2 19,4 28,4 25,0 45,-10 61,-30 15,-20 27,-50 35,-92 8,-41 13,-96 16,-165l8 -253 402 0zm448 211c70,0 124,16 161,48 37,31 55,77 55,138 0,64 -20,113 -59,146 -39,33 -96,49 -169,49l-236 0 0 -592 62 0 0 211 186 0zm-14 331c55,0 96,-12 125,-36 28,-25 42,-60 42,-108 0,-91 -55,-136 -167,-136l-172 0 0 280 172 0zm862 -542l0 592 -61 0 0 -273 -371 0 0 273 -63 0 0 -592 63 0 0 264 371 0 0 -264 61 0zm579 434l-330 0 -71 158 -65 0 271 -592 62 0 270 592 -66 0 -71 -158zm-23 -51l-142 -318 -142 318 284 0zm667 -383l0 592 -62 0 0 -179 -177 0c-8,0 -19,-1 -34,-2l-124 181 -67 0 134 -192c-43,-13 -76,-36 -100,-69 -23,-33 -34,-74 -34,-122 0,-66 21,-118 63,-154 42,-37 99,-55 170,-55l231 0zm-402 208c0,48 15,86 43,112 29,26 70,39 125,39l172 0 0 -305 -166 0c-55,0 -98,13 -128,39 -31,26 -46,65 -46,115zm-12186 1418l-135 0 0 271 -61 0 0 -592 61 0 0 266 135 0 201 -266 68 0 -220 288 232 304 -72 0 -209 -271zm637 276c-59,0 -112,-13 -160,-39 -47,-26 -85,-62 -111,-108 -27,-46 -41,-97 -41,-154 0,-57 14,-108 41,-154 26,-46 64,-82 111,-108 48,-26 101,-39 160,-39 59,0 111,13 159,39 47,26 84,62 111,108 27,46 40,97 40,154 0,57 -13,109 -40,154 -27,46 -64,82 -111,108 -48,26 -100,39 -159,39zm0 -56c47,0 89,-10 127,-31 38,-21 67,-51 89,-88 21,-38 32,-80 32,-126 0,-46 -11,-88 -32,-126 -22,-37 -51,-67 -89,-88 -38,-21 -80,-31 -127,-31 -47,0 -89,10 -128,31 -38,21 -68,51 -89,88 -22,38 -33,80 -33,126 0,46 11,88 33,126 21,37 51,67 89,88 39,21 81,31 128,31zm1076 -541l0 592 -60 0 0 -474 -233 399 -30 0 -233 -396 0 471 -60 0 0 -592 52 0 257 439 255 -439 52 0zm698 0l0 592 -62 0 0 -538 -375 0 0 538 -62 0 0 -592 499 0zm579 434l-330 0 -71 158 -65 0 270 -592 62 0 271 592 -66 0 -71 -158zm-23 -51l-142 -318 -142 318 284 0zm769 -383l0 592 -62 0 0 -273 -371 0 0 273 -63 0 0 -592 63 0 0 264 371 0 0 -264 62 0zm199 0l62 0 0 491 379 -491 57 0 0 592 -62 0 0 -490 -379 490 -57 0 0 -592zm1118 0l0 592 -62 0 0 -179 -177 0c-8,0 -19,-1 -34,-2l-124 181 -67 0 134 -192c-43,-13 -76,-36 -99,-69 -24,-33 -35,-73 -35,-121 0,-67 21,-119 63,-155 42,-37 99,-55 170,-55l231 0zm-402 208c0,49 15,86 43,112 29,26 70,40 125,40l172 0 0 -306 -166 0c-55,0 -98,13 -128,39 -30,27 -46,65 -46,115z"/>
  </g>
 </g>
</svg>
