<svg xmlns="http://www.w3.org/2000/svg" xmlns:xlink="http://www.w3.org/1999/xlink" xmlns:serif="http://www.serif.com/" width="100%" height="100%" viewBox="0 0 2117 2117" xml:space="preserve" style="fill-rule:evenodd;clip-rule:evenodd;stroke-linejoin:round;stroke-miterlimit:2;"><g><g><path d="M1570.42,34.167l0,68.333l122.5,0l-702.917,702.917l-341.25,-341.667l-433.75,433.75l47.917,48.333l385.833,-385.416l341.25,341.25l751.25,-750.834l0,122.084l68.333,0l0,-238.75l-239.166,0Z" style="fill:#fff;fill-rule:nonzero;"></path></g></g><g><g><path d="M2048.33,2014.17l0,-1502.08l-341.25,0l0,1502.08l-68.333,0l0,-1297.08l-341.25,0l0,1297.5l-68.333,0l0,-819.583l-341.667,0l0,819.167l-68.333,0l0,-1024.17l-341.25,0l0,1024.17l-68.334,0l0,-477.917l-341.25,0l0,477.917l-68.333,0l0,68.333l2116.67,0l0,-68.333l-68.334,0Zm-1706.67,0l-205,0l0,-409.584l205,0l0,409.584Zm409.583,0l-205,0l0,-955.834l205,0l0,955.834Zm409.583,0.416l-205,0l0,-751.25l205,0l0,751.25Zm409.584,0l-205,0l0,-1229.17l205,0l0,1229.17Zm410,-0.416l-205,0l0,-1433.75l205,0l0,1433.75Z" style="fill:#fff;fill-rule:nonzero;"></path></g></g></svg>