<svg xmlns="http://www.w3.org/2000/svg" xmlns:xlink="http://www.w3.org/1999/xlink" xmlns:serif="http://www.serif.com/" width="100%" height="100%" viewBox="0 0 188 160" xml:space="preserve" style="fill-rule:evenodd;clip-rule:evenodd;stroke-linejoin:round;stroke-miterlimit:2;"><path d="M93.75,112.5c-22.286,0 -40.625,-18.339 -40.625,-40.625l0,-34.938l13.438,-36.937l54.375,0l13.437,36.938l0,34.937c0,22.286 -18.339,40.625 -40.625,40.625Zm-34.375,-74.438l0,33.813c0,18.858 15.517,34.375 34.375,34.375c18.858,0 34.375,-15.517 34.375,-34.375l0,-33.813l-11.563,-31.812l-45.625,0l-11.562,31.813Z" style="fill:#fff;fill-rule:nonzero;"></path><path d="M184.375,84.375c-1.714,0 -3.125,-1.411 -3.125,-3.125l0,-37.5c0,-1.714 1.411,-3.125 3.125,-3.125c1.714,0 3.125,1.411 3.125,3.125l0,37.5c0,1.714 -1.411,3.125 -3.125,3.125Z" style="fill:#fff;fill-rule:nonzero;"></path><path d="M184.375,78.125c-0.83,0.005 -1.629,-0.322 -2.219,-0.906l-14.687,-14.719l14.687,-14.719c0.588,-0.588 1.387,-0.919 2.219,-0.919c1.721,0 3.138,1.417 3.138,3.138c0,0.832 -0.331,1.631 -0.919,2.219l-10.313,10.281l10.313,10.281c0.591,0.587 0.924,1.386 0.924,2.219c0,0.833 -0.333,1.632 -0.924,2.219c-0.59,0.584 -1.389,0.911 -2.219,0.906Z" style="fill:#fff;fill-rule:nonzero;"></path><path d="M171.875,65.625l-6.25,0c-1.714,0 -3.125,-1.411 -3.125,-3.125c0,-1.714 1.411,-3.125 3.125,-3.125l6.25,0c1.714,0 3.125,1.411 3.125,3.125c0,1.714 -1.411,3.125 -3.125,3.125Z" style="fill:#fff;fill-rule:nonzero;"></path><path d="M143.75,65.625l-12.5,0c-1.714,0 -3.125,-1.411 -3.125,-3.125c0,-1.714 1.411,-3.125 3.125,-3.125l12.5,0c1.714,0 3.125,1.411 3.125,3.125c0,1.714 -1.411,3.125 -3.125,3.125Z" style="fill:#fff;fill-rule:nonzero;"></path><path d="M56.25,65.625l-12.5,0c-1.714,0 -3.125,-1.411 -3.125,-3.125c0,-1.714 1.411,-3.125 3.125,-3.125l12.5,0c1.714,0 3.125,1.411 3.125,3.125c0,1.714 -1.411,3.125 -3.125,3.125Z" style="fill:#fff;fill-rule:nonzero;"></path><path d="M165.625,137.5l-17.906,0l-0.844,-0.781c-3.574,-3.087 -8.926,-3.087 -12.5,0l-0.906,0.781l-92,0l-0.844,-0.781c-3.574,-3.087 -8.926,-3.087 -12.5,0l-0.906,0.781l-27.219,0l0,-81.906l10.438,-24.344l33.312,0l0,84.375l100,0l0,-65.625l21.875,0l0,87.5Zm-15.625,-6.25l9.375,0l0,-75l-9.375,0l0,65.625l-112.5,0l0,-84.375l-22.938,0l-8.312,19.406l0,74.344l18.75,0c5.574,-4.055 13.176,-4.055 18.75,0l87.5,0c5.574,-4.055 13.176,-4.055 18.75,0Z" style="fill:#fff;fill-rule:nonzero;"></path><path d="M131.25,40.625l-75,0c-1.714,0 -3.125,-1.411 -3.125,-3.125c0,-1.714 1.411,-3.125 3.125,-3.125l75,0c1.714,0 3.125,1.411 3.125,3.125c0,1.714 -1.411,3.125 -3.125,3.125Z" style="fill:#fff;fill-rule:nonzero;"></path><path d="M131.25,78.125l-75,0c-1.714,0 -3.125,-1.411 -3.125,-3.125c0,-1.714 1.411,-3.125 3.125,-3.125l75,0c1.714,0 3.125,1.411 3.125,3.125c0,1.714 -1.411,3.125 -3.125,3.125Z" style="fill:#fff;fill-rule:nonzero;"></path><path d="M121.875,6.25l-56.25,0c-1.714,0 -3.125,-1.411 -3.125,-3.125c0,-1.714 1.411,-3.125 3.125,-3.125l56.25,0c1.714,0 3.125,1.411 3.125,3.125c0,1.714 -1.411,3.125 -3.125,3.125Z" style="fill:#fff;fill-rule:nonzero;"></path><path d="M34.375,159.375c-8.563,-0.012 -15.603,-7.062 -15.603,-15.625c0,-4.482 1.929,-8.754 5.29,-11.719c5.929,-5.014 14.697,-5.014 20.625,0c3.362,2.965 5.291,7.237 5.291,11.719c0,8.563 -7.04,15.613 -15.603,15.625Zm0,-25c-2.3,-0.012 -4.525,0.823 -6.25,2.344c-1.987,1.777 -3.125,4.321 -3.125,6.987c0,5.143 4.232,9.375 9.375,9.375c5.143,0 9.375,-4.232 9.375,-9.375c0,-2.666 -1.138,-5.21 -3.125,-6.987c-1.725,-1.521 -3.95,-2.356 -6.25,-2.344Z" style="fill:#fff;fill-rule:nonzero;"></path><path d="M140.625,159.375c-8.563,-0.012 -15.603,-7.062 -15.603,-15.625c0,-4.482 1.929,-8.754 5.29,-11.719c5.929,-5.014 14.697,-5.014 20.625,0c3.362,2.965 5.291,7.237 5.291,11.719c0,8.563 -7.04,15.613 -15.603,15.625Zm0,-25c-2.3,-0.012 -4.525,0.823 -6.25,2.344c-1.987,1.777 -3.125,4.321 -3.125,6.987c0,5.143 4.232,9.375 9.375,9.375c5.143,0 9.375,-4.232 9.375,-9.375c0,-2.666 -1.138,-5.21 -3.125,-6.987c-1.725,-1.521 -3.95,-2.356 -6.25,-2.344Z" style="fill:#fff;fill-rule:nonzero;"></path><rect x="15.625" y="109.375" width="15.625" height="6.25" style="fill:#fff;"></rect><rect x="15.625" y="96.875" width="15.625" height="6.25" style="fill:#fff;"></rect><rect x="15.625" y="84.375" width="15.625" height="6.25" style="fill:#fff;"></rect></svg>