<svg xmlns="http://www.w3.org/2000/svg" xmlns:xlink="http://www.w3.org/1999/xlink" xmlns:serif="http://www.serif.com/" width="100%" height="100%" viewBox="0 0 270 254" xml:space="preserve" style="fill-rule:evenodd;clip-rule:evenodd;stroke-linejoin:round;stroke-miterlimit:2;"><path d="M126.563,53.516c-2.588,0 -4.688,2.098 -4.688,4.687l0,66.306l-39.694,36.602c-1.905,1.755 -2.024,4.72 -0.269,6.623c0.925,1.002 2.182,1.51 3.446,1.51c1.138,0 2.276,-0.41 3.177,-1.242l41.204,-37.994c0.965,-0.887 1.511,-2.136 1.511,-3.445l0,-68.36c0,-2.589 -2.1,-4.687 -4.688,-4.687Z" style="fill:#fff;fill-rule:nonzero;"></path><path d="M126.563,253.125c2.587,0 4.687,-2.098 4.687,-4.688l0,-21.875c0,-2.589 -2.1,-4.687 -4.688,-4.687c-52.554,0 -95.312,-42.757 -95.312,-95.313c0,-52.555 42.758,-95.312 95.313,-95.312c50.396,0 91.256,38.22 95.031,87.875l-11.032,0c-1.813,0 -3.467,1.047 -4.239,2.687c-0.775,1.642 -0.531,3.582 0.623,4.982l26.938,32.688c1.776,2.16 5.456,2.16 7.232,0l26.935,-32.688c1.154,-1.4 1.398,-3.34 0.623,-4.982c-0.772,-1.64 -2.426,-2.687 -4.239,-2.687l-11.53,0c-3.863,-66.096 -59.598,-119.125 -126.342,-119.125c-69.788,0 -126.563,56.776 -126.563,126.563c0,69.786 56.775,126.562 126.563,126.562Zm0,-243.75c63.223,0 115.78,51.382 117.153,114.54c0.058,2.548 2.14,4.585 4.688,4.585l6.094,0l-16.998,20.629l-17.001,-20.629l6.03,0c1.266,0 2.478,-0.511 3.36,-1.419c0.882,-0.906 1.361,-2.131 1.324,-3.396c-1.553,-57.09 -47.522,-101.81 -104.65,-101.81c-57.724,0 -104.688,46.962 -104.688,104.688c0,56.153 44.443,102.122 100,104.583l0,12.511c-62.454,-2.469 -112.5,-54.047 -112.5,-117.094c0,-64.618 52.57,-117.188 117.188,-117.188Z" style="fill:#fff;fill-rule:nonzero;"></path><path d="M169.196,248.344c9.741,0 17.663,-7.923 17.663,-17.663c0,-9.738 -7.922,-17.662 -17.663,-17.662c-9.742,0 -17.664,7.924 -17.664,17.662c0,9.74 7.922,17.663 17.664,17.663Zm0,-25.95c4.571,0 8.288,3.717 8.288,8.287c0,4.57 -3.717,8.288 -8.288,8.288c-4.572,0 -8.289,-3.718 -8.289,-8.288c0,-4.57 3.717,-8.287 8.289,-8.287Z" style="fill:#fff;fill-rule:nonzero;"></path><path d="M215.125,213.651c2.957,0 5.953,-0.742 8.7,-2.306c8.466,-4.816 11.438,-15.621 6.622,-24.086c-4.815,-8.466 -15.628,-11.437 -24.084,-6.621c-8.466,4.816 -11.438,15.621 -6.622,24.086c3.25,5.716 9.234,8.927 15.384,8.927Zm-4.13,-24.865c3.974,-2.255 9.043,-0.863 11.304,3.109c2.258,3.971 0.864,9.042 -3.106,11.302c-3.98,2.263 -9.046,0.863 -11.304,-3.108c-2.259,-3.972 -0.864,-9.043 3.106,-11.303Z" style="fill:#fff;fill-rule:nonzero;"></path></svg>