<svg xmlns="http://www.w3.org/2000/svg" xmlns:xlink="http://www.w3.org/1999/xlink" xmlns:serif="http://www.serif.com/" width="100%" height="100%" viewBox="0 0 255 187" xml:space="preserve" style="fill-rule:evenodd;clip-rule:evenodd;stroke-linejoin:round;stroke-miterlimit:2;"><path d="M247.306,166.619l-6.044,-16.538l0.004,0l-7.119,-19.478l0.003,0l-1.981,-5.416l-5.844,-15.993l0.006,0.006l-16.465,-45.041l0.003,0l-4.991,-13.656l-18.453,-50.497l-76.787,0l0,-0.006l-41.585,0l-6.237,17.069l-7.038,19.262l-7.05,19.291l-1.978,5.416l-0.003,0l-9.35,25.59l0,-0.003l-12.95,35.441l-0.006,0l-9.888,27.05l-13.553,37.1l167.519,0l0,0.006l86.95,0l-7.163,-19.603Zm-17.118,-37.738c-1.05,0.444 -2.119,0.885 -3.182,1.332c-1.212,0.503 -2.409,1.006 -3.637,1.512c-1.516,0.625 -3.06,1.25 -4.603,1.878c-1.003,0.406 -1.994,0.816 -3.007,1.222c-2.009,0.809 -4.053,1.622 -6.103,2.428c-0.587,0.231 -1.156,0.463 -1.747,0.697c-5.356,2.103 -10.84,4.209 -16.446,6.316c-0.741,0.278 -1.497,0.556 -2.241,0.834c-2.041,0.759 -4.084,1.522 -6.156,2.281c-1.194,0.441 -2.41,0.875 -3.61,1.313c-1.622,0.59 -3.237,1.181 -4.878,1.769c-1.553,0.559 -3.125,1.115 -4.694,1.671c-1.078,0.385 -2.15,0.766 -3.234,1.15l-0.959,-7.871l-1.025,-8.416c1.903,-0.716 3.784,-1.438 5.665,-2.156c0.5,-0.194 1.007,-0.382 1.507,-0.575c2.312,-0.888 4.603,-1.778 6.875,-2.669c0.321,-0.125 0.646,-0.25 0.968,-0.375c5.128,-2.019 10.147,-4.031 15.016,-6.034l34.137,0l1.354,3.693Zm-150.313,-18.3c-0.25,-0.928 -0.512,-1.856 -0.753,-2.787c-0.553,-2.138 -1.072,-4.272 -1.578,-6.41c-0.078,-0.334 -0.169,-0.671 -0.25,-1.009c-0.578,-2.475 -1.125,-4.95 -1.641,-7.428c-0.159,-0.769 -0.3,-1.538 -0.453,-2.303c-0.344,-1.713 -0.691,-3.425 -1.006,-5.138c-0.172,-0.94 -0.325,-1.881 -0.488,-2.819c-0.268,-1.54 -0.54,-3.081 -0.784,-4.618c-0.163,-1.016 -0.303,-2.032 -0.453,-3.047c-0.216,-1.456 -0.438,-2.913 -0.631,-4.366c-0.144,-1.065 -0.266,-2.131 -0.397,-3.194c-0.135,-1.103 -0.269,-2.203 -0.391,-3.303l14.013,0c0.315,1.685 0.681,3.375 1.028,5.066c0.25,1.212 0.475,2.422 0.737,3.638c0.444,2.037 0.931,4.078 1.419,6.118c0.259,1.1 0.497,2.194 0.769,3.294c0.643,2.594 1.337,5.181 2.043,7.772c0.15,0.547 0.282,1.094 0.435,1.637c0.859,3.072 1.762,6.138 2.709,9.197l-1.831,15.038l-0.75,6.147l-8.459,0c-0.382,-1.238 -0.741,-2.479 -1.107,-3.716c-0.306,-1.044 -0.625,-2.088 -0.922,-3.134c-0.437,-1.547 -0.846,-3.091 -1.259,-4.635Zm0.009,11.482l-18.431,0c-0.287,-1.254 -0.559,-2.513 -0.831,-3.769c-0.216,-0.997 -0.444,-2 -0.65,-3c-0.328,-1.6 -0.628,-3.197 -0.931,-4.797c-0.166,-0.872 -0.344,-1.744 -0.503,-2.616c-0.363,-2.003 -0.691,-4.003 -1.013,-6.006c-0.075,-0.472 -0.166,-0.95 -0.241,-1.422c-0.387,-2.487 -0.743,-4.972 -1.068,-7.459c-0.072,-0.56 -0.132,-1.116 -0.2,-1.675c-0.241,-1.922 -0.475,-3.844 -0.682,-5.766c-0.09,-0.869 -0.162,-1.737 -0.246,-2.606c-0.157,-1.61 -0.316,-3.216 -0.447,-4.819c-0.078,-0.972 -0.138,-1.941 -0.207,-2.912c-0.109,-1.507 -0.218,-3.016 -0.303,-4.522c-0.056,-1 -0.09,-1.997 -0.137,-2.994c-0.056,-1.178 -0.106,-2.359 -0.147,-3.537l14.041,0c0.134,1.231 0.303,2.462 0.453,3.693c0.125,1.01 0.237,2.019 0.372,3.028c0.209,1.566 0.446,3.132 0.678,4.7c0.137,0.922 0.259,1.841 0.406,2.763c0.312,1.969 0.653,3.941 1.006,5.912c0.094,0.519 0.172,1.038 0.266,1.557c0.453,2.478 0.937,4.959 1.453,7.44c0.175,0.844 0.372,1.688 0.556,2.535c0.356,1.647 0.71,3.293 1.091,4.943c0.237,1.019 0.497,2.035 0.744,3.054c0.356,1.475 0.709,2.943 1.087,4.415c0.278,1.084 0.578,2.163 0.869,3.247c0.378,1.403 0.75,2.806 1.147,4.212c0.312,1.104 0.64,2.204 0.962,3.307c0.303,1.025 0.591,2.059 0.906,3.094Zm21.947,-57.907l17.4,0c-0.025,0.013 -0.05,0.025 -0.075,0.038c-2.668,1.24 -5.4,2.481 -8.153,3.722c-0.79,0.356 -1.594,0.712 -2.39,1.068c-2.063,0.919 -4.141,1.838 -6.241,2.754c-0.516,0.225 -1.031,0.45 -1.547,0.671l1.006,-8.253Zm0.372,-3.125l2.088,-17.131l0.147,-1.203c0.14,0.619 0.309,1.241 0.456,1.862c0.459,1.957 0.934,3.916 1.431,5.875c0.25,0.985 0.506,1.963 0.766,2.947c0.518,1.957 1.056,3.91 1.609,5.863c0.169,0.593 0.319,1.194 0.491,1.787l-6.988,0Zm1.763,13.419c0.978,-0.428 1.959,-0.85 2.931,-1.278c1.562,-0.691 3.103,-1.381 4.644,-2.075c0.706,-0.316 1.422,-0.631 2.122,-0.947c2.237,-1.012 4.45,-2.025 6.631,-3.041c0.269,-0.125 0.528,-0.25 0.797,-0.375c1.847,-0.859 3.681,-1.721 5.478,-2.578l26.084,0l0.444,3.644c-1.297,0.638 -2.613,1.275 -3.934,1.913c-0.629,0.303 -1.241,0.606 -1.879,0.909c-1.743,0.834 -3.518,1.669 -5.303,2.503c-0.443,0.206 -0.868,0.413 -1.315,0.622c-2.247,1.044 -4.525,2.091 -6.838,3.141c-0.309,0.14 -0.631,0.281 -0.94,0.421c-1.994,0.9 -4,1.797 -6.038,2.697c-0.784,0.344 -1.587,0.691 -2.378,1.038c-1.591,0.697 -3.181,1.39 -4.8,2.087c-0.903,0.388 -1.825,0.775 -2.734,1.163c-1.541,0.656 -3.082,1.312 -4.647,1.969c-0.96,0.403 -1.935,0.803 -2.903,1.206c-1.532,0.637 -3.063,1.272 -4.616,1.906c-1.028,0.422 -2.069,0.841 -3.106,1.259c-1.069,0.435 -2.141,0.866 -3.219,1.297l1.941,-15.922c1.196,-0.515 2.381,-1.037 3.578,-1.559Zm67.925,40.803c-0.994,-1.609 -1.96,-3.222 -2.932,-4.834c-0.471,-0.791 -0.962,-1.578 -1.431,-2.369c-2.825,-4.762 -5.537,-9.531 -8.125,-14.272l-0.569,-4.675l-2.771,-22.766l-0.266,-2.178l2.656,0c0.906,1.747 1.847,3.497 2.788,5.25c0.3,0.557 0.584,1.113 0.884,1.675c2.716,5.01 5.563,10.032 8.541,15.06c0.287,0.484 0.587,0.969 0.875,1.45c1.197,2.006 2.406,4.012 3.643,6.022c0.482,0.781 0.979,1.562 1.469,2.343c1.069,1.71 2.138,3.419 3.231,5.128c0.591,0.916 1.197,1.835 1.794,2.754c1.019,1.565 2.038,3.131 3.081,4.696c0.669,1 1.354,2.007 2.032,3.007c0.997,1.478 2,2.953 3.018,4.431c0.732,1.056 1.479,2.116 2.219,3.172c0.685,0.975 1.353,1.947 2.044,2.922l-17.903,0c-0.875,-1.366 -1.731,-2.738 -2.588,-4.107c-0.559,-0.909 -1.134,-1.806 -1.69,-2.709Zm0.572,6.81l-9.61,0l-2.031,-16.71l-0.003,0l-0.406,-3.337c0.025,0.043 0.053,0.084 0.075,0.128c1.712,3.012 3.478,6.025 5.281,9.037c0.475,0.797 0.962,1.591 1.444,2.388c1.431,2.362 2.887,4.715 4.362,7.065c0.303,0.472 0.584,0.95 0.888,1.429Zm20.459,-7.085c-1.713,-2.466 -3.394,-4.934 -5.047,-7.406c-0.269,-0.4 -0.525,-0.8 -0.791,-1.2c-1.381,-2.078 -2.753,-4.16 -4.093,-6.241c-0.55,-0.85 -1.078,-1.706 -1.622,-2.556c-1.035,-1.631 -2.075,-3.262 -3.085,-4.897c-0.6,-0.969 -1.181,-1.94 -1.771,-2.909c-0.919,-1.51 -1.844,-3.022 -2.744,-4.535c-0.619,-1.04 -1.216,-2.081 -1.825,-3.121c-0.838,-1.438 -1.678,-2.872 -2.497,-4.307c-0.619,-1.09 -1.222,-2.178 -1.828,-3.265c-0.772,-1.382 -1.547,-2.766 -2.297,-4.147c-0.619,-1.138 -1.222,-2.275 -1.825,-3.41c-0.503,-0.943 -1,-1.884 -1.497,-2.825l13.594,0c1.037,1.744 2.115,3.494 3.187,5.241c0.357,0.581 0.7,1.163 1.06,1.741c3.09,4.993 6.315,10 9.672,15.009c0.45,0.669 0.912,1.334 1.365,2.003c1.231,1.819 2.463,3.638 3.722,5.453c0.628,0.91 1.278,1.816 1.916,2.722c1.109,1.578 2.218,3.16 3.353,4.741c0.722,1.003 1.465,2.009 2.197,3.012c1.081,1.485 2.159,2.969 3.265,4.45c0.772,1.041 1.56,2.078 2.344,3.116c1.1,1.456 2.197,2.912 3.316,4.366c0.79,1.028 1.597,2.056 2.4,3.084c0.768,0.987 1.522,1.978 2.3,2.962l-17.763,0c-1.1,-1.528 -2.172,-3.062 -3.25,-4.597c-0.584,-0.824 -1.181,-1.653 -1.756,-2.484Zm-37.497,-53.947l-2.191,-17.968c0.335,0.715 0.704,1.431 1.044,2.146c0.847,1.766 1.703,3.528 2.581,5.294c0.547,1.097 1.1,2.191 1.654,3.288c0.875,1.718 1.762,3.434 2.665,5.15c0.366,0.697 0.716,1.397 1.085,2.09l-6.838,0Zm-1.934,10.06l1.859,15.247l-0.003,-0.007l0.106,0.866c-1.012,0.456 -2.044,0.912 -3.069,1.369c-1.15,0.512 -2.29,1.025 -3.456,1.537c-1.356,0.594 -2.74,1.191 -4.115,1.788c-1.013,0.44 -2.016,0.878 -3.041,1.318c-2.403,1.029 -4.834,2.06 -7.297,3.088c-0.706,0.294 -1.431,0.587 -2.141,0.884c-1.8,0.744 -3.6,1.494 -5.431,2.241c-1.037,0.425 -2.097,0.847 -3.144,1.269c-1.534,0.618 -3.059,1.237 -4.612,1.859c-1.144,0.456 -2.306,0.909 -3.46,1.366c-1.487,0.587 -2.965,1.172 -4.471,1.756c-1.197,0.465 -2.41,0.931 -3.619,1.397c-1.5,0.578 -2.997,1.156 -4.516,1.734c-1.19,0.453 -2.397,0.903 -3.597,1.359c-1.134,0.429 -2.272,0.851 -3.415,1.279l0.84,-6.907l1.103,-9.053c1.554,-0.618 3.079,-1.24 4.613,-1.862c0.891,-0.36 1.794,-0.719 2.675,-1.081c2.438,-0.997 4.85,-1.994 7.234,-2.991c0.116,-0.05 0.235,-0.097 0.35,-0.144c2.51,-1.05 4.991,-2.103 7.441,-3.156c0.647,-0.275 1.272,-0.553 1.913,-0.831c1.781,-0.769 3.559,-1.538 5.306,-2.307c0.878,-0.387 1.734,-0.771 2.603,-1.159c1.484,-0.659 2.975,-1.322 4.434,-1.981c0.938,-0.425 1.853,-0.847 2.778,-1.269c1.366,-0.625 2.735,-1.247 4.079,-1.872c0.965,-0.45 1.912,-0.897 2.865,-1.347c1.26,-0.59 2.522,-1.181 3.756,-1.772c0.979,-0.468 1.944,-0.937 2.913,-1.403c0.834,-0.403 1.694,-0.812 2.519,-1.215Zm-53.029,-21.594l-1.406,11.531l-24.5,0c0.475,-0.206 0.941,-0.412 1.416,-0.622c0.781,-0.34 1.55,-0.678 2.322,-1.018c2.081,-0.913 4.134,-1.829 6.168,-2.744c0.741,-0.335 1.488,-0.666 2.219,-1c2.65,-1.203 5.269,-2.406 7.835,-3.606c0.278,-0.132 0.543,-0.26 0.821,-0.391c1.738,-0.816 3.466,-1.631 5.16,-2.444l-0.034,0.294Zm-6.397,39.691c-0.578,-2.104 -1.132,-4.207 -1.663,-6.313c-0.222,-0.884 -0.45,-1.766 -0.662,-2.653c-0.61,-2.5 -1.191,-5.003 -1.738,-7.5c-0.081,-0.375 -0.175,-0.75 -0.256,-1.122c-0.534,-2.487 -1.016,-4.966 -1.484,-7.441l10.409,0l-1.619,13.285l-1.903,15.612c-0.131,-0.45 -0.269,-0.897 -0.397,-1.347c-0.231,-0.84 -0.459,-1.681 -0.687,-2.521Zm1.575,25.753c0.956,-0.357 1.89,-0.716 2.843,-1.069c1.747,-0.656 3.5,-1.309 5.225,-1.963c0.353,-0.134 0.7,-0.271 1.05,-0.406c7.004,-2.669 13.819,-5.344 20.447,-8.022c0.685,-0.278 1.378,-0.553 2.056,-0.828c1.622,-0.662 3.21,-1.322 4.807,-1.981c0.947,-0.391 1.903,-0.781 2.84,-1.172c1.444,-0.6 2.86,-1.203 4.282,-1.803c1.065,-0.453 2.14,-0.903 3.19,-1.353c1.306,-0.56 2.585,-1.116 3.869,-1.672c1.147,-0.497 2.3,-0.994 3.437,-1.494c1.194,-0.522 2.363,-1.047 3.541,-1.569c0.869,-0.387 1.759,-0.775 2.619,-1.162l1.969,16.15c-1.404,0.584 -2.844,1.169 -4.272,1.756c-1.635,0.672 -3.253,1.344 -4.916,2.016c-1.309,0.528 -2.653,1.056 -3.975,1.584c-1.969,0.785 -3.925,1.572 -5.925,2.356c-1.266,0.497 -2.566,0.991 -3.841,1.488c-2.993,1.162 -6.009,2.319 -9.065,3.475c-2.463,0.931 -4.925,1.862 -7.425,2.791l-23.619,0l0.863,-7.122Zm33.178,6.54c0.953,-0.362 1.893,-0.725 2.84,-1.09c2.294,-0.878 4.566,-1.76 6.819,-2.638c0.972,-0.378 1.938,-0.756 2.897,-1.134c2.737,-1.078 5.441,-2.153 8.112,-3.228c0.332,-0.138 0.679,-0.272 1.013,-0.407c2.603,-1.056 5.175,-2.109 7.712,-3.159l1.491,12.234l-32.403,0c0.512,-0.19 1.009,-0.384 1.519,-0.578Zm31.262,3.707l0.006,0l0.588,4.812l3.063,25.166c-0.482,-0.753 -0.975,-1.507 -1.454,-2.263c-0.615,-0.978 -1.228,-1.959 -1.834,-2.937c-1.272,-2.05 -2.522,-4.103 -3.753,-6.16c-0.528,-0.878 -1.063,-1.756 -1.581,-2.634c-1.71,-2.891 -3.385,-5.784 -5.007,-8.669c-0.137,-0.244 -0.268,-0.487 -0.403,-0.728c-1.231,-2.2 -2.412,-4.394 -3.59,-6.584l13.965,0l0,-0.003Zm3.153,0l23.175,0c-0.015,0.006 -0.031,0.012 -0.047,0.018c-3.206,1.291 -6.481,2.582 -9.79,3.872c-0.85,0.331 -1.716,0.669 -2.572,1c-2.838,1.1 -5.7,2.197 -8.594,3.294c-0.375,0.144 -0.747,0.284 -1.122,0.428l-1.05,-8.612Zm64.466,-3.125l-8.019,0c-1.078,-1.354 -2.128,-2.707 -3.187,-4.06c-0.803,-1.025 -1.622,-2.05 -2.41,-3.075c-1.9,-2.462 -3.775,-4.931 -5.618,-7.4c-0.35,-0.469 -0.691,-0.944 -1.041,-1.415c-1.494,-2.016 -2.978,-4.029 -4.431,-6.044c-0.588,-0.813 -1.153,-1.625 -1.735,-2.435c-1.19,-1.668 -2.381,-3.337 -3.543,-5.006c-0.682,-0.978 -1.341,-1.953 -2.013,-2.931c-1.028,-1.497 -2.059,-2.994 -3.066,-4.494c-0.728,-1.084 -1.437,-2.169 -2.153,-3.253c-0.915,-1.384 -1.834,-2.772 -2.728,-4.156c-0.744,-1.147 -1.469,-2.294 -2.197,-3.441c-0.84,-1.322 -1.678,-2.64 -2.5,-3.959c-0.737,-1.188 -1.459,-2.372 -2.181,-3.556c-0.547,-0.894 -1.09,-1.788 -1.628,-2.682l13.469,0c1.287,1.916 2.637,3.841 3.969,5.763c0.762,1.103 1.496,2.2 2.278,3.303c1.493,2.122 3.04,4.247 4.578,6.372c0.753,1.04 1.484,2.081 2.247,3.122c1.793,2.437 3.637,4.875 5.487,7.309c1.181,1.556 2.375,3.109 3.581,4.663c1.766,2.278 3.532,4.556 5.341,6.828l7.5,20.547Zm-10.987,-30.072c-0.272,-0.35 -0.554,-0.7 -0.825,-1.053c-0.535,-0.697 -1.06,-1.391 -1.591,-2.088c-1.703,-2.234 -3.381,-4.475 -5.038,-6.712c-0.584,-0.791 -1.168,-1.582 -1.75,-2.372c-2.05,-2.803 -4.075,-5.61 -6.043,-8.407c-0.041,-0.056 -0.078,-0.109 -0.116,-0.162c-1.65,-2.35 -3.241,-4.691 -4.831,-7.034l10.019,0l10.175,27.828Zm-32.472,-88.86l9.203,25.191c-0.369,-0.559 -0.719,-1.116 -1.088,-1.675c-2.037,-3.113 -4.031,-6.228 -5.972,-9.344c-0.728,-1.165 -1.44,-2.331 -2.153,-3.494c-1.756,-2.868 -3.465,-5.734 -5.134,-8.593c-0.406,-0.694 -0.819,-1.391 -1.219,-2.085l6.363,0Zm-9.991,0c1.063,1.86 2.181,3.732 3.284,5.597c0.672,1.141 1.319,2.275 2.004,3.416c1.259,2.097 2.575,4.197 3.881,6.3c0.662,1.062 1.297,2.122 1.969,3.187c1.6,2.528 3.25,5.053 4.912,7.578c0.416,0.632 0.809,1.263 1.228,1.894c2.072,3.122 4.191,6.238 6.35,9.341l7.525,20.59l-5.562,0c-0.966,-1.39 -1.903,-2.784 -2.85,-4.178c-0.66,-0.972 -1.335,-1.94 -1.985,-2.909c-1.643,-2.459 -3.262,-4.919 -4.85,-7.384c-0.228,-0.357 -0.447,-0.713 -0.672,-1.066c-1.362,-2.125 -2.709,-4.25 -4.025,-6.375c-0.525,-0.847 -1.028,-1.694 -1.543,-2.541c-1,-1.637 -2.003,-3.275 -2.975,-4.912c-0.572,-0.963 -1.119,-1.922 -1.685,-2.881c-0.887,-1.525 -1.781,-3.047 -2.653,-4.569c-0.572,-1.006 -1.125,-2.016 -1.687,-3.019c-0.832,-1.481 -1.66,-2.962 -2.463,-4.441c-0.556,-1.015 -1.09,-2.028 -1.628,-3.043c-0.787,-1.472 -1.575,-2.944 -2.337,-4.416c-0.522,-1 -1.022,-2 -1.532,-2.997c-0.537,-1.056 -1.068,-2.112 -1.597,-3.165l8.891,0l0,-0.007Zm-12.403,0c0.762,1.55 1.562,3.1 2.353,4.65c0.391,0.769 0.769,1.535 1.166,2.303c2.578,4.985 5.287,9.985 8.128,14.985c0.334,0.594 0.69,1.187 1.028,1.778c1.087,1.897 2.181,3.794 3.306,5.694c0.506,0.856 1.035,1.715 1.547,2.572c0.978,1.631 1.959,3.262 2.966,4.893c0.6,0.978 1.225,1.957 1.837,2.935c0.944,1.503 1.885,3.006 2.847,4.509c0.681,1.063 1.378,2.122 2.072,3.184c0.922,1.416 1.844,2.829 2.787,4.241c0.747,1.122 1.51,2.244 2.272,3.363c0.628,0.931 1.244,1.862 1.885,2.793l-13.213,0c-0.947,-1.54 -1.875,-3.081 -2.8,-4.622c-0.478,-0.8 -0.972,-1.596 -1.444,-2.396c-1.428,-2.413 -2.825,-4.825 -4.196,-7.244c-0.035,-0.06 -0.069,-0.119 -0.104,-0.178c-1.403,-2.478 -2.775,-4.957 -4.115,-7.441c-0.435,-0.8 -0.847,-1.6 -1.272,-2.4c-0.894,-1.678 -1.794,-3.356 -2.663,-5.037c-0.506,-0.985 -0.993,-1.969 -1.493,-2.954c-0.76,-1.496 -1.522,-2.993 -2.257,-4.487c-0.518,-1.053 -1.012,-2.103 -1.518,-3.156c-0.691,-1.428 -1.378,-2.857 -2.044,-4.285c-0.509,-1.09 -1,-2.181 -1.497,-3.272c-0.625,-1.378 -1.256,-2.756 -1.866,-4.134c-0.5,-1.131 -0.981,-2.262 -1.471,-3.394c-0.416,-0.972 -0.832,-1.94 -1.238,-2.909l8.997,0l0,0.009Zm-12.403,0c0.619,1.491 1.275,2.988 1.919,4.482c0.35,0.812 0.687,1.621 1.043,2.434c0.9,2.044 1.832,4.087 2.772,6.134c0.203,0.444 0.397,0.888 0.603,1.335c1.153,2.481 2.341,4.968 3.56,7.456c0.384,0.787 0.79,1.572 1.184,2.359c0.844,1.694 1.684,3.391 2.556,5.088c0.538,1.044 1.097,2.084 1.641,3.128c0.756,1.444 1.509,2.887 2.287,4.331c0.604,1.122 1.232,2.247 1.85,3.369c0.747,1.362 1.494,2.722 2.26,4.081c0.659,1.169 1.337,2.335 2.009,3.5c0.753,1.313 1.506,2.625 2.278,3.935c0.7,1.19 1.416,2.378 2.132,3.568c0.54,0.9 1.065,1.803 1.615,2.7l-13.344,0c-0.553,-1.028 -1.087,-2.059 -1.628,-3.09c-0.656,-1.241 -1.318,-2.482 -1.959,-3.725c-0.681,-1.325 -1.338,-2.65 -2,-3.972c-0.531,-1.06 -1.078,-2.119 -1.597,-3.181c-1.003,-2.047 -1.978,-4.094 -2.937,-6.138c-0.163,-0.344 -0.332,-0.691 -0.494,-1.034c-1.103,-2.363 -2.169,-4.719 -3.21,-7.069l-1.556,-12.753l-2.059,-16.938l1.075,0Zm-4.225,0l2.94,24.141l0.241,1.987c-0.056,-0.134 -0.106,-0.271 -0.166,-0.409c-1.559,-3.731 -3.034,-7.472 -4.456,-11.209c-0.428,-1.119 -0.84,-2.238 -1.25,-3.357c-1.134,-3.075 -2.219,-6.143 -3.253,-9.206c-0.219,-0.65 -0.45,-1.3 -0.666,-1.947l6.61,0Zm-9.922,0c0.525,1.603 1.106,3.216 1.656,4.822c0.46,1.341 0.9,2.678 1.381,4.022c0.772,2.159 1.597,4.322 2.416,6.484c0.366,0.972 0.713,1.941 1.091,2.91c2.437,6.269 5.068,12.54 7.881,18.769l0.444,3.621l2.103,17.272l-5.828,0c-0.713,-1.581 -1.4,-3.165 -2.088,-4.75c-0.303,-0.703 -0.619,-1.4 -0.915,-2.1c-0.985,-2.312 -1.941,-4.628 -2.872,-6.947c-0.066,-0.156 -0.132,-0.309 -0.194,-0.465c-1.009,-2.525 -1.991,-5.05 -2.934,-7.575c-0.016,-0.041 -0.032,-0.078 -0.047,-0.122c-0.913,-2.434 -1.791,-4.872 -2.647,-7.306c-0.247,-0.71 -0.475,-1.416 -0.719,-2.125c-0.603,-1.766 -1.212,-3.535 -1.784,-5.3c-0.303,-0.928 -0.585,-1.853 -0.875,-2.782c-0.488,-1.543 -0.978,-3.084 -1.441,-4.625c-0.312,-1.043 -0.606,-2.084 -0.909,-3.128c-0.413,-1.425 -0.828,-2.85 -1.222,-4.272c-0.303,-1.096 -0.585,-2.193 -0.875,-3.287c-0.275,-1.038 -0.547,-2.075 -0.81,-3.113l9.188,0l0,-0.003Zm-12.425,0c0.322,1.285 0.675,2.572 1.016,3.857c0.262,0.993 0.512,1.984 0.784,2.978c0.469,1.712 0.969,3.425 1.469,5.14c0.225,0.769 0.434,1.538 0.662,2.307c0.744,2.484 1.516,4.971 2.322,7.462c0.131,0.403 0.275,0.809 0.406,1.216c0.685,2.084 1.378,4.168 2.11,6.256c0.315,0.903 0.65,1.806 0.975,2.709c0.568,1.585 1.128,3.172 1.722,4.757c0.387,1.034 0.793,2.065 1.19,3.1c0.56,1.453 1.113,2.909 1.694,4.362c0.434,1.091 0.884,2.175 1.331,3.263c0.572,1.396 1.141,2.793 1.731,4.187c0.469,1.113 0.96,2.219 1.441,3.331c0.431,0.991 0.847,1.985 1.284,2.975l-13.559,0c-0.494,-1.334 -0.972,-2.668 -1.447,-4.006c-0.34,-0.956 -0.697,-1.912 -1.028,-2.869c-0.581,-1.672 -1.131,-3.347 -1.684,-5.018c-0.266,-0.8 -0.544,-1.6 -0.803,-2.4c-0.794,-2.469 -1.563,-4.941 -2.297,-7.413c-0.119,-0.403 -0.225,-0.806 -0.344,-1.209c-0.609,-2.075 -1.206,-4.147 -1.772,-6.222c-0.25,-0.913 -0.475,-1.825 -0.716,-2.738c-0.412,-1.565 -0.831,-3.134 -1.218,-4.703c-0.253,-1.025 -0.485,-2.05 -0.728,-3.075c-0.344,-1.453 -0.697,-2.903 -1.019,-4.356c-0.238,-1.066 -0.453,-2.128 -0.678,-3.191c-0.3,-1.415 -0.603,-2.831 -0.885,-4.243c-0.212,-1.075 -0.403,-2.147 -0.603,-3.219c-0.2,-1.078 -0.4,-2.156 -0.59,-3.235l9.234,0l0,-0.003Zm-13.616,0l1.185,0c0.206,1.191 0.443,2.388 0.665,3.582c0.2,1.071 0.388,2.146 0.6,3.218c0.307,1.553 0.641,3.107 0.972,4.66c0.197,0.928 0.378,1.856 0.585,2.784c0.506,2.284 1.043,4.569 1.603,6.856c0.05,0.2 0.09,0.397 0.137,0.597c0.613,2.485 1.26,4.972 1.935,7.46c0.228,0.84 0.478,1.678 0.712,2.518c0.459,1.653 0.922,3.307 1.409,4.957c0.297,1.003 0.616,2.003 0.922,3.003c0.457,1.487 0.907,2.975 1.382,4.459c0.34,1.059 0.7,2.119 1.05,3.178c0.475,1.431 0.946,2.866 1.44,4.297c0.372,1.072 0.76,2.144 1.141,3.216c0.372,1.04 0.725,2.081 1.106,3.118l-13.647,0c-0.075,-0.259 -0.147,-0.525 -0.222,-0.784c-1.25,-4.309 -2.425,-8.644 -3.497,-12.978c-0.046,-0.197 -0.087,-0.391 -0.137,-0.588c-1.084,-4.437 -2.075,-8.871 -2.956,-13.281c-0.016,-0.075 -0.035,-0.15 -0.047,-0.225l2.99,-24.54l0.672,-5.507Zm-39.015,-0.009l11.54,0c-0.028,0.016 -0.056,0.031 -0.084,0.05c-2.122,1.169 -4.294,2.341 -6.494,3.512c-0.622,0.329 -1.259,0.66 -1.887,0.991c-1.591,0.838 -3.191,1.672 -4.819,2.506c-0.341,0.175 -0.688,0.35 -1.031,0.525l2.775,-7.584Zm-4.347,11.897c1.39,-0.7 2.759,-1.406 4.128,-2.11c0.494,-0.253 0.997,-0.506 1.484,-0.759c3.941,-2.041 7.778,-4.087 11.488,-6.128c0.215,-0.122 0.425,-0.241 0.64,-0.359c1.538,-0.85 3.063,-1.697 4.554,-2.544l17.921,0l-0.437,3.6c-1.188,0.7 -2.4,1.403 -3.622,2.103c-0.444,0.256 -0.872,0.509 -1.319,0.766c-1.803,1.028 -3.64,2.059 -5.509,3.09c-0.331,0.185 -0.678,0.369 -1.016,0.553c-1.531,0.844 -3.078,1.685 -4.653,2.528c-0.69,0.369 -1.4,0.738 -2.1,1.107c-1.24,0.656 -2.484,1.315 -3.753,1.972c-0.822,0.425 -1.659,0.85 -2.487,1.278c-1.175,0.603 -2.354,1.206 -3.55,1.809c-0.891,0.45 -1.797,0.897 -2.697,1.347c-1.166,0.578 -2.332,1.159 -3.516,1.737c-0.947,0.463 -1.9,0.925 -2.856,1.385c-1.172,0.565 -2.347,1.131 -3.538,1.697c-0.984,0.468 -1.978,0.937 -2.975,1.406c-0.59,0.278 -1.19,0.556 -1.784,0.831l5.597,-15.309Zm-7.116,19.472c2.003,-0.922 3.978,-1.847 5.938,-2.772c0.122,-0.056 0.243,-0.113 0.365,-0.169c2.203,-1.041 4.375,-2.084 6.519,-3.128c0.541,-0.263 1.066,-0.528 1.606,-0.791c1.582,-0.775 3.16,-1.55 4.707,-2.325c0.712,-0.356 1.403,-0.712 2.109,-1.068c1.347,-0.682 2.687,-1.363 4.009,-2.041c0.785,-0.406 1.557,-0.809 2.332,-1.216c1.209,-0.631 2.415,-1.262 3.603,-1.893c0.815,-0.435 1.615,-0.866 2.418,-1.3c1.113,-0.6 2.225,-1.2 3.319,-1.8c0.835,-0.457 1.656,-0.916 2.478,-1.372c1.028,-0.572 2.05,-1.144 3.06,-1.716c0.84,-0.475 1.672,-0.953 2.497,-1.428c0.484,-0.278 0.981,-0.559 1.462,-0.838l-1.887,15.491c-1.157,0.616 -2.338,1.231 -3.516,1.847c-0.672,0.35 -1.331,0.7 -2.013,1.053c-1.978,1.022 -3.984,2.041 -6.028,3.066c-0.531,0.265 -1.084,0.534 -1.618,0.8c-1.535,0.762 -3.069,1.525 -4.638,2.287c-0.859,0.419 -1.741,0.838 -2.609,1.256c-1.275,0.613 -2.547,1.229 -3.847,1.841c-0.944,0.447 -1.906,0.894 -2.863,1.341c-1.259,0.587 -2.515,1.175 -3.79,1.765c-0.994,0.457 -2.007,0.916 -3.01,1.372c-1.268,0.578 -2.537,1.153 -3.822,1.731c-1.015,0.457 -2.04,0.91 -3.065,1.363c-1.325,0.587 -2.653,1.175 -3.997,1.762c-1.006,0.438 -2.019,0.875 -3.031,1.316c-0.769,0.331 -1.544,0.663 -2.319,0.994l5.631,-15.428Zm-7.112,19.459c1.697,-0.719 3.365,-1.441 5.034,-2.162c0.634,-0.272 1.278,-0.544 1.906,-0.819c2.357,-1.025 4.688,-2.053 6.991,-3.081c0.847,-0.379 1.672,-0.757 2.509,-1.132c1.463,-0.659 2.932,-1.318 4.369,-1.978c0.984,-0.453 1.947,-0.903 2.922,-1.353c1.269,-0.587 2.541,-1.178 3.791,-1.766c1.003,-0.471 1.984,-0.943 2.975,-1.415c1.19,-0.569 2.384,-1.135 3.559,-1.703c0.994,-0.482 1.972,-0.966 2.956,-1.447c1.138,-0.56 2.275,-1.116 3.394,-1.675c0.962,-0.481 1.909,-0.96 2.862,-1.441c1.116,-0.562 2.225,-1.128 3.322,-1.69c0.916,-0.472 1.822,-0.941 2.725,-1.413c0.619,-0.325 1.253,-0.647 1.866,-0.969l-1.9,15.616c-1.381,0.669 -2.803,1.337 -4.213,2.009c-1.231,0.588 -2.437,1.169 -3.69,1.757c-1.766,0.828 -3.585,1.656 -5.394,2.481c-1.059,0.484 -2.094,0.969 -3.166,1.453c-5.775,2.609 -11.743,5.222 -17.865,7.812l-17.538,0l2.585,-7.084Zm-3.732,10.209l2.769,0c0.01,0.31 0.044,0.622 0.053,0.932c0.163,4.422 0.407,8.853 0.769,13.29c0.022,0.272 0.053,0.547 0.075,0.819c0.384,4.556 0.859,9.116 1.45,13.675c0.013,0.103 0.022,0.203 0.034,0.309c0.591,4.541 1.304,9.085 2.1,13.622c0.066,0.385 0.125,0.769 0.197,1.153c0.782,4.357 1.672,8.704 2.638,13.044c0.078,0.35 0.134,0.706 0.212,1.056l-18.487,0c-0.044,-0.296 -0.085,-0.59 -0.128,-0.887c-0.625,-4.228 -1.175,-8.469 -1.625,-12.713c-0.022,-0.221 -0.041,-0.443 -0.063,-0.662c-0.447,-4.331 -0.8,-8.659 -1.056,-12.959c-0.006,-0.116 -0.016,-0.232 -0.025,-0.344l11.087,-30.335Zm-13.715,37.538c0,0.009 0,0.016 0.003,0.025c0.247,3.034 0.556,6.072 0.897,9.109c0.097,0.857 0.2,1.716 0.306,2.572c0.284,2.378 0.6,4.753 0.944,7.119c0.072,0.512 0.128,1.028 0.203,1.537l-9.791,0l7.438,-20.362Zm-29.75,81.394l7.937,-21.716c0.038,0.206 0.085,0.413 0.122,0.619c0.572,3.162 1.2,6.331 1.875,9.503c0.153,0.719 0.319,1.434 0.475,2.15c0.594,2.7 1.222,5.4 1.888,8.094c0.109,0.45 0.2,0.9 0.315,1.35l-12.612,0Zm15.844,0c-0.072,-0.282 -0.138,-0.566 -0.207,-0.847c-1.072,-4.275 -2.075,-8.569 -2.965,-12.86c-0.035,-0.159 -0.063,-0.318 -0.094,-0.471c-0.9,-4.363 -1.7,-8.719 -2.403,-13.047c-0.022,-0.141 -0.05,-0.282 -0.072,-0.422l11.059,-30.26l4.407,0c0.175,1.294 0.381,2.591 0.575,3.888c0.137,0.944 0.265,1.884 0.415,2.825c0.26,1.634 0.547,3.275 0.831,4.912c0.15,0.854 0.285,1.71 0.441,2.563c0.394,2.15 0.819,4.306 1.259,6.456c0.069,0.335 0.129,0.672 0.197,1.006c0.516,2.488 1.066,4.975 1.644,7.463c0.191,0.828 0.406,1.653 0.603,2.481c0.4,1.663 0.797,3.325 1.225,4.991c0.263,1.015 0.547,2.031 0.819,3.05c0.394,1.475 0.781,2.944 1.197,4.419c0.306,1.078 0.628,2.153 0.944,3.231c0.412,1.409 0.821,2.819 1.256,4.231c0.337,1.106 0.697,2.209 1.047,3.316c0.325,1.025 0.637,2.05 0.972,3.072l-23.15,0l0,0.003Zm26.453,0c-0.441,-1.322 -0.86,-2.647 -1.282,-3.972c-0.303,-0.96 -0.621,-1.913 -0.915,-2.872c-0.522,-1.694 -1.016,-3.394 -1.51,-5.091c-0.225,-0.775 -0.465,-1.55 -0.687,-2.328c-1.406,-4.953 -2.688,-9.915 -3.847,-14.878c-0.194,-0.822 -0.362,-1.644 -0.547,-2.466c-0.375,-1.653 -0.747,-3.306 -1.094,-4.959c-0.212,-1.012 -0.4,-2.025 -0.6,-3.044c-0.29,-1.459 -0.587,-2.922 -0.853,-4.378c-0.2,-1.09 -0.378,-2.178 -0.568,-3.272c-0.238,-1.375 -0.482,-2.756 -0.7,-4.131c-0.182,-1.131 -0.338,-2.266 -0.507,-3.394c-0.153,-1.04 -0.306,-2.081 -0.45,-3.122l18.732,0c0.29,1.372 0.615,2.75 0.928,4.125c0.197,0.875 0.384,1.754 0.587,2.629c0.435,1.846 0.9,3.693 1.369,5.54c0.162,0.638 0.309,1.275 0.475,1.913c1.303,5 2.728,10.006 4.281,15.015c0.222,0.716 0.46,1.428 0.688,2.144c0.562,1.778 1.128,3.556 1.725,5.331c0.303,0.907 0.625,1.807 0.934,2.713c0.547,1.59 1.094,3.181 1.663,4.769c0.35,0.968 0.715,1.931 1.071,2.9c0.566,1.525 1.129,3.053 1.713,4.578c0.381,0.987 0.778,1.978 1.169,2.965c0.431,1.094 0.847,2.188 1.29,3.282l-23.065,0l0,0.003Zm39.034,-13.266l-1.616,13.266l-10.962,0c-0.503,-1.235 -0.988,-2.466 -1.481,-3.7c-0.428,-1.082 -0.869,-2.157 -1.285,-3.238c-0.628,-1.625 -1.225,-3.25 -1.825,-4.878c-0.312,-0.844 -0.637,-1.681 -0.94,-2.525c-0.891,-2.466 -1.753,-4.934 -2.585,-7.403c-0.181,-0.541 -0.347,-1.078 -0.525,-1.619c-0.64,-1.94 -1.278,-3.881 -1.884,-5.822c-0.281,-0.906 -0.541,-1.809 -0.813,-2.712c-0.478,-1.578 -0.956,-3.156 -1.409,-4.731c-0.287,-1.004 -0.553,-2.01 -0.831,-3.013c-0.406,-1.478 -0.822,-2.953 -1.206,-4.428c-0.272,-1.041 -0.522,-2.078 -0.782,-3.119c-0.362,-1.437 -0.725,-2.878 -1.065,-4.315c-0.25,-1.05 -0.478,-2.104 -0.716,-3.154c-0.247,-1.087 -0.487,-2.168 -0.719,-3.253l18.685,0c0.472,1.632 0.997,3.275 1.5,4.913c0.397,1.3 0.772,2.594 1.187,3.89c0.653,2.054 1.36,4.11 2.056,6.166c0.369,1.081 0.71,2.159 1.091,3.241c1.034,2.947 2.113,5.897 3.231,8.837c0.153,0.406 0.31,0.813 0.466,1.216c1.094,2.85 2.219,5.697 3.387,8.534l-0.959,7.847Zm0.853,-16.572c-0.4,-1.028 -0.794,-2.059 -1.181,-3.09c-0.756,-2.004 -1.484,-4.007 -2.2,-6.013c-0.331,-0.928 -0.669,-1.853 -0.991,-2.778c-1.003,-2.891 -1.975,-5.778 -2.89,-8.659c-0.044,-0.138 -0.082,-0.272 -0.125,-0.41c-0.753,-2.378 -1.457,-4.75 -2.15,-7.119l14.118,0l-2.912,23.904l0,-0.004l-0.781,6.413c-0.291,-0.744 -0.6,-1.494 -0.888,-2.244Zm0.678,29.838l1.857,-15.228l0.784,-6.454c0.097,0.225 0.203,0.457 0.3,0.682c1.344,3.172 2.741,6.347 4.187,9.528c0.313,0.681 0.635,1.359 0.947,2.037c1.241,2.685 2.519,5.366 3.828,8.044c0.225,0.459 0.435,0.928 0.663,1.391l-12.566,0Zm16.066,0c-0.675,-1.353 -1.331,-2.707 -1.988,-4.066c-0.425,-0.872 -0.859,-1.747 -1.278,-2.622c-0.893,-1.878 -1.759,-3.759 -2.618,-5.64c-0.232,-0.507 -0.475,-1.013 -0.704,-1.519c-2.14,-4.735 -4.165,-9.466 -6.065,-14.166l2.247,-18.431l1.397,-11.459l4.4,0c0.525,1.393 1.087,2.793 1.631,4.187c0.356,0.913 0.7,1.822 1.065,2.734c0.729,1.816 1.488,3.632 2.25,5.45c0.282,0.669 0.544,1.335 0.832,2.004c1.05,2.468 2.134,4.937 3.247,7.409c0.396,0.875 0.815,1.756 1.218,2.634c0.741,1.613 1.478,3.222 2.244,4.838c0.5,1.05 1.022,2.1 1.534,3.153c0.7,1.437 1.391,2.875 2.113,4.316c0.553,1.106 1.131,2.215 1.697,3.321c0.709,1.382 1.412,2.769 2.137,4.15c0.591,1.129 1.203,2.257 1.81,3.382c0.728,1.359 1.453,2.715 2.2,4.072c0.634,1.156 1.287,2.309 1.937,3.462c0.522,0.931 1.031,1.863 1.563,2.794l-22.869,0l0,-0.003Zm26.478,0c-0.894,-1.55 -1.766,-3.103 -2.637,-4.66c-0.435,-0.775 -0.882,-1.547 -1.313,-2.325c-1.306,-2.365 -2.587,-4.737 -3.841,-7.106c-0.056,-0.103 -0.115,-0.209 -0.168,-0.316c-1.313,-2.49 -2.597,-4.981 -3.847,-7.475c-0.338,-0.675 -0.656,-1.346 -0.991,-2.018c-0.894,-1.803 -1.787,-3.607 -2.647,-5.41c-0.453,-0.947 -0.884,-1.89 -1.325,-2.84c-0.715,-1.528 -1.437,-3.06 -2.131,-4.591c-0.478,-1.056 -0.934,-2.109 -1.4,-3.166c-0.628,-1.415 -1.259,-2.834 -1.866,-4.25c-0.478,-1.118 -0.934,-2.237 -1.403,-3.353c-0.562,-1.35 -1.125,-2.697 -1.668,-4.043c-0.472,-1.169 -0.922,-2.338 -1.382,-3.507c-0.372,-0.95 -0.74,-1.897 -1.103,-2.843l18.522,0c0.647,1.421 1.328,2.85 1.997,4.275c0.422,0.893 0.828,1.787 1.256,2.684c0.997,2.084 2.028,4.175 3.072,6.262c0.197,0.394 0.384,0.788 0.581,1.182c1.247,2.478 2.528,4.959 3.838,7.437c0.456,0.869 0.94,1.738 1.406,2.606c0.866,1.619 1.734,3.235 2.628,4.854c0.588,1.062 1.197,2.125 1.794,3.187c0.803,1.422 1.6,2.844 2.419,4.269c0.662,1.144 1.343,2.284 2.018,3.431c0.791,1.341 1.575,2.675 2.382,4.016c0.715,1.187 1.45,2.375 2.178,3.562c0.794,1.291 1.584,2.581 2.394,3.872c0.756,1.206 1.528,2.409 2.3,3.613c0.565,0.884 1.112,1.771 1.687,2.656l-22.75,0l0,-0.003Zm26.478,0c-0.906,-1.388 -1.794,-2.782 -2.681,-4.172c-0.619,-0.966 -1.25,-1.928 -1.863,-2.9c-1.503,-2.385 -2.978,-4.772 -4.428,-7.163c-0.253,-0.418 -0.497,-0.837 -0.75,-1.256c-1.281,-2.131 -2.55,-4.262 -3.79,-6.394c-0.532,-0.915 -1.038,-1.834 -1.563,-2.75c-0.894,-1.565 -1.79,-3.131 -2.662,-4.697c-0.585,-1.046 -1.141,-2.093 -1.713,-3.14c-0.778,-1.428 -1.562,-2.856 -2.322,-4.285c-0.59,-1.115 -1.162,-2.234 -1.743,-3.35c-0.707,-1.362 -1.419,-2.721 -2.107,-4.081c-0.581,-1.147 -1.14,-2.294 -1.706,-3.444c-0.653,-1.325 -1.312,-2.65 -1.95,-3.971c-0.556,-1.157 -1.094,-2.313 -1.637,-3.469c-0.444,-0.947 -0.885,-1.891 -1.316,-2.835l18.416,0c0.853,1.607 1.759,3.216 2.643,4.829c0.769,1.396 1.51,2.793 2.297,4.193c1.231,2.185 2.513,4.372 3.791,6.56c0.556,0.956 1.087,1.906 1.653,2.859c3.712,6.253 7.616,12.497 11.681,18.694l1.775,14.603l0.75,6.169l-10.775,0Zm12.119,-14.897l-1.428,-11.728c2.128,-0.75 4.228,-1.5 6.325,-2.253c0.562,-0.2 1.134,-0.4 1.694,-0.6c2.74,-0.985 5.453,-1.972 8.14,-2.957c0.188,-0.065 0.378,-0.137 0.569,-0.203c5.809,-2.134 11.506,-4.269 17.072,-6.409c0.231,-0.088 0.456,-0.178 0.69,-0.266c2.5,-0.962 4.979,-1.922 7.422,-2.884c0.732,-0.288 1.444,-0.575 2.169,-0.86c1.928,-0.762 3.85,-1.525 5.747,-2.287c0.891,-0.356 1.759,-0.716 2.644,-1.075c1.709,-0.694 3.418,-1.384 5.1,-2.078c0.909,-0.375 1.8,-0.75 2.703,-1.125c1.315,-0.547 2.65,-1.097 3.947,-1.641l6.012,16.46c-1.5,0.587 -3.019,1.175 -4.54,1.762c-0.91,0.35 -1.804,0.7 -2.719,1.05c-1.825,0.7 -3.685,1.4 -5.538,2.1c-0.934,0.353 -1.856,0.706 -2.8,1.059c-1.912,0.716 -3.856,1.432 -5.797,2.15c-0.912,0.335 -1.812,0.675 -2.731,1.01c-2.828,1.037 -5.687,2.072 -8.578,3.109c-0.747,0.269 -1.516,0.538 -2.272,0.806c-2.187,0.782 -4.375,1.56 -6.597,2.341c-1.262,0.444 -2.547,0.884 -3.822,1.328c-1.728,0.6 -3.45,1.203 -5.19,1.803c-1.36,0.466 -2.738,0.935 -4.106,1.4c-1.7,0.578 -3.391,1.156 -5.107,1.738c-1.403,0.472 -2.825,0.943 -4.24,1.415c-1.397,0.466 -2.8,0.935 -4.21,1.4l-0.559,-4.565Zm31.422,14.903l-29.606,0l-0.872,-7.172c2.231,-0.737 4.434,-1.478 6.64,-2.219c0.657,-0.218 1.322,-0.44 1.975,-0.659c2.35,-0.791 4.672,-1.584 6.991,-2.378c0.791,-0.269 1.594,-0.538 2.378,-0.81c2.272,-0.781 4.509,-1.562 6.747,-2.343c0.8,-0.278 1.616,-0.557 2.409,-0.838c2.957,-1.037 5.888,-2.075 8.788,-3.115c1.347,-0.482 2.662,-0.966 3.99,-1.447c1.579,-0.572 3.166,-1.141 4.725,-1.713c1.382,-0.503 2.738,-1.009 4.104,-1.515c1.475,-0.547 2.959,-1.091 4.418,-1.635c1.372,-0.515 2.719,-1.028 4.078,-1.54c1.422,-0.541 2.85,-1.079 4.254,-1.616c1.353,-0.516 2.678,-1.034 4.018,-1.553c1.138,-0.441 2.294,-0.881 3.422,-1.322l6.013,16.466c-1.822,0.665 -3.678,1.331 -5.532,1.996c-1.571,0.569 -3.121,1.132 -4.715,1.7c-1.747,0.619 -3.531,1.238 -5.294,1.86c-2.009,0.706 -3.997,1.409 -6.034,2.115c-1.138,0.397 -2.303,0.788 -3.45,1.182c-6.1,2.1 -12.294,4.19 -18.588,6.268c-0.284,0.094 -0.569,0.194 -0.859,0.288Zm11.606,-0.581c1.084,-0.363 2.153,-0.729 3.234,-1.097c2.529,-0.86 5.038,-1.719 7.529,-2.578c1.212,-0.419 2.421,-0.838 3.625,-1.254c2.684,-0.934 5.343,-1.871 7.981,-2.803c0.794,-0.281 1.6,-0.562 2.387,-0.843c3.1,-1.107 6.169,-2.21 9.188,-3.313l4.556,12.466l-40.206,0c0.575,-0.191 1.134,-0.385 1.706,-0.578Z" style="fill:#fff;fill-rule:nonzero;"></path></svg>